<svg xmlns="http://www.w3.org/2000/svg" xmlns:xlink="http://www.w3.org/1999/xlink" width="160" height="50.002" viewBox="0 0 160 50.002"><defs><style>.a{fill:rgba(255,255,255,0);}.b{clip-path:url(#a);}.c{fill:#e51e27;}.d{fill:#7f8080;}.e{stroke:#000;stroke-width:0.637px;}</style><clipPath id="a"><rect class="a" width="160" height="50.002"/></clipPath></defs><g class="b"><g transform="translate(0 0)"><path class="c" d="M106.915,62.4a2.506,2.506,0,0,0-3.534,0L91.783,74l3.534,3.528,11.6-11.6a2.506,2.506,0,0,0,0-3.528" transform="translate(-33.589 -47.868)"/><path d="M42.3,64.837a2.356,2.356,0,0,1-2.35,2.35A7.15,7.15,0,0,0,32.8,74.33v9.462a2.331,2.331,0,0,1-4.662,0V74.33A11.818,11.818,0,0,1,39.945,62.525a2.325,2.325,0,0,1,2.35,2.312" transform="translate(-28.134 -47.941)"/><path d="M67.083,74.288A2.325,2.325,0,0,1,64.72,76.6H48.5a7.187,7.187,0,0,0,6.78,4.85,9.293,9.293,0,0,0,5.27-1.523,2.244,2.244,0,0,1,3.1,1.078,2.489,2.489,0,0,1-1.134,3.133,11.479,11.479,0,0,1-7.231,2.018,11.805,11.805,0,0,1,0-23.611,11.589,11.589,0,0,1,11.805,11.8M48.5,71.995H62.089a6.866,6.866,0,0,0-6.811-4.8,7.212,7.212,0,0,0-6.78,4.8" transform="translate(-29.448 -47.942)"/><path d="M93.536,86.9a2.463,2.463,0,0,1-1.761-.739L73.19,67.617a2.506,2.506,0,0,1,3.528-3.528L95.3,82.662a2.506,2.506,0,0,1-1.767,4.267" transform="translate(-31.947 -48.026)"/><path d="M72.716,85.834a2.506,2.506,0,0,1-1.761-4.267l30-29.958a2.506,2.506,0,0,1,3.534,3.522l-30,30a2.506,2.506,0,0,1-1.767.739" transform="translate(-31.742 -46.956)"/><path class="c" d="M51.727,56.778a24.933,24.933,0,0,1,7.983-6.987,25.3,25.3,0,0,1,10.4-3.133,26.318,26.318,0,0,1,10.972,1.454,27.051,27.051,0,0,1,9.6,6.009h0a2.506,2.506,0,1,1-3.653,3.4,22.558,22.558,0,0,0-16.862-8.146,23.26,23.26,0,0,0-9.744,1.836,24.206,24.206,0,0,0-8.3,5.9.257.257,0,0,1-.363,0,.263.263,0,0,1,0-.338" transform="translate(-30.153 -46.573)"/><path class="d" d="M69.063,95.168h2.024a3.992,3.992,0,0,1,.8.075,1.742,1.742,0,0,1,.627.263,1.378,1.378,0,0,1,.445.5,1.761,1.761,0,0,1,.163.8,1.88,1.88,0,0,1-.15.8,1.36,1.36,0,0,1-.42.514,1.8,1.8,0,0,1-.627.269,3.529,3.529,0,0,1-.8.081h-.871v2.105H69.063Zm1.191,2.287h.8a1.646,1.646,0,0,0,.307,0,.921.921,0,0,0,.269-.1.577.577,0,0,0,.188-.2.627.627,0,0,0,.075-.32A.564.564,0,0,0,71.8,96.5a.746.746,0,0,0-.244-.194,1.359,1.359,0,0,0-.332-.088h-.978Z" transform="translate(-45.356 -50.739)"/><path class="d" d="M74.175,97.859a2.97,2.97,0,0,1,.219-1.178,2.626,2.626,0,0,1,.627-.9,2.889,2.889,0,0,1,.89-.539,3.509,3.509,0,0,1,1.172-.194,3.471,3.471,0,0,1,1.165.194,2.757,2.757,0,0,1,.921.57,2.55,2.55,0,0,1,.627.9,3.083,3.083,0,0,1,.219,1.178,3.052,3.052,0,0,1-.219,1.172,2.506,2.506,0,0,1-.627.9,2.569,2.569,0,0,1-.921.57,3.321,3.321,0,0,1-1.165.2,3.358,3.358,0,0,1-1.172-.2,2.681,2.681,0,0,1-.921-.57,2.563,2.563,0,0,1-.627-.9A2.939,2.939,0,0,1,74.175,97.859Zm1.253,0a1.88,1.88,0,0,0,.119.7,1.6,1.6,0,0,0,.338.551,1.516,1.516,0,0,0,.533.363,1.71,1.71,0,0,0,.689.125,1.736,1.736,0,0,0,.689-.125,1.491,1.491,0,0,0,.526-.363,1.61,1.61,0,0,0,.345-.551,2.049,2.049,0,0,0,.119-.7,2.074,2.074,0,0,0-.119-.7,1.642,1.642,0,0,0-.345-.558,1.479,1.479,0,0,0-.526-.357,1.736,1.736,0,0,0-.689-.132,1.711,1.711,0,0,0-.689.132,1.5,1.5,0,0,0-.533.357,1.623,1.623,0,0,0-.338.558,1.93,1.93,0,0,0-.138.7Z" transform="translate(-45.794 -50.729)"/><path class="d" d="M80.981,95.168h1.3l.865,3.465h0l1.134-3.465h1.1L86.5,98.721h0l.909-3.553H88.62l-1.579,5.4H85.975l-1.184-3.76h0L83.6,100.57H82.579Z" transform="translate(-46.378 -50.739)"/><path class="d" d="M90.163,95.168h3.666v1.1H91.322v1.009h2.35v1.115h-2.35v1.1h2.619v1.1h-3.8Z" transform="translate(-47.163 -50.739)"/><path class="d" d="M95.536,95.168h2.093a3.572,3.572,0,0,1,.79.088,1.8,1.8,0,0,1,.627.263,1.347,1.347,0,0,1,.445.508,1.7,1.7,0,0,1,.163.783,1.592,1.592,0,0,1-.3.978,1.379,1.379,0,0,1-.871.508l1.379,2.281H98.418L97.29,98.414H96.7v2.162H95.511ZM96.727,97.4h1.065a1.077,1.077,0,0,0,.326-.069.564.564,0,0,0,.238-.182.551.551,0,0,0,.094-.345.52.52,0,0,0-.295-.514,1.059,1.059,0,0,0-.3-.088,2.836,2.836,0,0,0-.326,0h-.8Z" transform="translate(-47.623 -50.739)"/><path class="d" d="M101.165,95.168h3.666v1.1h-2.506v1.009h2.35v1.115h-2.325v1.1h2.619v1.1h-3.8Z" transform="translate(-48.108 -50.739)"/><path class="d" d="M106.538,95.168h1.786a5.289,5.289,0,0,1,1.253.144,2.751,2.751,0,0,1,1.015.47,2.274,2.274,0,0,1,.689.84,2.857,2.857,0,0,1,.257,1.253,2.625,2.625,0,0,1-.269,1.14,2.506,2.506,0,0,1-.67.833,2.9,2.9,0,0,1-.971.52,3.86,3.86,0,0,1-1.153.175h-1.942Zm1.191,4.3h.627a3.321,3.321,0,0,0,.764-.088,1.723,1.723,0,0,0,.627-.276,1.328,1.328,0,0,0,.407-.514,1.78,1.78,0,0,0,.15-.771,1.517,1.517,0,0,0-.15-.7,1.372,1.372,0,0,0-.4-.482,1.842,1.842,0,0,0-.589-.288,2.657,2.657,0,0,0-.714-.094h-.7Z" transform="translate(-48.568 -50.739)"/><path class="d" d="M115.674,95.168h2.018a4.387,4.387,0,0,1,.7.05,1.88,1.88,0,0,1,.627.194,1.178,1.178,0,0,1,.457.42,1.253,1.253,0,0,1,.175.708,1.166,1.166,0,0,1-.251.758,1.46,1.46,0,0,1-.683.432h0a1.485,1.485,0,0,1,.489.15,1.41,1.41,0,0,1,.376.282,1.36,1.36,0,0,1,.238.4,1.379,1.379,0,0,1,.081.489,1.341,1.341,0,0,1-.182.714,1.466,1.466,0,0,1-.476.464,2.243,2.243,0,0,1-.627.251,3.459,3.459,0,0,1-.714.075h-2.218Zm1.191,2.156h.865a1.252,1.252,0,0,0,.269,0,.909.909,0,0,0,.238-.1.558.558,0,0,0,.175-.188.589.589,0,0,0,.063-.269.551.551,0,0,0-.069-.282.483.483,0,0,0-.188-.169.689.689,0,0,0-.263-.088,1.428,1.428,0,0,0-.282,0h-.808Zm0,2.237h1.072a1.065,1.065,0,0,0,.276-.031.721.721,0,0,0,.257-.107.583.583,0,0,0,.263-.5.476.476,0,0,0-.1-.307.564.564,0,0,0-.238-.182,1.209,1.209,0,0,0-.313-.081,1.882,1.882,0,0,0-.313,0h-.9Z" transform="translate(-49.352 -50.739)"/><path class="d" d="M122.487,98.264l-2.036-3.1h1.485l1.147,2.018,1.209-2.018h1.41l-2.024,3.1v2.306h-1.191Z" transform="translate(-49.761 -50.739)"/><path class="d" d="M134.323,100.174a4.336,4.336,0,0,1-1.1.395,5.6,5.6,0,0,1-1.172.125,3.346,3.346,0,0,1-1.165-.2,2.594,2.594,0,0,1-1.529-1.466,3.051,3.051,0,0,1-.219-1.172,3.083,3.083,0,0,1,.219-1.178,2.638,2.638,0,0,1,.627-.9,2.757,2.757,0,0,1,.921-.57,3.5,3.5,0,0,1,1.165-.194,4.255,4.255,0,0,1,1.2.157,2.337,2.337,0,0,1,.959.533l-.84.921a1.6,1.6,0,0,0-.545-.382,1.98,1.98,0,0,0-.771-.132,1.755,1.755,0,0,0-.689.132,1.479,1.479,0,0,0-.526.357,1.535,1.535,0,0,0-.338.558,1.93,1.93,0,0,0-.119.7,1.88,1.88,0,0,0,.119.7,1.56,1.56,0,0,0,.865.915,1.754,1.754,0,0,0,.689.125,2.162,2.162,0,0,0,.677-.088,2.345,2.345,0,0,0,.451-.175v-.877h-.971v-1.1h2.112Z" transform="translate(-50.506 -50.726)"/><path class="d" d="M136.173,95.168h1.191v4.3h2.206v1.1h-3.4Z" transform="translate(-51.109 -50.739)"/><path class="d" d="M140.456,97.856a3.083,3.083,0,0,1,.219-1.178,2.625,2.625,0,0,1,.627-.9,2.845,2.845,0,0,1,.927-.57,3.59,3.59,0,0,1,2.331,0,2.845,2.845,0,0,1,.927.57,2.625,2.625,0,0,1,.627.9,3.083,3.083,0,0,1,.219,1.178,3.051,3.051,0,0,1-.219,1.172,2.563,2.563,0,0,1-.627.9,2.651,2.651,0,0,1-.927.57,3.49,3.49,0,0,1-2.331,0,2.651,2.651,0,0,1-.927-.57,2.563,2.563,0,0,1-.627-.9,3.051,3.051,0,0,1-.219-1.172Zm1.253,0a1.88,1.88,0,0,0,.119.7,1.7,1.7,0,0,0,.338.551,1.579,1.579,0,0,0,.533.363,1.955,1.955,0,0,0,1.379,0,1.579,1.579,0,0,0,.533-.363,1.7,1.7,0,0,0,.338-.551,2.05,2.05,0,0,0,.119-.7,2.075,2.075,0,0,0-.119-.7,1.73,1.73,0,0,0-.338-.558,1.56,1.56,0,0,0-.533-.357,1.88,1.88,0,0,0-1.379,0,1.56,1.56,0,0,0-.533.357,1.729,1.729,0,0,0-.338.558,1.929,1.929,0,0,0-.138.7Z" transform="translate(-51.476 -50.726)"/><path class="d" d="M147.879,95.168H149.9a4.387,4.387,0,0,1,.7.05,1.88,1.88,0,0,1,.627.194,1.178,1.178,0,0,1,.457.42,1.253,1.253,0,0,1,.175.708,1.166,1.166,0,0,1-.251.758,1.441,1.441,0,0,1-.677.432h0a1.5,1.5,0,0,1,.482.15,1.41,1.41,0,0,1,.376.282,1.36,1.36,0,0,1,.238.4,1.379,1.379,0,0,1,.081.489,1.341,1.341,0,0,1-.182.714,1.51,1.51,0,0,1-.47.464,2.387,2.387,0,0,1-.627.251,3.565,3.565,0,0,1-.721.075H147.9Zm1.191,2.156h.865a1.252,1.252,0,0,0,.269,0,1.053,1.053,0,0,0,.244-.1.627.627,0,0,0,.169-.188.52.52,0,0,0,.063-.269.5.5,0,0,0-.069-.282.483.483,0,0,0-.188-.169.7.7,0,0,0-.257-.088,1.516,1.516,0,0,0-.282,0h-.815Zm0,2.237h1.072a1.065,1.065,0,0,0,.276-.031.721.721,0,0,0,.257-.107.583.583,0,0,0,.188-.2.526.526,0,0,0,.075-.295.476.476,0,0,0-.1-.307.564.564,0,0,0-.238-.182,1.209,1.209,0,0,0-.313-.081,1.879,1.879,0,0,0-.313,0h-.9Z" transform="translate(-52.112 -50.739)"/><path class="d" d="M155.184,95.168h.984l2.35,5.4H157.17l-.464-1.147h-2.1l-.445,1.147h-1.328Zm.457,1.573-.627,1.679h1.316Z" transform="translate(-52.537 -50.739)"/><path class="d" d="M159.859,95.168h1.191v4.3h2.206v1.1h-3.4Z" transform="translate(-53.139 -50.739)"/><path class="d" d="M168.817,95.168h.984l2.35,5.4h-1.341l-.464-1.147h-2.1l-.451,1.147h-1.316Zm.457,1.573-.658,1.679h1.322Z" transform="translate(-53.706 -50.739)"/><path class="d" d="M176.95,96.559a1.059,1.059,0,0,0-.432-.326,1.335,1.335,0,0,0-.589-.119,1.447,1.447,0,0,0-.627.132,1.5,1.5,0,0,0-.5.357,1.817,1.817,0,0,0-.326.558,1.93,1.93,0,0,0-.113.7,1.879,1.879,0,0,0,.113.7,1.785,1.785,0,0,0,.326.551,1.51,1.51,0,0,0,.482.363,1.4,1.4,0,0,0,.627.125,1.291,1.291,0,0,0,1.115-.576l.99.739a2.074,2.074,0,0,1-.871.708,2.738,2.738,0,0,1-1.084.232,3.346,3.346,0,0,1-1.165-.2,2.569,2.569,0,0,1-.921-.57,2.506,2.506,0,0,1-.627-.9,3.052,3.052,0,0,1-.219-1.172,3.083,3.083,0,0,1,.219-1.178,2.551,2.551,0,0,1,.627-.9,2.757,2.757,0,0,1,.921-.57,3.5,3.5,0,0,1,1.165-.194,3.133,3.133,0,0,1,.476.038,2.57,2.57,0,0,1,.489.138,2,2,0,0,1,.858.627Z" transform="translate(-54.276 -50.726)"/><path class="d" d="M182.838,96.562a1.1,1.1,0,0,0-.432-.326,1.385,1.385,0,0,0-.6-.119,1.491,1.491,0,0,0-.627.132,1.472,1.472,0,0,0-.495.357,1.711,1.711,0,0,0-.332.558,2.074,2.074,0,0,0-.113.7,2.049,2.049,0,0,0,.113.7,1.785,1.785,0,0,0,.326.551,1.51,1.51,0,0,0,.482.363,1.4,1.4,0,0,0,.627.125,1.372,1.372,0,0,0,.627-.15,1.31,1.31,0,0,0,.464-.426l1.021.739a2,2,0,0,1-.871.708,2.694,2.694,0,0,1-1.084.232,3.346,3.346,0,0,1-1.165-.2,2.594,2.594,0,0,1-1.529-1.466,3.051,3.051,0,0,1-.219-1.172,3.083,3.083,0,0,1,.219-1.178,2.638,2.638,0,0,1,.627-.9,2.757,2.757,0,0,1,.89-.539,3.5,3.5,0,0,1,1.165-.194,3.256,3.256,0,0,1,.483.038,2.858,2.858,0,0,1,.489.138,1.8,1.8,0,0,1,.457.244,1.7,1.7,0,0,1,.395.37Z" transform="translate(-54.782 -50.729)"/><path class="d" d="M185.258,95.168h3.672v1.1h-2.506v1.009h2.4v1.115H186.48v1.1H189.1v1.1h-3.81Z" transform="translate(-55.316 -50.739)"/><path class="d" d="M190.686,95.168h1.191v4.3h2.206v1.1h-3.4Z" transform="translate(-55.781 -50.739)"/><path class="d" d="M195.326,95.168H199v1.1h-2.506v1.009h2.344v1.115h-2.344v1.1h2.619v1.1h-3.785Z" transform="translate(-56.179 -50.739)"/><path class="d" d="M200.713,95.168H202.8a3.49,3.49,0,0,1,.783.081,1.754,1.754,0,0,1,.627.263,1.3,1.3,0,0,1,.445.508,1.629,1.629,0,0,1,.169.783,1.592,1.592,0,0,1-.263.959,1.379,1.379,0,0,1-.871.508l1.372,2.281H203.62l-1.134-2.162H201.9v2.162h-1.184ZM201.9,97.4h1.046a1,1,0,0,0,.32-.069.508.508,0,0,0,.338-.526.558.558,0,0,0-.081-.326.627.627,0,0,0-.213-.188,1.059,1.059,0,0,0-.3-.088H201.9Z" transform="translate(-56.641 -50.739)"/><path class="d" d="M206.333,95.168H210v1.1H207.5v1.009h2.344v1.115h-2.293v1.1h2.619v1.1h-3.81Z" transform="translate(-57.122 -50.739)"/><path class="d" d="M213,97.764l-1.786-2.575h1.5l1.153,1.88,1.1-1.88h1.441l-1.742,2.557,1.949,2.845h-1.5L213.8,98.416l-1.285,2.174h-1.429Z" transform="translate(-57.53 -50.74)"/><path class="e" d="M0,33.429V2.365a2.362,2.362,0,1,1,4.725,0V14.293a11.926,11.926,0,0,1,7.244-2.444,2.218,2.218,0,0,1,.235.008,2.242,2.242,0,0,1,.235-.008A11.975,11.975,0,0,1,24.407,23.812v9.581a2.362,2.362,0,0,1-4.725,0V23.812a7.237,7.237,0,0,0-7.244-7.244c-.079,0-.158,0-.235-.012s-.156.012-.235.012a7.237,7.237,0,0,0-7.244,7.244v9.618a2.362,2.362,0,1,1-4.725,0Z" transform="translate(76.949 3.514)"/><path class="e" d="M11.73,38.431A11.707,11.707,0,0,1,0,26.368V17.026s0-.006,0-.009V1.754C0,.785,1.057,0,2.362,0S4.725.785,4.725,1.754V16.984a10.38,10.38,0,0,1,7-2.34A11.709,11.709,0,0,1,23.786,26.368,11.98,11.98,0,0,1,11.8,38.431Zm-5.038-17.1a6.892,6.892,0,0,0-2.017,5.039,7.205,7.205,0,0,0,7.055,7.388,7.518,7.518,0,0,0,7.388-7.388,7.207,7.207,0,0,0-7.388-7.056l-.163,0A6.894,6.894,0,0,0,6.691,21.329Z" transform="translate(135.463 0.772)"/><path class="e" d="M19.682,2.362v9.58a7.237,7.237,0,0,1-7.244,7.244q-.119,0-.235.012-.116-.012-.235-.012a7.237,7.237,0,0,1-7.244-7.244V2.362A2.362,2.362,0,0,0,0,2.362v9.58A11.975,11.975,0,0,0,11.968,23.906,2.341,2.341,0,0,0,12.2,23.9a2.346,2.346,0,0,0,.235.008A11.975,11.975,0,0,0,24.407,11.943V2.362a2.362,2.362,0,0,0-4.725,0Z" transform="translate(106.385 15.4)"/></g></g></svg>