<svg xmlns="http://www.w3.org/2000/svg" width="72" height="72" viewBox="0 0 72 72"><defs><style>.a{fill:rgba(255,255,255,0);}.b{fill:#abbac2;}.c{fill:#ccdce5;}.d{fill:#950007;}.e{fill:#ffc119;}.f{fill:#88bf40;}.g{fill:#c91c24;}.h{fill:#ef5249;}</style></defs><g transform="translate(-126 -33)"><rect class="a" width="72" height="72" transform="translate(126 33)"/><g transform="translate(116 16)"><path class="b" d="M424,320h5.122a3.073,3.073,0,0,1,3.073,3.073v7.171a3.073,3.073,0,0,1-3.073,3.073H424Z" transform="translate(-355.752 -258.094)"/><path class="c" d="M380.294,256.587a3.073,3.073,0,0,1-3.073-3.073V235.073A3.073,3.073,0,0,0,374.147,232H368v24.587Z" transform="translate(-306.923 -181.364)"/><path class="b" d="M332.294,232a3.073,3.073,0,0,0-3.073,3.073v24.588a3.073,3.073,0,0,1-3.073,3.073H320V232Z" transform="translate(-265.07 -181.364)"/><path class="c" d="M95.955,81.371H59.073A3.073,3.073,0,0,1,56,78.3V27.073A3.073,3.073,0,0,1,59.073,24H89.808a3.073,3.073,0,0,1,3.073,3.073V78.3A3.073,3.073,0,0,0,95.955,81.371Z" transform="translate(-34.878)"/><path class="d" d="M206.52,138.7A9.192,9.192,0,0,0,200,136v9.22Z" transform="translate(-160.437 -97.657)"/><path class="e" d="M206.52,157.088l-6.52,6.52,6.89,6.124a9.217,9.217,0,0,0-.37-12.644Z" transform="translate(-160.437 -116.045)"/><path class="f" d="M137.2,136a9.22,9.22,0,1,0,6.89,15.345l-6.89-6.124Z" transform="translate(-97.632 -97.657)"/><path class="g" d="M96,320h26.636v4.1H96Z" transform="translate(-69.755 -258.094)"/><g transform="translate(26.245 70.102)"><path class="b" d="M96,384h2.049v2.049H96Z" transform="translate(-96 -384)"/><path class="b" d="M128,384h22.539v2.049H128Z" transform="translate(-123.902 -384)"/><path class="b" d="M96,416h26.636v2.049H96Z" transform="translate(-96 -411.902)"/></g><path class="c" d="M16,104h2.049v26.636H16Z" transform="translate(0 -69.755)"/><path class="c" d="M16,328h2.049v2.049H16Z" transform="translate(0 -265.07)"/><path class="g" d="M89.808,24H59.073A3.073,3.073,0,0,0,56,27.073V32.2H92.881V27.073A3.073,3.073,0,0,0,89.808,24Z" transform="translate(-34.878)"/><path class="h" d="M80,48h2.049v2.049H80Z" transform="translate(-55.804 -20.927)"/><path class="e" d="M112,48h2.049v2.049H112Z" transform="translate(-83.706 -20.927)"/><path class="f" d="M144,48h2.049v2.049H144Z" transform="translate(-111.608 -20.927)"/><path class="e" d="M96,320h6.147v4.1H96Z" transform="translate(-69.755 -258.094)"/></g></g></svg>