<svg xmlns="http://www.w3.org/2000/svg" width="72" height="72" viewBox="0 0 72 72"><defs><style>.a{fill:rgba(255,255,255,0);}.b{fill:#950007;}.c{fill:#b70009;}.d{fill:#c91c24;}.e{fill:#f3fffb;}.f{fill:#ffd27b;}.g{fill:#8f4d24;}.h{fill:#a8d32a;}.i{fill:#8d9ca8;}.j{fill:#aab8c7;}</style></defs><g transform="translate(-126 -33)"><rect class="a" width="72" height="72" transform="translate(126 33)"/><g transform="translate(135 38)"><path class="b" d="M246.523,149.311H228.406V102.2h19.815v39.368l-1.7,2.588Zm0,0" transform="translate(-200.706 -89.805)"/><path class="c" d="M212.787,42.711h-3.133L207.066,63.4l2.589,33.023,3.132-.44Zm0,0" transform="translate(-181.954 -37.531)"/><path class="d" d="M2.954,0V5.18H0V58.455l16.7,1.983,11-1.543V0Zm0,0"/><g transform="translate(9.058 12.435)"><path class="e" d="M74.691,102.535h3.639v5.176H74.691Zm0,0" transform="translate(-74.691 -102.535)"/><path class="e" d="M149.383,102.535h3.639v5.176h-3.639Zm0,0" transform="translate(-140.324 -102.535)"/><path class="e" d="M74.691,187.895h3.639v5.176H74.691Zm0,0" transform="translate(-74.691 -177.542)"/><path class="e" d="M149.383,187.895h3.639v5.176h-3.639Zm0,0" transform="translate(-140.324 -177.542)"/><path class="e" d="M74.691,273.258h3.639v5.176H74.691Zm0,0" transform="translate(-74.691 -252.553)"/><path class="e" d="M149.383,273.258h3.639v5.176h-3.639Zm0,0" transform="translate(-140.324 -252.553)"/><path class="e" d="M74.691,358.617h3.639v5.176H74.691Zm0,0" transform="translate(-74.691 -327.56)"/><path class="e" d="M149.383,358.617h3.639v5.176h-3.639Zm0,0" transform="translate(-140.324 -327.56)"/></g><path class="f" d="M292.762,187.895H296.4v5.176h-3.639Zm0,0" transform="translate(-257.256 -165.107)"/><path class="f" d="M292.762,273.258H296.4v5.176h-3.639Zm0,0" transform="translate(-257.256 -240.118)"/><path class="g" d="M361.871,421.637h3.64V430.7h-3.64Zm0,0" transform="translate(-317.984 -370.501)"/><path class="h" d="M319.3,342.166a7.946,7.946,0,1,1,7.946-7.947A7.956,7.956,0,0,1,319.3,342.166Zm0,0" transform="translate(-273.595 -286.704)"/><path class="i" d="M244.914,481.988H219.032l-1.294,2.366,1.294,1.274h25.882Zm0,0" transform="translate(-191.331 -423.534)"/><path class="j" d="M0,481.988H27.7v3.64H0Zm0,0" transform="translate(0 -423.534)"/></g></g></svg>