<svg xmlns="http://www.w3.org/2000/svg" width="24.951" height="34.669" viewBox="0 0 24.951 34.669"><defs><style>.a{fill:#fdcc9b;}.b{fill:#fcbc85;}.c{fill:#3b2519;}.d{fill:#fff;}.e{fill:#51362a;}.f{fill:#f7945e;}.g{fill:#f7941e;}.h{fill:#f36c21;}</style></defs><g transform="translate(-27.821 -0.001)"><g transform="translate(27.821 4.231)"><rect class="a" width="5.142" height="5.759" transform="translate(9.905 21.647)"/><path class="b" d="M84.551,148.908a8.626,8.626,0,0,0,5.142,1.058V148.23H84.551Z" transform="translate(-74.646 -126.583)"/><ellipse class="b" cx="2.509" cy="2.862" rx="2.509" ry="2.862" transform="translate(0 9.883)"/><ellipse class="b" cx="2.509" cy="2.862" rx="2.509" ry="2.862" transform="translate(19.933 9.883)"/><path class="a" d="M62.087,31.485c0-4.216-3.079-7.3-9.957-7.3s-9.957,3.085-9.957,7.3-.718,15.322,9.957,15.322S62.087,35.7,62.087,31.485Z" transform="translate(-39.655 -24.184)"/><g transform="translate(5.784 7.72)"><g transform="translate(0.753 3.162)"><ellipse class="c" cx="1.08" cy="1.183" rx="1.08" ry="1.183"/><circle class="d" cx="0.323" cy="0.323" r="0.323" transform="translate(0.286 0.338)"/></g><path class="e" d="M61.1,69.838c.511.255,1.33-.868,3.207.109.342.178.546-1.523-1.465-1.523C61.1,68.424,60.791,69.684,61.1,69.838Z" transform="translate(-60.995 -68.424)"/><g transform="translate(10.603 3.162)"><ellipse class="c" cx="1.08" cy="1.183" rx="1.08" ry="1.183"/><circle class="d" cx="0.323" cy="0.323" r="0.323" transform="translate(0.286 0.338)"/></g><path class="e" d="M120.736,69.838c-.511.255-1.33-.868-3.207.109-.342.178-.546-1.523,1.465-1.523C120.736,68.424,121.044,69.684,120.736,69.838Z" transform="translate(-107.459 -68.424)"/></g><path class="b" d="M91.184,114.605c-1.067,0-1.71-.8-1.71-.411s.309,1.118,1.71,1.118,1.71-.733,1.71-1.118S92.25,114.605,91.184,114.605Z" transform="translate(-78.708 -98.393)"/><path class="b" d="M96.458,136.47c-.369,0-.591-.276-.591-.142s.107.387.591.387.591-.253.591-.387S96.827,136.47,96.458,136.47Z" transform="translate(-83.983 -116.719)"/><path class="f" d="M86.465,129.137a13.948,13.948,0,0,1-2.71-.514c0,.175.489.861,2.71.861s2.71-.687,2.71-.861A13.951,13.951,0,0,1,86.465,129.137Z" transform="translate(-73.989 -110.366)"/></g><path class="g" d="M40.315,161.458v6.479H27.821C27.821,165.314,34.4,161.458,40.315,161.458Z" transform="translate(0 -133.266)"/><path class="g" d="M99.248,161.458v6.479h12.494C111.742,165.314,105.161,161.458,99.248,161.458Z" transform="translate(-58.97 -133.266)"/><path class="h" d="M81.353,161.458a16.363,16.363,0,0,0-3.794.476,5.082,5.082,0,0,0,3.794,1.787,5.641,5.641,0,0,0,3.929-1.754A16.448,16.448,0,0,0,81.353,161.458Z" transform="translate(-41.056 -133.266)"/><path class="a" d="M84.55,160.7a4.009,4.009,0,0,0,5.142,0A8.129,8.129,0,0,0,84.55,160.7Z" transform="translate(-46.824 -132.288)"/><path class="e" d="M54.241,3.331S50.545-1.373,42.863.4s-8.257,6.4-8.026,10.9.847,7.144,1.576,6.817.349-3.3.426-3.984.77-3.787,5.442-3.325A19.3,19.3,0,0,0,50.89,9.578a9.686,9.686,0,0,0,2.628,2.391c2.084.768,1.4,5.889,2.217,5.889S60.555,6.03,54.241,3.331Z" transform="translate(-5.756 0)"/></g></svg>