<svg xmlns="http://www.w3.org/2000/svg" width="297.682" height="285.278" viewBox="0 0 297.682 285.278"><defs><style>.a{fill:#c91c24;}.b{fill:#eceff1;}.c{fill:#f2e0e0;}</style></defs><path class="a" d="M297.682,93.634v19.721L160.376,185.047a25.235,25.235,0,0,1-23.07,0L0,113.355V93.634A27.868,27.868,0,0,1,14.76,69.075L135.693,4.453a28.174,28.174,0,0,1,26.3,0L282.922,69.075a27.868,27.868,0,0,1,14.76,24.559Z" transform="translate(0 13.656)"/><path class="b" d="M226.261,34.109A34.106,34.106,0,0,0,192.152,0H37.109A34.106,34.106,0,0,0,3,34.109V248.936a9.306,9.306,0,0,0,9.3,9.3H216.959a9.306,9.306,0,0,0,9.3-9.3Z" transform="translate(34.21)"/><path class="c" d="M297.682,10.24V140.6a27.95,27.95,0,0,1-27.908,27.908H27.908A27.95,27.95,0,0,1,0,140.6V10.24L137.306,81.932a25.235,25.235,0,0,0,23.07,0Z" transform="translate(0 116.771)"/><g transform="translate(109.996 57)"><g transform="translate(0.004)"><path class="a" d="M38.81,0a38.806,38.806,0,1,0,38.8,38.806A38.85,38.85,0,0,0,38.81,0Zm17.9,32.827L36.332,53.2a1.217,1.217,0,0,1-1.673,0L20.99,39.533a1.176,1.176,0,0,1-.345-.837,1.19,1.19,0,0,1,.345-.839l1.747-1.746a1.193,1.193,0,0,1,1.674,0L35.067,46.766a.6.6,0,0,0,.856,0L53.286,29.4a1.218,1.218,0,0,1,1.674,0l1.747,1.75a1.182,1.182,0,0,1,0,1.673Z" transform="translate(-0.004)"/></g></g></svg>