<svg xmlns="http://www.w3.org/2000/svg" xmlns:xlink="http://www.w3.org/1999/xlink" width="619.999" height="523.069" viewBox="0 0 619.999 523.069"><defs><style>.a,.n,.q{fill:#c91c24;}.a,.d,.l,.p{opacity:0.1;}.b{fill:url(#a);}.c{fill:#efb7b9;}.e{fill:#e1e7ef;}.f{opacity:0.05;}.g{fill:#b07473;}.h{fill:#444053;}.i{fill:#67647e;}.j{fill:url(#b);}.k{fill:#585268;}.m{fill:none;stroke:#535461;stroke-miterlimit:10;stroke-width:2px;}.o{fill:#a8a8a8;}.p{fill:#fff;}.q{opacity:0.3;}</style><linearGradient id="a" x1="0.5" y1="0.982" x2="0.5" y2="0.216" gradientUnits="objectBoundingBox"><stop offset="0" stop-color="gray" stop-opacity="0.251"/><stop offset="0.54" stop-color="gray" stop-opacity="0.122"/><stop offset="1" stop-color="gray" stop-opacity="0.102"/></linearGradient><linearGradient id="b" x1="-0.045" y1="-0.254" x2="0.967" y2="-0.254" xlink:href="#a"/></defs><g transform="translate(-0.009 -0.017)"><path class="a" d="M196.816,361.972a2.558,2.558,0,0,1-2.451,2.642h-3.477a2.649,2.649,0,0,1,0,5.284h4.9a2.649,2.649,0,0,1,0,5.284H172.771c15.723,47.468,45.2,88.964,83.964,120.236a2.32,2.32,0,0,1,1.374-.462h28.357a2.649,2.649,0,0,1,0,5.284h-3.477a2.649,2.649,0,0,1,0,5.284h4.9a2.649,2.649,0,0,1,0,5.284H277.813a280.157,280.157,0,0,0,251.173,27.518q6.317-2.392,12.489-5.059,10.745-4.678,20.985-10.2,4.416-2.38,8.734-4.922l.133-.075.649-.387,1.686-1.005q5.106-3.073,10.055-6.358l2.028-1.355q2.573-1.743,5.094-3.541,5.03-3.566,9.887-7.37l1.159-.924.933-.743q6.537-5.209,12.715-10.8l.174-.156q3.025-2.742,5.964-5.577l.174-.169A264.168,264.168,0,0,0,640.107,460.2a260.7,260.7,0,0,0,23.622-32.715h-11.3a2.649,2.649,0,0,1,0-5.284h-4.9a2.649,2.649,0,0,1,0-5.284h3.477a2.412,2.412,0,0,1-2.222-1.281,2.819,2.819,0,0,1,0-2.716,2.412,2.412,0,0,1,2.222-1.281h21.611a251.776,251.776,0,0,0,16.048-192.387h-48.1a5.613,5.613,0,0,1,0-11.161H630.22a5.593,5.593,0,0,1,0-11.155h7.395a5.613,5.613,0,0,1,0-11.161h37.618C632.086,97.353,538.675,36.12,430.394,36.12c-63.251,0-121.42,20.892-167.487,55.887h12.054a5.613,5.613,0,0,1,0,11.161h-7.378a5.593,5.593,0,0,1,0,11.155h10.351a5.106,5.106,0,0,1,4.631,2.735,5.959,5.959,0,0,1,0,5.691,5.106,5.106,0,0,1-4.631,2.735h-51.51C185.086,171.152,160.05,230.83,160.05,296.136a251.292,251.292,0,0,0,8.063,63.243l26.252-.049A2.564,2.564,0,0,1,196.816,361.972Z" transform="translate(-105.013 -33.072)"/><path class="b" d="M665.477,372.095c-2.417-.225-10.837-7.539-15.717-9.693-2.249-.993-3.657,1.105-4.526,3.654a60.749,60.749,0,0,0-8.693-5.5,2.324,2.324,0,0,0-2.011-.044c-3.141,1.468-3.813,10.318-3.813,10.318l.11.556c-1.542,1.305-6.166,2.124-8.171,2.267-2.359.162-5.477.537-6.578,1.124s-13.909,3.91-21.275,6.333-26.392,14.5-26.392,14.5l-18.035,4.372-2.533-.525c-.806-3.123-4.491-3.092-8.809-1.83-7.012-1.386-14.008-2.467-16.268-1.362,6.462-3.548,14.407-9.175,14.315-15.383-.127-8.469-15.682,3.41-21.57,8.213l-.5.412-.133-.537s-4.294,1.8-13.451,1.568a19.377,19.377,0,0,0-14.054,4.865c-.823.462-9.2,3.5-9.852,3.622-.5.087-14.958,1.5-22.254,2.2-10.09-.981-24.659.731-25.459,2.355-.916,1.874-12.008,8.694-12.008,8.694l-3.8,1.074s-.452,1.249-.974,2.848a11.437,11.437,0,0,1-.939-1.93,35.009,35.009,0,0,1-1.345-5.1h0c-.046-.231-.1-.462-.151-.693a.89.89,0,0,0-.041-.169l-.139-.581-.035-.144a21.392,21.392,0,0,0-.684-2.2h0a12.087,12.087,0,0,0-.985-2.067h0a7.07,7.07,0,0,0-2.191-2.348,11.16,11.16,0,0,0-4.9-1.387,19.914,19.914,0,0,0-4.306-.2c-1.234.125-2.446.487-3.68.568a26.57,26.57,0,0,1-5.911-.806,7.732,7.732,0,0,0-5.8.868c-1.414,1.012-2.231,2.717-3.141,4.26a26.913,26.913,0,0,1-6.468,7.457c-1.739,1.355-3.715,2.661-4.347,4.847s.243,4.3.632,6.458c.858,4.747-.527,9.956,1.014,14.365h0c.035.1.07.194.11.294.087.237.18.481.29.712h0a6.645,6.645,0,0,0,.324.625,4.717,4.717,0,0,0,.383.568,3.2,3.2,0,0,0,.458.487,2.78,2.78,0,0,0,.539.381,3.707,3.707,0,0,0,2.254.281l.417-.062.383-.075a11.036,11.036,0,0,0,1.333-.344,4.982,4.982,0,0,0,1.24-.593,3.045,3.045,0,0,0,1.292-2.167,7.849,7.849,0,0,0,.081-1.18v-.275l.087.287h0A17.477,17.477,0,0,0,393.7,448.607a16.986,16.986,0,0,0,16.47-9.671l.655-.237a38.125,38.125,0,0,1,6.445-1.611h0a14.664,14.664,0,0,0,.8,1.511C425.206,450.585,447.5,451,447.5,451s24.636-1.031,26.543-1.568,7.592.4,9.232,2.042,8.867,2.323,11.214-1.924,5.042-3.429,5.042-3.429a12.875,12.875,0,0,0,1.24-2.28l1.571.081c4.144.237,10.8.7,12.234,1.324,2.121.918,11.231.849,16.158-1.387s20.284-11.717,20.284-11.717,9.551-3.123,11.249-3.747,6.143-5.2,6.143-5.2l9.157-3.822s9.673-5.621,13.752-6.208,7.777-4.434,7.777-4.434l25.934-13.016a12.525,12.525,0,0,1,5.216.281c2.318.781,17.415-1.605,21.988-6.87,0,0,.168-.681.394-1.793.209,0,.423-.044.649-.05.974.231,1.571.387,1.571.387a39.82,39.82,0,0,0,6.132,4.078c3.077,1.593,6.375,2.467,7.534-.262a5.184,5.184,0,0,0,.348-1.324c2.979,2.28,13.005,9.306,13.289.937C682.5,381.27,667.888,372.32,665.477,372.095Z" transform="translate(-192.337 -154.781)"/><path class="c" d="M447.963,469.422a31.358,31.358,0,0,0-11.208,1.93,39.62,39.62,0,0,0-6.288,2.767c-9.6,5.209-1.629-22.9-1.629-22.9s2.672,0,5.882-.294c3.837-.331,8.438-1.018,10.142-2.455C447.992,445.807,447.963,469.422,447.963,469.422Z" transform="translate(-216.722 -187.802)"/><path class="c" d="M642.617,392.171c.116,7.857-12.819,14.771-18.963,17.613-1.912.881-3.176,1.368-3.176,1.368l-1.339-9.044s.84-.731,2.2-1.836C627.172,395.531,642.49,383.814,642.617,392.171Z" transform="translate(-298.042 -165.645)"/><path class="d" d="M623.655,416.412c-1.912.881-3.176,1.368-3.176,1.368l-1.339-9.044s.84-.731,2.2-1.836Z" transform="translate(-298.042 -172.273)"/><path class="e" d="M513.31,419.2s25.361-2.455,26.027-2.573,8.931-3.123,9.742-3.566a19.143,19.143,0,0,1,13.863-4.8c9.035.237,13.271-1.543,13.271-1.543l2.985,12.242-60.237,7.364Z" transform="translate(-253.545 -172.202)"/><path class="f" d="M513.31,419.2s25.361-2.455,26.027-2.573,8.931-3.123,9.742-3.566a19.143,19.143,0,0,1,13.863-4.8c9.035.237,13.271-1.543,13.271-1.543l2.985,12.242-60.237,7.364Z" transform="translate(-253.545 -172.202)"/><path class="g" d="M819.05,371.758s.927-12.26,5.737-10.137,13.121,9.369,15.5,9.568,16.807,9.05,16.465,18.737-13.909-1.568-13.909-1.568-12.622-3.341-16.7-1.836S819.05,371.758,819.05,371.758Z" transform="translate(-382.096 -155.182)"/><path class="d" d="M856.772,389.96c-.33,9.687-13.909-1.568-13.909-1.568s-12.617-3.341-16.7-1.836c-1.159.437-2.318-.625-3.245-2.38-1.826-3.323-3.147-9.081-3.628-11.392-.133-.625-.2-.993-.2-.993s.927-12.26,5.737-10.131,13.115,9.337,15.5,9.562S857.1,380.273,856.772,389.96Z" transform="translate(-382.113 -155.196)"/><path class="d" d="M830.871,384.751c-.411,1.137-3.327,2.942-7.853,5.146-1.826-3.323-3.147-9.081-3.628-11.392.852-.393,1.455-.849,1.553-1.362C821.279,375.433,833.229,378.231,830.871,384.751Z" transform="translate(-382.239 -160.917)"/><path class="h" d="M665.15,408.843l27.731-6.77s18.777-11.911,26.079-14.3,19.9-5.665,20.985-6.246,4.161-.956,6.485-1.112,8.229-1.249,8.566-2.954,12.286,1.081,9.927,7.6-86.636,34.895-86.636,34.895Z" transform="translate(-317.387 -161.038)"/><path class="d" d="M665.15,408.843l27.731-6.77s18.777-11.911,26.079-14.3,19.9-5.665,20.985-6.246,4.161-.956,6.485-1.112,8.229-1.249,8.566-2.954,12.286,1.081,9.927,7.6-86.636,34.895-86.636,34.895Z" transform="translate(-317.387 -161.038)"/><path class="g" d="M879.247,392.837c-.33,9.693-13.909-1.568-13.909-1.568s-8.826-2.336-14.1-2.223a8.11,8.11,0,0,0-2.6.387c-4.057,1.505-7.076-14.765-7.076-14.765s.058-.787.226-1.924c.493-3.373,1.918-9.8,5.517-8.213,4.81,2.13,13.115,9.369,15.5,9.562S879.572,383.168,879.247,392.837Z" transform="translate(-391.56 -156.274)"/><path class="d" d="M851.208,393.312a8.111,8.111,0,0,0-2.6.387c-4.057,1.505-7.076-14.765-7.076-14.765s.058-.787.226-1.924c3.384-.781,6.218-1.48,6.218-1.48C854.187,375.824,852.147,388.658,851.208,393.312Z" transform="translate(-391.548 -160.496)"/><path class="h" d="M742.493,395.238c-4.515,5.2-19.42,7.551-21.692,6.789a12.336,12.336,0,0,0-5.129-.287l-25.581,12.835s-3.651,3.785-7.673,4.372-13.567,6.121-13.567,6.121l-9.029,3.747s-4.41,4.578-6.079,5.2-11.1,3.691-11.1,3.691-15.143,9.369-20.006,11.561-13.839,2.267-15.937,1.362c-1.414-.625-7.98-1.068-12.06-1.305-1.936-.106-3.315-.162-3.315-.162l-4.775-38.917s3.947-.943,8.931-2.211c7.238-1.836,16.668-4.372,19.281-5.7,4.422-2.242,27.992,4.372,32.315,4.466s26.375-7.495,26.375-7.495S701,382.559,706.579,382.553s12.814-2.623,17.311-3.291,15.729-3.441,15.729-3.441C747.2,376.195,742.493,395.238,742.493,395.238Z" transform="translate(-284.339 -160.605)"/><path class="d" d="M438.528,461.468a19.5,19.5,0,0,1-1.773,11.486,39.621,39.621,0,0,0-6.288,2.767c-9.6,5.209-1.629-22.9-1.629-22.9s2.672,0,5.882-.294A18.892,18.892,0,0,1,438.528,461.468Z" transform="translate(-216.722 -189.404)"/><path class="c" d="M422.306,457.737c1.383,9.342-4.062,18.283-12.566,20.632s-17.268-2.668-20.225-11.576h0c-.1-.312-.2-.625-.29-.943a19.077,19.077,0,0,1-.5-2.336c-1.412-9.636,4.428-18.775,13.285-20.789s17.625,3.8,19.946,13.232A17.566,17.566,0,0,1,422.306,457.737Z" transform="translate(-201.074 -185.574)"/><path class="d" d="M594.183,452.054c3.611,7.582,1.814,13.666.458,16.57-1.936-.106-3.315-.162-3.315-.162l-4.775-38.917s3.947-.943,8.931-2.211l.516-.044S589.077,441.337,594.183,452.054Z" transform="translate(-284.339 -179.928)"/><path class="e" d="M533.31,451.694c5.106,10.724-.58,18.444-.58,18.444s-2.66-.806-4.972,3.385-9.458,3.523-11.063,1.874-7.227-2.555-9.1-2.017-26.178,1.543-26.178,1.543-21.988-.4-29.029-12.223a14.838,14.838,0,0,1-.788-1.486s-5.558-11.2-5.732-13.7a15.931,15.931,0,0,1,.753-4.372c.736-2.654,1.739-5.346,1.739-5.346l3.75-1.062s10.942-6.727,11.84-8.569,19.588-3.785,29.087-1.73,27.453,1.792,27.453,1.792l14.674-1.33S528.233,440.977,533.31,451.694Z" transform="translate(-225.182 -179.275)"/><path class="d" d="M559.61,494.7a42.758,42.758,0,0,0,6.375-3.316C569.364,489.2,559.61,494.7,559.61,494.7Z" transform="translate(-273.012 -203.799)"/><path class="d" d="M467,446.553s7.221,14.465,22.66,9.706,27-1.249,27-1.249,14.442-.893,17.1-2.086a102.4,102.4,0,0,1,12.205-4.1c2.278-.5,5.453-1.487,7.969-2.33s15.955-3.891,15.955-3.891-4.248-10.231-2.191-11.536c0,0-13.266,2.91-13.416,1.874s-15.016-1.668-16.227-.625-14.488,2.074-15.648,2.542-21.675,2.411-21.675,2.411S469.956,423.787,467,446.553Z" transform="translate(-234.073 -181.347)"/><path class="c" d="M635,427.641s24.173-15.1,25.059-5.128-22.741,13.6-22.741,13.6Z" transform="translate(-304.71 -176.857)"/><path class="d" d="M467.5,443.433s7.244,14.465,22.66,9.706,27.007-1.249,27.007-1.249,14.442-.893,17.1-2.086a102.105,102.105,0,0,1,12.211-4.1c2.272-.5,5.453-1.486,7.969-2.33s15.955-3.891,15.955-3.891-4.254-10.231-2.2-11.536c0,0-13.26,2.911-13.416,1.874s-15.016-1.668-16.227-.625-14.489,2.074-15.648,2.542-21.657,2.4-21.657,2.4S470.461,420.667,467.5,443.433Z" transform="translate(-234.283 -180.176)"/><path class="e" d="M466.67,444.573s7.227,14.465,22.66,9.706,27.007-1.249,27.007-1.249,14.442-.893,17.1-2.086a102.2,102.2,0,0,1,12.211-4.1c2.272-.493,5.453-1.487,7.969-2.33s15.955-3.885,15.955-3.885-4.254-10.237-2.2-11.536c0,0-13.26,2.91-13.417,1.874s-15.016-1.668-16.227-.625-14.46,2.074-15.648,2.548-21.669,2.392-21.669,2.392S469.631,421.807,466.67,444.573Z" transform="translate(-233.934 -180.604)"/><path class="d" d="M553.6,444.31c-.226-.668,3.669-.35,11.353-1.949s20.62-5.421,20.62-5.421S555.33,449.357,553.6,444.31Z" transform="translate(-270.482 -183.551)"/><path class="d" d="M500.025,441.38s.365,1.124-3.385,3.56" transform="translate(-246.536 -185.218)"/><path class="d" d="M514.075,444a4.534,4.534,0,0,1-2.735,5.3" transform="translate(-252.716 -186.202)"/><path class="d" d="M457.87,468.759l2.99,2.992s3.211,1.874,3.553,2.873,6.862.818,6.862.818l7.534,5.121-3.2-4.809a8.253,8.253,0,0,0,7.383-1.693c3.669-2.948,10.948-10.618,10.948-10.618l13.138-11.017.22-7.1-10.339-1.8L472.9,469.789l-5.453.831-5.8-.693Z" transform="translate(-230.234 -186.021)"/><path class="i" d="M456.73,467.948l2.99,2.992s3.2,1.874,3.553,2.873,6.868.818,6.868.818l7.534,5.122-3.2-4.809a8.236,8.236,0,0,0,7.378-1.693c3.674-2.948,10.953-10.618,10.953-10.618l13.156-10.986.22-7.1-10.339-1.8-24.092,26.27-5.453.831-5.8-.693Z" transform="translate(-229.755 -185.729)"/><path class="d" d="M461.068,470.771l-6.6,3.217a13.78,13.78,0,0,1-.782-1.493s-5.564-11.2-5.738-13.7a15.76,15.76,0,0,1,.759-4.372Z" transform="translate(-226.06 -190.114)"/><path class="e" d="M458.938,470.1l-6.6,3.21a14.838,14.838,0,0,1-.788-1.486s-5.558-11.2-5.732-13.7a15.931,15.931,0,0,1,.753-4.372Z" transform="translate(-225.165 -189.862)"/><path class="j" d="M421.925,455.947a3.139,3.139,0,0,1-1.02.924c-1.026.506-2.22,0-3.344.056s-2.26.718-3.425.818a8.317,8.317,0,0,1-2.434-.325,6.752,6.752,0,0,0-4.636.212,3.245,3.245,0,0,0-1.484,4.2,4.257,4.257,0,0,1-4.236,1.593c-3.651-.556-6.711-3.941-10.432-1.318-1.617,1.155-1.513,2.942-1.478,4.672-.1-.312-.2-.625-.29-.943a19.1,19.1,0,0,1-.5-2.336c-1.412-9.636,4.428-18.775,13.285-20.789s17.625,3.8,19.946,13.232Z" transform="translate(-201.041 -185.57)"/><path class="k" d="M380.889,462.606a6.741,6.741,0,0,1-2.538.924,4.451,4.451,0,0,1-3.014-.144,4.2,4.2,0,0,1-1.675-2.011c-2.144-4.584-.487-10.156-1.4-15.2-.383-2.124-1.223-4.31-.626-6.371s2.6-3.441,4.283-4.778a26.685,26.685,0,0,0,6.375-7.357c.9-1.524,1.7-3.2,3.095-4.2a7.554,7.554,0,0,1,5.7-.856,26.152,26.152,0,0,0,5.83.787c1.217-.075,2.411-.431,3.628-.556a19.019,19.019,0,0,1,4.248.2,11.028,11.028,0,0,1,4.833,1.362c2.533,1.649,3.518,5,4.178,8.119s1.327,6.483,3.564,8.563a2.151,2.151,0,0,1,.8,1.074,1.956,1.956,0,0,1-.5,1.412l-2.643,3.785a4.05,4.05,0,0,1-1.373,1.412c-1.02.512-2.22,0-3.344.05s-2.254.731-3.425.824a8.1,8.1,0,0,1-2.434-.325,6.663,6.663,0,0,0-4.607.212c-1.4.749-2.318,2.773-1.484,4.2a4.253,4.253,0,0,1-4.236,1.593c-3.657-.55-6.717-3.941-10.432-1.318C380.674,456.192,383.752,460.652,380.889,462.606Z" transform="translate(-193.89 -178.108)"/><g class="l" transform="translate(179.331 248.648)"><path d="M442.2,433.247a22.373,22.373,0,0,0,2.237,6.914,34.393,34.393,0,0,1-1.321-5,19.072,19.072,0,0,0-2.017-5.815A26.05,26.05,0,0,1,442.2,433.247Z" transform="translate(-402.514 -429.35)"/><path d="M418.681,452.221l-.18-.181a3.382,3.382,0,0,1-.435.781l-2.643,3.785a4.1,4.1,0,0,1-1.374,1.412c-1.02.512-2.22,0-3.344.05s-2.254.731-3.425.824a8.106,8.106,0,0,1-2.434-.325,6.753,6.753,0,0,0-4.636.212,3.245,3.245,0,0,0-1.484,4.2,4.249,4.249,0,0,1-4.236,1.593c-3.651-.55-6.711-3.941-10.432-1.318-3.043,2.161.035,6.621-2.834,8.575a6.683,6.683,0,0,1-2.533.924,4.447,4.447,0,0,1-3.014-.144,3.324,3.324,0,0,1-1.159-1.118,9.573,9.573,0,0,0,.4.993,4.2,4.2,0,0,0,1.675,2.011,4.451,4.451,0,0,0,3.014.144,6.744,6.744,0,0,0,2.538-.924c2.863-1.955-.214-6.414,2.834-8.575,3.692-2.623,6.752.768,10.432,1.318a4.253,4.253,0,0,0,4.236-1.593c-.835-1.43.075-3.454,1.484-4.2a6.664,6.664,0,0,1,4.607-.212,8.1,8.1,0,0,0,2.434.325c1.159-.094,2.254-.768,3.425-.824s2.318.462,3.344-.05a4.051,4.051,0,0,0,1.373-1.412l2.643-3.785a1.956,1.956,0,0,0,.5-1.411A2.156,2.156,0,0,0,418.681,452.221Z" transform="translate(-374.52 -437.868)"/></g><path class="d" d="M684.39,439.1s4.526,8.744,3.564,10.193S684.39,439.1,684.39,439.1Z" transform="translate(-325.477 -184.362)"/><path class="d" d="M710.07,435s2.851,5.378,2.272,6.446" transform="translate(-336.274 -182.823)"/><path class="d" d="M739.55,415.09s3.3,2.5,2.075,4.122" transform="translate(-348.669 -175.348)"/><path class="d" d="M745.28,412.9s4.19,5.521,2.8,7.026" transform="translate(-351.079 -174.526)"/><path class="d" d="M844.7,388.67s.638,9.237,3.159,8.45S844.7,388.67,844.7,388.67Z" transform="translate(-392.881 -165.429)"/><path class="m" d="M807.306,729.517s3.518-12.872-.661-22.347a21.72,21.72,0,0,1-1.524-12.766,35.985,35.985,0,0,1,1.675-5.983" transform="translate(-376.09 -277.964)"/><path class="n" d="M803.78,677.211c0,1.574,2.654,6.152,2.654,6.152s2.648-4.578,2.648-6.152a2.652,2.652,0,1,0-5.3,0Z" transform="translate(-375.675 -272.732)"/><path class="n" d="M795.908,690.192c.8,1.324,5.332,3.61,5.332,3.61s-.087-5.39-.881-6.714a2.542,2.542,0,0,0-3.674-.837,3,3,0,0,0-.777,3.96Z" transform="translate(-372.185 -276.975)"/><path class="n" d="M795.57,713.533c1.31.712,6.294.219,6.294.219s-2.6-4.609-3.906-5.321a2.572,2.572,0,0,0-3.453,1.324,2.978,2.978,0,0,0,1.065,3.779Z" transform="translate(-371.656 -285.382)"/><path class="n" d="M800.1,731.684c1.159.937,6.166,1.362,6.166,1.362s-1.837-5-3.014-5.952a2.527,2.527,0,0,0-3.706.6A3,3,0,0,0,800.1,731.684Z" transform="translate(-373.677 -292.272)"/><path class="n" d="M810.69,696.162c-1.049,1.1-5.94,2.236-5.94,2.236s1.194-5.234,2.249-6.333a2.517,2.517,0,0,1,3.747.059A3.015,3.015,0,0,1,810.69,696.162Z" transform="translate(-376.083 -279.029)"/><path class="n" d="M815.244,717.053c-1.31.706-6.294.219-6.294.219s2.6-4.609,3.906-5.321a2.572,2.572,0,0,1,3.453,1.323A2.979,2.979,0,0,1,815.244,717.053Z" transform="translate(-377.849 -286.704)"/><path class="n" d="M817.166,738.327c-1.159.937-6.166,1.362-6.166,1.362s1.837-5,3.014-5.958a2.5,2.5,0,0,1,2.69-.409,2.848,2.848,0,0,1,1.615,2.355,2.948,2.948,0,0,1-1.153,2.652Z" transform="translate(-378.711 -294.737)"/><path class="m" d="M955.467,708.519s3.518-12.872-.661-22.347a21.772,21.772,0,0,1-1.524-12.772,36.046,36.046,0,0,1,1.675-5.99" transform="translate(-438.386 -270.076)"/><path class="n" d="M951.938,656.06c0,1.574,2.654,6.152,2.654,6.152s2.648-4.578,2.648-6.152a2.922,2.922,0,0,0-1.289-2.588,2.491,2.491,0,0,0-2.726,0,2.922,2.922,0,0,0-1.289,2.588Z" transform="translate(-437.969 -264.691)"/><path class="n" d="M944.068,669.2c.8,1.324,5.332,3.61,5.332,3.61s-.081-5.39-.881-6.714a2.542,2.542,0,0,0-3.674-.837,3,3,0,0,0-.777,3.96Z" transform="translate(-434.48 -269.095)"/><path class="n" d="M943.616,692.481c1.3.712,6.288.225,6.288.225s-2.6-4.615-3.906-5.321a2.486,2.486,0,0,0-2.688.112,2.929,2.929,0,0,0-1.21,2.589A2.863,2.863,0,0,0,943.616,692.481Z" transform="translate(-433.831 -277.447)"/><path class="n" d="M948.282,710.731c1.159.937,6.166,1.362,6.166,1.362s-1.837-5-3.014-5.958a2.532,2.532,0,0,0-3.623.668A3.014,3.014,0,0,0,948.282,710.731Z" transform="translate(-436.016 -284.429)"/><path class="n" d="M958.87,675.172c-1.049,1.1-5.94,2.236-5.94,2.236s1.2-5.234,2.249-6.333a2.517,2.517,0,0,1,3.747.059A3.015,3.015,0,0,1,958.87,675.172Z" transform="translate(-438.387 -271.149)"/><path class="n" d="M963.434,696.022c-1.31.712-6.294.219-6.294.219s2.6-4.609,3.906-5.315a2.562,2.562,0,0,1,3.558,1.262,2.962,2.962,0,0,1-1.171,3.835Z" transform="translate(-440.157 -278.789)"/><path class="n" d="M965.326,717.374c-1.159.937-6.166,1.362-6.166,1.362s1.837-5,3.014-5.952a2.527,2.527,0,0,1,3.706.6A3,3,0,0,1,965.326,717.374Z" transform="translate(-441.006 -286.9)"/><path class="m" d="M838.757,706.523s3.518-12.872-.661-22.347a21.766,21.766,0,0,1-1.524-12.773,35.985,35.985,0,0,1,1.675-5.983" transform="translate(-389.314 -269.329)"/><path class="n" d="M835.23,654.221c0,1.574,2.654,6.152,2.654,6.152s2.648-4.578,2.648-6.152a2.652,2.652,0,1,0-5.3,0Z" transform="translate(-388.899 -264.101)"/><path class="n" d="M827.358,667.2c.8,1.324,5.332,3.61,5.332,3.61s-.081-5.39-.881-6.714a2.542,2.542,0,0,0-3.674-.837,3,3,0,0,0-.777,3.96Z" transform="translate(-385.408 -268.344)"/><path class="n" d="M826.941,690.509c1.3.712,6.288.219,6.288.219s-2.6-4.609-3.906-5.321a2.564,2.564,0,0,0-3.558,1.268A2.964,2.964,0,0,0,826.941,690.509Z" transform="translate(-384.8 -276.718)"/><path class="n" d="M831.551,708.694c1.159.937,6.166,1.362,6.166,1.362s-1.837-5-3.014-5.952a2.527,2.527,0,0,0-3.706.6A3,3,0,0,0,831.551,708.694Z" transform="translate(-386.901 -283.641)"/><path class="n" d="M842.16,673.172c-1.049,1.1-5.94,2.236-5.94,2.236s1.2-5.234,2.249-6.333a2.517,2.517,0,0,1,3.747.059A3.015,3.015,0,0,1,842.16,673.172Z" transform="translate(-389.315 -270.398)"/><path class="n" d="M846.694,694.063c-1.31.706-6.294.219-6.294.219s2.6-4.609,3.906-5.321a2.572,2.572,0,0,1,3.453,1.323,2.979,2.979,0,0,1-1.065,3.779Z" transform="translate(-391.073 -278.073)"/><path class="n" d="M848.616,715.337c-1.159.937-6.166,1.362-6.166,1.362s1.837-5,3.014-5.958a2.5,2.5,0,0,1,2.691-.41,2.848,2.848,0,0,1,1.615,2.355A2.947,2.947,0,0,1,848.616,715.337Z" transform="translate(-391.935 -286.106)"/><path class="o" d="M946,731.914v1.624l.174-.156q3.025-2.742,5.964-5.577l.174-.169a264.217,264.217,0,0,0,18.261-19.487c-6.184-11.592-20.666-11.655-23.269-11.567H946.9S945.964,717.449,946,731.914Z" transform="translate(-435.472 -281.024)"/><path class="p" d="M946,731.914v1.624l.174-.156q3.025-2.742,5.964-5.577l.174-.169a264.217,264.217,0,0,0,18.261-19.487c-6.184-11.592-20.666-11.655-23.269-11.567H946.9S945.964,717.449,946,731.914Z" transform="translate(-435.472 -281.024)"/><path class="o" d="M839.48,679.305l.487,3.46h0l4.961,35.157,1.623,11.53,1.582,11.2q4.416-2.38,8.734-4.922l.133-.075.649-.387,1.686-1.005q5.106-3.073,10.055-6.358l2.028-1.355q2.573-1.742,5.094-3.541,5.03-3.567,9.887-7.37l1.159-.924.933-.743q6.537-5.209,12.715-10.8l.174-.156q3.025-2.742,5.964-5.577l-2.9-16.083q-.869-4.884-1.437-9.806-.313-2.661-.522-5.334c-.041-.425-.075-.856-.1-1.28-1-13.41-4.057-41.265-12.64-47.817a6.111,6.111,0,0,0-5.8-1.106,22.628,22.628,0,0,0-2.509.924c-6.021,2.6-11.718,7.757-16.442,13.116A93.464,93.464,0,0,0,848.77,656.44l-8.693,21.117-.029.069-.081.194Z" transform="translate(-390.686 -250.668)"/><path class="p" d="M876,715.349l10.078-37.15s9.435,27.325,16.859,36.525l.933-.743L890.489,678.35s-4.381-20.3-.875-27.7c2.782-5.871,11.916-25.607,15.561-33.527a6.111,6.111,0,0,0-5.8-1.106,22.629,22.629,0,0,0-2.509.924c-4.636,7.92-13.214,23.734-13.851,33.546a132.452,132.452,0,0,0,1.02,25.7Z" transform="translate(-406.041 -250.668)"/><path class="o" d="M796.65,792.276q6.317-2.392,12.489-5.059,10.745-4.678,20.985-10.2,4.416-2.38,8.734-4.922l.133-.075-.336-2.292h0l-.365-2.5-1.2-8.282s-5.581-26.007-11.481-39.129a24.823,24.823,0,0,0-3.425-5.89c-.087-.106-.18-.2-.272-.294h0a6.164,6.164,0,0,0-4.057-1.062,8.325,8.325,0,0,0-4.99,2.53c-2.9,2.779-6.056,8.344-8.768,18.993C799.919,750.423,797.745,774.563,796.65,792.276Z" transform="translate(-372.678 -287.022)"/><path class="p" d="M818.2,819.148q10.745-4.678,20.985-10.2,4.416-2.38,8.734-4.922c-.029-.774-.1-1.561-.2-2.367h0s-.736-4.372-8.519-4.041a12.381,12.381,0,0,0-1.594.137c-8.312,1.12-15.325,7.2-18.122,15.708A26.819,26.819,0,0,0,818.2,819.148Z" transform="translate(-381.738 -318.954)"/><path class="p" d="M831.176,725.891c.261-7.42-3.477-9.962-6.566-10.811a8.292,8.292,0,0,1,4.99-2.53,14.467,14.467,0,0,1,4.352,7.495l7.888,41.4S830.736,738.326,831.176,725.891Z" transform="translate(-384.434 -287.023)"/><path class="o" d="M893.246,788.791l-2.156,3.179,2.028-1.355q2.573-1.743,5.094-3.541l-3.3-.743Z" transform="translate(-412.386 -314.722)"/><path class="p" d="M894.59,784.931q2.573-1.742,5.094-3.541,5.03-3.566,9.887-7.37c-2.278-1.749-4.445-2.961-5.952-2.817,0,0-7.725.568-8.9,11.9C894.66,783.688,894.613,784.294,894.59,784.931Z" transform="translate(-413.857 -309.039)"/><path class="d" d="M840.22,714.25l.174.574,16.227,53.039,1.35,4.41,1.686-1.006a141.927,141.927,0,0,0-15.717-50.815c-1.669-3.06-2.938-5.04-3.477-5.821-.128-.2-.209-.319-.243-.362Z" transform="translate(-390.997 -287.661)"/><path class="d" d="M945.374,731.933c.052.487.116.974.18,1.468q3.025-2.742,5.964-5.577l.174-.169-4.486-25.72-.927-5.315A123.014,123.014,0,0,0,945.374,731.933Z" transform="translate(-434.848 -281.042)"/><path class="a" d="M576.665,99.291h7.395a5.613,5.613,0,0,1,0-11.161h59.9a5.613,5.613,0,0,1,0,11.161h-7.395a5.593,5.593,0,0,1,0,11.155h10.351a5.613,5.613,0,0,1,0,11.161h-59.9a5.613,5.613,0,0,1,0-11.161H576.665a5.593,5.593,0,0,1,0-11.155Z" transform="translate(-278.007 -52.598)"/><path class="a" d="M724,236.165h7.395a5.593,5.593,0,0,1,0-11.155h59.9a5.593,5.593,0,0,1,0,11.155H783.9a5.593,5.593,0,0,1,0,11.155h10.368a5.613,5.613,0,0,1,0,11.161H734.346a5.613,5.613,0,0,1,0-11.161H724a5.593,5.593,0,0,1,0-11.155Z" transform="translate(-339.953 -103.987)"/><path class="a" d="M576.221,667.1H579.7a2.649,2.649,0,0,1,0-5.284h28.4a2.649,2.649,0,0,1,0,5.284h-3.477a2.649,2.649,0,0,1,0,5.284h4.9a2.649,2.649,0,0,1,0,5.284H581.124a2.649,2.649,0,0,1,0-5.284h-4.9a2.649,2.649,0,0,1,0-5.284Z" transform="translate(-278.966 -267.977)"/><path class="a" d="M441.775,739.636h2.793a2.126,2.126,0,0,1,0-4.216H467.2a2.126,2.126,0,0,1,0,4.216h-2.793a2.126,2.126,0,0,1,0,4.216h3.912a2.126,2.126,0,0,1,0,4.216h-22.66a1.926,1.926,0,0,1-1.785-1.019,2.253,2.253,0,0,1,0-2.177,1.926,1.926,0,0,1,1.785-1.019h-3.912a1.926,1.926,0,0,1-1.785-1.019,2.252,2.252,0,0,1,0-2.177,1.926,1.926,0,0,1,1.785-1.019Z" transform="translate(-222.589 -295.609)"/><path class="a" d="M276.4,613.194h3.506a2.649,2.649,0,0,1,0-5.284h28.357a2.649,2.649,0,0,1,0,5.284h-3.477a2.649,2.649,0,0,1,0,5.284h4.9a2.649,2.649,0,0,1,0,5.284H281.3a2.649,2.649,0,0,1,0-5.284h-4.9a2.649,2.649,0,0,1,0-5.284Z" transform="translate(-152.904 -247.738)"/><path class="a" d="M703.221,745.424H706.7a2.649,2.649,0,0,1,0-5.284h28.4a2.649,2.649,0,0,1,0,5.284h-3.477a2.649,2.649,0,0,1,0,5.284h4.9a2.659,2.659,0,0,1,0,5.278H708.113a2.412,2.412,0,0,1-2.222-1.281,2.819,2.819,0,0,1,0-2.716,2.412,2.412,0,0,1,2.222-1.281h-4.891a2.649,2.649,0,0,1,0-5.284Z" transform="translate(-332.364 -297.381)"/><path class="q" d="M772.356,336.134a1.858,1.858,0,0,0-.533-2.292.725.725,0,0,1-.139-.131h0a.948.948,0,0,1-.1-1.058.805.805,0,0,1,.91-.41h0a.748.748,0,0,1,.174.075,1.581,1.581,0,0,0,2.133-.568.777.777,0,0,1,.122-.156h0a.782.782,0,0,1,.979-.1.924.924,0,0,1,.377.979h0a1.219,1.219,0,0,1-.07.187,1.858,1.858,0,0,0,.533,2.292.968.968,0,0,1,.145.131h0a.948.948,0,0,1,.091,1.055.8.8,0,0,1-.908.406h0a.556.556,0,0,1-.174-.075,1.587,1.587,0,0,0-2.133.575.755.755,0,0,1-.116.156h0a.783.783,0,0,1-.985.107.924.924,0,0,1-.377-.987h0a1.231,1.231,0,0,1,.069-.187Z" transform="translate(-362.09 -143.916)"/><path class="q" d="M1089.035,167.455a1.851,1.851,0,0,0-.533-2.292.933.933,0,0,1-.139-.131h0a.948.948,0,0,1-.1-1.062.8.8,0,0,1,.916-.406h0a.825.825,0,0,1,.168.075,1.577,1.577,0,0,0,2.133-.575.956.956,0,0,1,.122-.15h0a.783.783,0,0,1,.979-.1.924.924,0,0,1,.377.979h0a.652.652,0,0,1-.069.181,1.871,1.871,0,0,0,.533,2.3.972.972,0,0,1,.145.131h0a.948.948,0,0,1,.091,1.055.8.8,0,0,1-.909.406h0a.694.694,0,0,1-.174-.075,1.582,1.582,0,0,0-2.127.575,1.577,1.577,0,0,1-.122.156h0a.783.783,0,0,1-.985.106.924.924,0,0,1-.376-.987h0A1.224,1.224,0,0,1,1089.035,167.455Z" transform="translate(-495.24 -80.589)"/><path class="q" d="M1093.9,620.51a1.858,1.858,0,0,0-.533-2.292.715.715,0,0,1-.139-.131h0a.94.94,0,0,1-.1-1.059.8.8,0,0,1,.914-.4h0a.558.558,0,0,1,.174.075,1.587,1.587,0,0,0,2.133-.575.749.749,0,0,1,.116-.156h0a.783.783,0,0,1,.985-.106.924.924,0,0,1,.376.987h0a1.241,1.241,0,0,1-.069.187,1.858,1.858,0,0,0,.533,2.292.723.723,0,0,1,.139.131h0a.942.942,0,0,1,.074,1.017.8.8,0,0,1-.863.42h0a.556.556,0,0,1-.174-.069,1.582,1.582,0,0,0-2.133.568.769.769,0,0,1-.122.156h0a.782.782,0,0,1-.979.1.923.923,0,0,1-.377-.979h0A1.238,1.238,0,0,1,1093.9,620.51Z" transform="translate(-497.285 -250.676)"/><path class="q" d="M113.733,66.4a1.865,1.865,0,0,0-.533-2.3.72.72,0,0,1-.139-.131h0a.941.941,0,0,1-.1-1.059.8.8,0,0,1,.915-.4h0a.744.744,0,0,1,.174.075,1.582,1.582,0,0,0,2.133-.575,1.009,1.009,0,0,1,.122-.156h0a.782.782,0,0,1,.979-.1.924.924,0,0,1,.377.979h0a.876.876,0,0,1-.07.187,1.865,1.865,0,0,0,.533,2.3.925.925,0,0,1,.145.125h0a.948.948,0,0,1,.1,1.062.8.8,0,0,1-.916.406h0a.745.745,0,0,1-.174-.075,1.582,1.582,0,0,0-2.133.575.716.716,0,0,1-.116.15h0a.783.783,0,0,1-.981.106.923.923,0,0,1-.381-.98h0A.877.877,0,0,1,113.733,66.4Z" transform="translate(-85.164 -42.648)"/><path class="q" d="M65.986,36.034a1.858,1.858,0,0,0-.533-2.292.72.72,0,0,1-.139-.131h0a.948.948,0,0,1-.1-1.058.805.805,0,0,1,.91-.41h0a.744.744,0,0,1,.174.075,1.581,1.581,0,0,0,2.133-.568,1.046,1.046,0,0,1,.116-.156h0a.782.782,0,0,1,.969-.105.921.921,0,0,1,.392.961h0a.965.965,0,0,1-.07.181,1.864,1.864,0,0,0,.533,2.317.72.72,0,0,1,.139.131h0a.939.939,0,0,1,.115,1.085.8.8,0,0,1-.95.382h0a.556.556,0,0,1-.174-.075,1.587,1.587,0,0,0-2.133.575.782.782,0,0,1-.122.156h0a.782.782,0,0,1-.979.1.924.924,0,0,1-.377-.979h0A1.207,1.207,0,0,1,65.986,36.034Z" transform="translate(-65.09 -31.25)"/><path class="q" d="M446.356,256.58a1.858,1.858,0,0,0-.533-2.292.725.725,0,0,1-.139-.131h0a.948.948,0,0,1-.1-1.058.805.805,0,0,1,.91-.41h0a.747.747,0,0,1,.174.075,1.581,1.581,0,0,0,2.133-.568.758.758,0,0,1,.116-.156h0a.783.783,0,0,1,.985-.107.924.924,0,0,1,.377.987h0a.969.969,0,0,1-.07.181,1.865,1.865,0,0,0,.533,2.3.719.719,0,0,1,.139.131h0a.941.941,0,0,1,.1,1.059.8.8,0,0,1-.914.4h0a.555.555,0,0,1-.174-.075,1.587,1.587,0,0,0-2.133.575.781.781,0,0,1-.122.156h0a.783.783,0,0,1-.979.1.924.924,0,0,1-.377-.979h0A1.225,1.225,0,0,1,446.356,256.58Z" transform="translate(-225.02 -114.047)"/><path class="q" d="M269.983,374.07a1.858,1.858,0,0,0-.533-2.292.72.72,0,0,1-.139-.131h0a.941.941,0,0,1-.1-1.059.8.8,0,0,1,.915-.4h0a.556.556,0,0,1,.174.075,1.587,1.587,0,0,0,2.133-.575,1.044,1.044,0,0,1,.116-.156h0a.783.783,0,0,1,.985-.107.924.924,0,0,1,.377.987h0a1.233,1.233,0,0,1-.07.187,1.858,1.858,0,0,0,.533,2.292.718.718,0,0,1,.139.131h0a.941.941,0,0,1,.1,1.059.8.8,0,0,1-.914.4h0a.555.555,0,0,1-.174-.075,1.587,1.587,0,0,0-2.133.575,1.048,1.048,0,0,1-.116.156h0a.783.783,0,0,1-.985.106.924.924,0,0,1-.376-.987h0A1.224,1.224,0,0,1,269.983,374.07Z" transform="translate(-150.86 -158.156)"/><path class="q" d="M545.741,220.2a1.836,1.836,0,0,0-.777-2.211.733.733,0,0,1-.156-.112h0a.934.934,0,0,1-.219-1.041.813.813,0,0,1,.868-.514h0a.6.6,0,0,1,.18.05,1.607,1.607,0,0,0,2.057-.837,1,1,0,0,1,.1-.169h0a.788.788,0,0,1,.964-.222.908.908,0,0,1,.479.928h0a1.187,1.187,0,0,1-.052.194,1.842,1.842,0,0,0,.782,2.211.877.877,0,0,1,.151.112h0a.942.942,0,0,1,.206,1.035.82.82,0,0,1-.855.52h0a.859.859,0,0,1-.18-.05,1.6,1.6,0,0,0-2.052.837,1.334,1.334,0,0,1-.1.169h0a.788.788,0,0,1-.964.222.908.908,0,0,1-.479-.928h0a.779.779,0,0,1,.046-.194Z" transform="translate(-266.666 -100.254)"/><path class="q" d="M996.055,529.506a2.524,2.524,0,0,0,1.275-2.979,1.434,1.434,0,0,1-.046-.275h0a1.251,1.251,0,0,1,.758-1.2,1.108,1.108,0,0,1,1.3.383h0a1.205,1.205,0,0,1,.127.244,2.236,2.236,0,0,0,2.764,1.374,1.177,1.177,0,0,1,.255-.056h0a1.163,1.163,0,0,1,1.122.817,1.311,1.311,0,0,1-.363,1.406h0a1.061,1.061,0,0,1-.226.137,2.563,2.563,0,0,0-1.275,2.979,1.1,1.1,0,0,1,.052.275h0a1.252,1.252,0,0,1-.758,1.209,1.108,1.108,0,0,1-1.3-.391h0a.938.938,0,0,1-.122-.244,2.236,2.236,0,0,0-2.765-1.374,1.238,1.238,0,0,1-.255.056h0a1.163,1.163,0,0,1-1.122-.817,1.311,1.311,0,0,1,.363-1.406h0A1.191,1.191,0,0,1,996.055,529.506Z" transform="translate(-456.244 -216.601)"/><path class="q" d="M387.111,567.381a2.563,2.563,0,0,0,1.275-2.979,1.1,1.1,0,0,1-.052-.269h0a1.253,1.253,0,0,1,.755-1.215,1.108,1.108,0,0,1,1.308.39h0a1.38,1.38,0,0,1,.128.244,2.231,2.231,0,0,0,2.764,1.374.847.847,0,0,1,.249-.05h0a1.164,1.164,0,0,1,1.115.816,1.312,1.312,0,0,1-.355,1.4h0a1.021,1.021,0,0,1-.22.137,2.524,2.524,0,0,0-1.275,2.979,1.43,1.43,0,0,1,.046.275h0a1.251,1.251,0,0,1-.757,1.2,1.107,1.107,0,0,1-1.3-.383h0a1.194,1.194,0,0,1-.128-.244,2.269,2.269,0,0,0-2.764-1.374,1.165,1.165,0,0,1-.255.056h0a1.164,1.164,0,0,1-1.122-.817,1.311,1.311,0,0,1,.363-1.406h0A1.066,1.066,0,0,1,387.111,567.381Z" transform="translate(-200.205 -230.818)"/><path class="q" d="M577.456,577.091a2.524,2.524,0,0,0,1.275-2.979,1.533,1.533,0,0,1-.052-.275h0a1.252,1.252,0,0,1,.758-1.21,1.108,1.108,0,0,1,1.3.391h0a1.189,1.189,0,0,1,.127.244,2.236,2.236,0,0,0,2.764,1.368,1.154,1.154,0,0,1,.255-.05h0A1.164,1.164,0,0,1,585,575.4a1.312,1.312,0,0,1-.355,1.4h0a1.065,1.065,0,0,1-.226.137,2.524,2.524,0,0,0-1.275,2.979,1.526,1.526,0,0,1,.052.275h0a1.252,1.252,0,0,1-.758,1.21,1.108,1.108,0,0,1-1.3-.391h0a1.2,1.2,0,0,1-.128-.244,2.269,2.269,0,0,0-2.764-1.374.887.887,0,0,1-.255.056h0a1.164,1.164,0,0,1-1.115-.816,1.311,1.311,0,0,1,.355-1.4h0A1.065,1.065,0,0,1,577.456,577.091Z" transform="translate(-280.241 -234.463)"/><ellipse class="a" cx="9.562" cy="10.305" rx="9.562" ry="10.305" transform="translate(61.07 54.213)"/><ellipse class="a" cx="9.562" cy="10.305" rx="9.562" ry="10.305" transform="translate(537.904 64.518)"/><ellipse class="a" cx="5.216" cy="5.621" rx="5.216" ry="5.621" transform="translate(110.621 7.732)"/><ellipse class="a" cx="5.216" cy="5.621" rx="5.216" ry="5.621" transform="translate(609.576 171.314)"/><ellipse class="a" cx="5.216" cy="5.621" rx="5.216" ry="5.621" transform="translate(74.979 459.06)"/><ellipse class="a" cx="5.216" cy="5.621" rx="5.216" ry="5.621" transform="translate(94.973 484.374)"/><ellipse class="a" cx="5.216" cy="5.621" rx="5.216" ry="5.621" transform="translate(55.854 499.633)"/></g></svg>