<svg xmlns="http://www.w3.org/2000/svg" width="30.21" height="34.426" viewBox="0 0 30.21 34.426"><defs><style>.a{fill:#330c00;}.b{fill:#00b497;}.c{fill:#fdcc9b;}.d{fill:#fcbc85;}.e{fill:#3b2519;}.f{fill:#fff;}.g{fill:#684b37;}.h{fill:#f7945e;}.i{fill:#f9aa8d;}.j{fill:#8fd6e7;}.k{fill:#f6b1cf;}.l{fill:#f283b4;}.m{fill:#3abdaa;}.n{fill:#401900;}</style></defs><g transform="translate(-12.655)"><path class="a" d="M27.784,43.054V69.706S12.655,71.274,12.655,63.9c0,0,4.064.512,3.232-2.877-1.055-4.3-.465-11.256,0-15.059S27.784,43.054,27.784,43.054Z" transform="translate(0 -35.806)"/><path class="a" d="M103.191,43.054V69.706S118.32,71.274,118.32,63.9c0,0-4.064.512-3.232-2.877,1.055-4.3.465-11.256,0-15.059S103.191,43.054,103.191,43.054Z" transform="translate(-75.456 -35.806)"/><path class="b" d="M105.07,160.287V156.4s6.163-.187,6.163,3.544Z" transform="translate(-77.022 -130.351)"/><path class="b" d="M71.061,160.287V156.4s-6.163-.187-6.163,3.544Z" transform="translate(-43.541 -130.351)"/><g transform="translate(15.887 5.391)"><g transform="translate(0)"><rect class="c" width="4.896" height="5.484" transform="translate(9.45 20.662)"/><path class="d" d="M88.788,157.056a8.215,8.215,0,0,0,4.9,1.008V156.41h-4.9Z" transform="translate(-79.338 -135.748)"/><ellipse class="d" cx="2.389" cy="2.726" rx="2.389" ry="2.726" transform="translate(0 9.433)"/><ellipse class="d" cx="2.389" cy="2.726" rx="2.389" ry="2.726" transform="translate(19.017 9.433)"/><path class="c" d="M65.408,39.317c0-4.015-2.938-6.953-9.5-6.953s-9.5,2.938-9.5,6.953-.685,14.591,9.5,14.591S65.408,43.332,65.408,39.317Z" transform="translate(-44.012 -32.364)"/><g transform="translate(5.526 8.047)"><g transform="translate(0.717 2.333)"><ellipse class="e" cx="1.028" cy="1.126" rx="1.028" ry="1.126"/><circle class="f" cx="0.307" cy="0.307" r="0.307" transform="translate(0.273 0.321)"/></g><path class="g" d="M65.332,81.706c.486.186,1.267-.633,3.054.08.326.13.52-1.111-1.4-1.111C65.332,80.675,65.038,81.593,65.332,81.706Z" transform="translate(-65.232 -80.675)"/><g transform="translate(10.097 2.333)"><ellipse class="e" cx="1.028" cy="1.126" rx="1.028" ry="1.126"/><circle class="f" cx="0.308" cy="0.308" r="0.308" transform="translate(0.272 0.321)"/></g><path class="g" d="M124.808,81.706c-.486.186-1.267-.633-3.054.08-.326.13-.52-1.111,1.4-1.111C124.808,80.675,125.1,81.593,124.808,81.706Z" transform="translate(-112.165 -80.675)"/></g><path class="d" d="M95.339,122.761c-1.016,0-1.628-.759-1.628-.392s.294,1.065,1.628,1.065,1.628-.7,1.628-1.065S96.355,122.761,95.339,122.761Z" transform="translate(-83.441 -107.293)"/><path class="d" d="M100.667,144.642c-.351,0-.563-.263-.563-.135s.1.368.563.368.563-.241.563-.368S101.018,144.642,100.667,144.642Z" transform="translate(-88.77 -125.798)"/><path class="h" d="M90.573,137.291a13.271,13.271,0,0,1-2.581-.49c0,.166.466.82,2.581.82s2.581-.654,2.581-.82A13.258,13.258,0,0,1,90.573,137.291Z" transform="translate(-78.675 -119.383)"/></g><circle class="i" cx="1.395" cy="1.395" r="1.395" transform="translate(4.553 13.71)"/><circle class="i" cx="1.395" cy="1.395" r="1.395" transform="translate(16.623 13.71)"/></g><path class="j" d="M49.834,169.638v6.169H39.112C39.112,173.31,44.2,169.638,49.834,169.638Z" transform="translate(-22.05 -141.382)"/><path class="j" d="M103.485,169.638v6.169h10.722C114.207,173.31,109.116,169.638,103.485,169.638Z" transform="translate(-75.701 -141.382)"/><path class="k" d="M81.087,175.528v-5.89a14.139,14.139,0,0,0-4.476.757Z" transform="translate(-53.303 -141.382)"/><path class="k" d="M103.485,175.528v-5.89a14.14,14.14,0,0,1,4.476.757Z" transform="translate(-75.701 -141.382)"/><path class="l" d="M86.9,169.638a13.859,13.859,0,0,0-3.315.418,3.363,3.363,0,0,0,6.629,0A13.848,13.848,0,0,0,86.9,169.638Z" transform="translate(-59.115 -141.382)"/><path class="c" d="M88.788,168.863a2.461,2.461,0,0,0,4.9,0A7.739,7.739,0,0,0,88.788,168.863Z" transform="translate(-63.452 -140.394)"/><path class="m" d="M66.843,171.391c.073-.477-2.851-.125-2.828,1.219s3.232,2.379,4.113,2.869,2.448,1.621,2.448,1.621a1.933,1.933,0,0,0-1.077-2.012C68.128,174.211,66.745,172.027,66.843,171.391Z" transform="translate(-42.805 -142.674)"/><path class="m" d="M106.951,171.391c-.073-.477,2.851-.125,2.828,1.219s-3.232,2.379-4.113,2.869-2.448,1.621-2.448,1.621a1.933,1.933,0,0,1,1.077-2.012C105.666,174.211,107.049,172.027,106.951,171.391Z" transform="translate(-75.456 -142.674)"/><path class="n" d="M41.013,0C30,0,28.528,9.619,28.528,16.707s3.67,11.205,6.537,12.355c0,0-4.578-8.113-2.326-15.624,1.843-6.145,8.275-4.331,8.275-4.331s6.432-1.815,8.275,4.331c2.252,7.511-2.326,15.624-2.326,15.624C49.829,27.912,53.5,23.8,53.5,16.707S52.03,0,41.013,0Z" transform="translate(-13.229)"/><path class="n" d="M56.621,36.406s-4.135,2.073-7.786,1.657S43.781,41.432,44,43.937l-1.219-5.576,2.2-4.412,6.279-3.231,5.933.274,2.814,2.443,2.389,2.97,1.679,1.955-.808,6.017-1.71,2.057S63.113,38.715,56.621,36.406Z" transform="translate(-25.111 -25.601)"/></g></svg>