<svg xmlns="http://www.w3.org/2000/svg" width="109" height="109" viewBox="0 0 109 109"><defs><style>.a{opacity:0.55;}.b{fill:#f2e0e0;}</style></defs><g transform="translate(-1811 -1832)"><g class="a" transform="translate(1811 1832)"><circle class="b" cx="9.5" cy="9.5" r="9.5" transform="translate(67 23)"/><circle class="b" cx="9.5" cy="9.5" r="9.5" transform="translate(90 23)"/><ellipse class="b" cx="10.5" cy="9.5" rx="10.5" ry="9.5" transform="translate(44 23)"/><circle class="b" cx="9.5" cy="9.5" r="9.5" transform="translate(23 23)"/><ellipse class="b" cx="9.5" cy="10.5" rx="9.5" ry="10.5" transform="translate(23 44)"/><circle class="b" cx="9.5" cy="9.5" r="9.5" transform="translate(23 67)"/><circle class="b" cx="9.5" cy="9.5" r="9.5" transform="translate(23 90)"/><circle class="b" cx="9.5" cy="9.5" r="9.5" transform="translate(0 23)"/><ellipse class="b" cx="9.5" cy="10.5" rx="9.5" ry="10.5" transform="translate(0 44)"/><circle class="b" cx="9.5" cy="9.5" r="9.5" transform="translate(0 67)"/><circle class="b" cx="9.5" cy="9.5" r="9.5" transform="translate(0 90)"/><circle class="b" cx="9.5" cy="9.5" r="9.5" transform="translate(67 0)"/><circle class="b" cx="9.5" cy="9.5" r="9.5" transform="translate(90 0)"/><ellipse class="b" cx="10.5" cy="9.5" rx="10.5" ry="9.5" transform="translate(44 0)"/><circle class="b" cx="9.5" cy="9.5" r="9.5" transform="translate(23 0)"/><circle class="b" cx="9.5" cy="9.5" r="9.5" transform="translate(0 0)"/></g><g class="a" transform="translate(1811 1832)"><circle class="b" cx="9.5" cy="9.5" r="9.5" transform="translate(23 67)"/><circle class="b" cx="9.5" cy="9.5" r="9.5" transform="translate(0 67)"/><ellipse class="b" cx="10.5" cy="9.5" rx="10.5" ry="9.5" transform="translate(44 67)"/><circle class="b" cx="9.5" cy="9.5" r="9.5" transform="translate(67 67)"/><ellipse class="b" cx="9.5" cy="10.5" rx="9.5" ry="10.5" transform="translate(67 44)"/><circle class="b" cx="9.5" cy="9.5" r="9.5" transform="translate(67 23)"/><circle class="b" cx="9.5" cy="9.5" r="9.5" transform="translate(67 0)"/><circle class="b" cx="9.5" cy="9.5" r="9.5" transform="translate(90 67)"/><ellipse class="b" cx="9.5" cy="10.5" rx="9.5" ry="10.5" transform="translate(90 44)"/><circle class="b" cx="9.5" cy="9.5" r="9.5" transform="translate(90 23)"/><circle class="b" cx="9.5" cy="9.5" r="9.5" transform="translate(90 0)"/><circle class="b" cx="9.5" cy="9.5" r="9.5" transform="translate(23 90)"/><circle class="b" cx="9.5" cy="9.5" r="9.5" transform="translate(0 90)"/><ellipse class="b" cx="10.5" cy="9.5" rx="10.5" ry="9.5" transform="translate(44 90)"/><circle class="b" cx="9.5" cy="9.5" r="9.5" transform="translate(67 90)"/><circle class="b" cx="9.5" cy="9.5" r="9.5" transform="translate(90 90)"/></g></g></svg>