<svg xmlns="http://www.w3.org/2000/svg" xmlns:xlink="http://www.w3.org/1999/xlink" width="202" height="101" viewBox="0 0 202 101"><defs><style>.a{fill:rgba(255,255,255,0);}.b{clip-path:url(#a);}.c{fill:#e51e27;}.d{fill:#7f8080;}.e,.f{stroke:#000;}.e{stroke-width:0.637px;}.f{stroke-miterlimit:10;stroke-width:0.464px;}</style><clipPath id="a"><rect class="a" width="202" height="101" transform="translate(0 0)"/></clipPath></defs><g class="b" transform="translate(0 0)"><g transform="translate(0 30.846)"><path class="c" d="M103.751,62.249a1.982,1.982,0,0,0-2.8,0l-9.173,9.173,2.8,2.79,9.173-9.173a1.982,1.982,0,0,0,0-2.79" transform="translate(-45.757 -50.754)"/><path d="M39.334,64.354a1.863,1.863,0,0,1-1.858,1.858,5.655,5.655,0,0,0-5.655,5.65v7.483a1.844,1.844,0,0,1-3.687,0V71.862a9.347,9.347,0,0,1,9.342-9.337,1.839,1.839,0,0,1,1.858,1.829" transform="translate(-28.134 -50.99)"/><path d="M62.146,71.833a1.839,1.839,0,0,1-1.868,1.829H47.447A5.685,5.685,0,0,0,52.809,77.5a7.35,7.35,0,0,0,4.168-1.2,1.775,1.775,0,0,1,2.448.852,1.968,1.968,0,0,1-.9,2.478,9.079,9.079,0,0,1-5.719,1.6,9.337,9.337,0,0,1,0-18.674,9.166,9.166,0,0,1,9.337,9.332m-14.7-1.858H58.2a5.43,5.43,0,0,0-5.387-3.8,5.7,5.7,0,0,0-5.362,3.8" transform="translate(-32.381 -50.996)"/><path d="M89.163,82.014a1.948,1.948,0,0,1-1.393-.585l-14.7-14.67a1.982,1.982,0,0,1,2.79-2.79l14.7,14.689a1.982,1.982,0,0,1-1.4,3.375" transform="translate(-40.451 -51.265)"/><path d="M72.2,78.558A1.982,1.982,0,0,1,70.8,75.183L94.529,51.488a1.982,1.982,0,0,1,2.8,2.785L73.595,78a1.982,1.982,0,0,1-1.4.585" transform="translate(-39.79 -47.809)"/><path class="c" d="M51.719,54.644a19.72,19.72,0,0,1,6.314-5.526,20.012,20.012,0,0,1,8.222-2.478,20.815,20.815,0,0,1,8.678,1.15,21.4,21.4,0,0,1,7.593,4.753h0a1.982,1.982,0,1,1-2.889,2.686A17.841,17.841,0,0,0,66.3,48.786a18.4,18.4,0,0,0-7.707,1.452A19.145,19.145,0,0,0,52.027,54.9a.2.2,0,0,1-.287,0,.208.208,0,0,1,0-.268" transform="translate(-34.656 -46.573)"/><g transform="translate(93.328 35.031)"><path class="d" d="M69.063,95.168h1.6a3.158,3.158,0,0,1,.629.059,1.378,1.378,0,0,1,.5.208,1.09,1.09,0,0,1,.352.4,1.392,1.392,0,0,1,.129.629,1.487,1.487,0,0,1-.119.629,1.075,1.075,0,0,1-.332.406,1.427,1.427,0,0,1-.5.213,2.791,2.791,0,0,1-.629.064H70V99.44h-.942ZM70,96.977h.629a1.3,1.3,0,0,0,.243,0,.729.729,0,0,0,.213-.079.456.456,0,0,0,.149-.159.5.5,0,0,0,.059-.253.446.446,0,0,0-.074-.263.59.59,0,0,0-.193-.154A1.075,1.075,0,0,0,70.768,96h-.773Z" transform="translate(-69.063 -95.059)"/><path class="d" d="M74.175,97.272a2.349,2.349,0,0,1,.173-.932,2.077,2.077,0,0,1,.5-.709,2.285,2.285,0,0,1,.7-.426,2.775,2.775,0,0,1,.927-.154,2.745,2.745,0,0,1,.922.154,2.18,2.18,0,0,1,.729.451,2.017,2.017,0,0,1,.5.709,2.439,2.439,0,0,1,.173.932,2.414,2.414,0,0,1-.173.927,1.982,1.982,0,0,1-.5.709,2.032,2.032,0,0,1-.729.451,2.627,2.627,0,0,1-.922.159,2.656,2.656,0,0,1-.927-.159,2.121,2.121,0,0,1-.729-.451,2.027,2.027,0,0,1-.5-.709A2.324,2.324,0,0,1,74.175,97.272Zm.991,0a1.487,1.487,0,0,0,.094.55,1.264,1.264,0,0,0,.268.436,1.2,1.2,0,0,0,.421.287,1.353,1.353,0,0,0,.545.1,1.373,1.373,0,0,0,.545-.1,1.179,1.179,0,0,0,.416-.287,1.273,1.273,0,0,0,.273-.436,1.62,1.62,0,0,0,.094-.55,1.64,1.64,0,0,0-.094-.55,1.3,1.3,0,0,0-.273-.441A1.17,1.17,0,0,0,77.039,96a1.373,1.373,0,0,0-.545-.1,1.353,1.353,0,0,0-.545.1,1.189,1.189,0,0,0-.421.282,1.284,1.284,0,0,0-.268.441,1.526,1.526,0,0,0-.109.55Z" transform="translate(-70.477 -95.027)"/><path class="d" d="M80.981,95.168h1.026l.684,2.741h0l.9-2.741h.872l.887,2.81h0l.719-2.81h.956L85.774,99.44h-.843l-.937-2.974h0l-.942,2.974h-.808Z" transform="translate(-72.363 -95.059)"/><path class="d" d="M90.158,95.168h2.9v.867H91.074v.8h1.858v.882H91.074v.872h2.072v.867H90.138Z" transform="translate(-74.898 -95.059)"/><path class="d" d="M95.531,95.168h1.655a2.825,2.825,0,0,1,.624.069,1.422,1.422,0,0,1,.5.208,1.066,1.066,0,0,1,.352.4,1.348,1.348,0,0,1,.129.619,1.259,1.259,0,0,1-.238.773,1.09,1.09,0,0,1-.689.4l1.09,1.8H97.81l-.892-1.71h-.466v1.71h-.942Zm.942,1.764h.843a.852.852,0,0,0,.258-.055.446.446,0,0,0,.188-.144.436.436,0,0,0,.074-.273.411.411,0,0,0-.233-.406.837.837,0,0,0-.238-.069,2.242,2.242,0,0,0-.258,0h-.634Z" transform="translate(-76.386 -95.059)"/><path class="d" d="M101.165,95.168h2.9v.867h-1.982v.8h1.858v.882H102.1v.872h2.072v.867h-3.008Z" transform="translate(-77.951 -95.059)"/><path class="d" d="M106.536,95.168h1.412a4.183,4.183,0,0,1,.991.114,2.176,2.176,0,0,1,.8.372,1.8,1.8,0,0,1,.545.664,2.26,2.26,0,0,1,.2.991,2.076,2.076,0,0,1-.213.9,1.982,1.982,0,0,1-.53.659,2.294,2.294,0,0,1-.768.411,3.053,3.053,0,0,1-.912.139h-1.536Zm.942,3.4h.5a2.627,2.627,0,0,0,.6-.069,1.363,1.363,0,0,0,.5-.218,1.051,1.051,0,0,0,.322-.406,1.407,1.407,0,0,0,.119-.61,1.2,1.2,0,0,0-.119-.55,1.085,1.085,0,0,0-.317-.382,1.457,1.457,0,0,0-.466-.228,2.1,2.1,0,0,0-.565-.074h-.555Z" transform="translate(-79.437 -95.059)"/><path class="d" d="M115.674,95.168h1.6a3.469,3.469,0,0,1,.555.04,1.487,1.487,0,0,1,.5.154.932.932,0,0,1,.362.332.991.991,0,0,1,.139.56.922.922,0,0,1-.2.6,1.155,1.155,0,0,1-.54.342h0a1.175,1.175,0,0,1,.387.119,1.115,1.115,0,0,1,.3.223,1.076,1.076,0,0,1,.188.317,1.09,1.09,0,0,1,.064.387,1.061,1.061,0,0,1-.144.565,1.16,1.16,0,0,1-.377.367,1.774,1.774,0,0,1-.5.2,2.735,2.735,0,0,1-.565.059h-1.754Zm.942,1.7h.684a.99.99,0,0,0,.213,0,.719.719,0,0,0,.188-.079.441.441,0,0,0,.139-.149.466.466,0,0,0,.05-.213.436.436,0,0,0-.055-.223.382.382,0,0,0-.149-.134.545.545,0,0,0-.208-.069,1.13,1.13,0,0,0-.223,0h-.639Zm0,1.769h.847a.843.843,0,0,0,.218-.025.57.57,0,0,0,.2-.084.461.461,0,0,0,.208-.392.377.377,0,0,0-.079-.243.446.446,0,0,0-.188-.144.956.956,0,0,0-.248-.064,1.489,1.489,0,0,0-.248,0h-.714Z" transform="translate(-81.969 -95.059)"/><path class="d" d="M122.062,97.616l-1.611-2.448h1.175l.907,1.6.956-1.6H124.6L123,97.616V99.44h-.942Z" transform="translate(-83.291 -95.059)"/><path class="d" d="M133.24,99.1a3.429,3.429,0,0,1-.867.312,4.425,4.425,0,0,1-.927.1,2.646,2.646,0,0,1-.922-.159,2.052,2.052,0,0,1-1.209-1.16,2.413,2.413,0,0,1-.173-.927,2.438,2.438,0,0,1,.173-.932,2.086,2.086,0,0,1,.5-.709,2.18,2.18,0,0,1,.729-.451,2.765,2.765,0,0,1,.922-.154,3.366,3.366,0,0,1,.947.124,1.849,1.849,0,0,1,.758.421l-.664.729a1.264,1.264,0,0,0-.431-.3,1.566,1.566,0,0,0-.61-.1,1.388,1.388,0,0,0-.545.1,1.169,1.169,0,0,0-.416.282,1.214,1.214,0,0,0-.268.441,1.526,1.526,0,0,0-.094.55,1.486,1.486,0,0,0,.094.55,1.234,1.234,0,0,0,.684.724,1.387,1.387,0,0,0,.545.1,1.71,1.71,0,0,0,.535-.069,1.854,1.854,0,0,0,.357-.139v-.694h-.768v-.872h1.67Z" transform="translate(-85.697 -95.017)"/><path class="d" d="M136.173,95.168h.942v3.4h1.745v.867h-2.686Z" transform="translate(-87.644 -95.059)"/><path class="d" d="M140.456,97.262a2.438,2.438,0,0,1,.173-.932,2.076,2.076,0,0,1,.5-.709,2.25,2.25,0,0,1,.733-.451,2.84,2.84,0,0,1,1.844,0,2.25,2.25,0,0,1,.733.451,2.077,2.077,0,0,1,.5.709,2.438,2.438,0,0,1,.173.932,2.413,2.413,0,0,1-.173.927,2.027,2.027,0,0,1-.5.709,2.1,2.1,0,0,1-.733.451,2.76,2.76,0,0,1-1.844,0,2.1,2.1,0,0,1-.733-.451,2.027,2.027,0,0,1-.5-.709,2.413,2.413,0,0,1-.173-.927Zm.991,0a1.487,1.487,0,0,0,.094.55,1.344,1.344,0,0,0,.268.436,1.249,1.249,0,0,0,.421.287,1.546,1.546,0,0,0,1.09,0,1.249,1.249,0,0,0,.421-.287,1.343,1.343,0,0,0,.268-.436,1.622,1.622,0,0,0,.094-.55,1.64,1.64,0,0,0-.094-.55,1.369,1.369,0,0,0-.268-.441,1.234,1.234,0,0,0-.421-.283,1.487,1.487,0,0,0-1.09,0,1.234,1.234,0,0,0-.421.282,1.367,1.367,0,0,0-.268.441,1.526,1.526,0,0,0-.109.55Z" transform="translate(-88.83 -95.017)"/><path class="d" d="M147.879,95.168h1.6a3.47,3.47,0,0,1,.555.04,1.487,1.487,0,0,1,.5.154.932.932,0,0,1,.362.332.991.991,0,0,1,.139.56.922.922,0,0,1-.2.6,1.14,1.14,0,0,1-.535.342h0a1.185,1.185,0,0,1,.382.119,1.115,1.115,0,0,1,.3.223,1.076,1.076,0,0,1,.188.317,1.09,1.09,0,0,1,.064.387,1.061,1.061,0,0,1-.144.565,1.194,1.194,0,0,1-.372.367,1.888,1.888,0,0,1-.5.2,2.819,2.819,0,0,1-.57.059h-1.754Zm.942,1.7h.684a.99.99,0,0,0,.213,0,.832.832,0,0,0,.193-.079.5.5,0,0,0,.134-.149.411.411,0,0,0,.05-.213.391.391,0,0,0-.055-.223.382.382,0,0,0-.149-.134.55.55,0,0,0-.2-.069,1.2,1.2,0,0,0-.223,0h-.644Zm0,1.769h.847a.842.842,0,0,0,.218-.025.57.57,0,0,0,.2-.084.461.461,0,0,0,.149-.159.416.416,0,0,0,.059-.233.377.377,0,0,0-.079-.243.446.446,0,0,0-.188-.144.956.956,0,0,0-.248-.064,1.486,1.486,0,0,0-.248,0h-.714Z" transform="translate(-90.885 -95.059)"/><path class="d" d="M154.692,95.168h.778l1.858,4.272h-1.066l-.367-.907h-1.66l-.352.907h-1.051Zm.362,1.244-.5,1.328H155.6Z" transform="translate(-92.257 -95.059)"/><path class="d" d="M159.859,95.168h.942v3.4h1.745v.867h-2.686Z" transform="translate(-94.202 -95.059)"/><path class="d" d="M168.328,95.168h.778l1.858,4.272H169.9l-.367-.907h-1.66l-.357.907h-1.041Zm.362,1.244-.52,1.328h1.046Z" transform="translate(-96.035 -95.059)"/><path class="d" d="M176.15,96.237a.837.837,0,0,0-.342-.258,1.055,1.055,0,0,0-.466-.094,1.145,1.145,0,0,0-.5.1,1.185,1.185,0,0,0-.4.283,1.437,1.437,0,0,0-.258.441,1.527,1.527,0,0,0-.089.55,1.486,1.486,0,0,0,.089.55,1.412,1.412,0,0,0,.258.436,1.194,1.194,0,0,0,.382.287,1.1,1.1,0,0,0,.5.1,1.021,1.021,0,0,0,.882-.456l.783.585a1.64,1.64,0,0,1-.689.56,2.166,2.166,0,0,1-.857.183,2.646,2.646,0,0,1-.922-.159,2.032,2.032,0,0,1-.729-.451,1.982,1.982,0,0,1-.5-.709,2.414,2.414,0,0,1-.173-.927,2.438,2.438,0,0,1,.173-.932,2.017,2.017,0,0,1,.5-.709,2.18,2.18,0,0,1,.729-.451,2.765,2.765,0,0,1,.922-.154,2.477,2.477,0,0,1,.377.03,2.032,2.032,0,0,1,.387.109,1.581,1.581,0,0,1,.679.5Z" transform="translate(-97.876 -95.017)"/><path class="d" d="M182.043,96.246a.872.872,0,0,0-.342-.258,1.1,1.1,0,0,0-.471-.094,1.18,1.18,0,0,0-.5.1,1.165,1.165,0,0,0-.392.282,1.353,1.353,0,0,0-.263.441,1.64,1.64,0,0,0-.089.55,1.621,1.621,0,0,0,.089.55,1.412,1.412,0,0,0,.258.436,1.194,1.194,0,0,0,.382.287,1.105,1.105,0,0,0,.5.1,1.085,1.085,0,0,0,.5-.119,1.036,1.036,0,0,0,.367-.337l.808.585a1.581,1.581,0,0,1-.689.56,2.131,2.131,0,0,1-.857.183,2.646,2.646,0,0,1-.922-.159,2.052,2.052,0,0,1-1.209-1.16,2.413,2.413,0,0,1-.173-.927,2.439,2.439,0,0,1,.173-.932,2.087,2.087,0,0,1,.5-.709,2.181,2.181,0,0,1,.7-.426,2.765,2.765,0,0,1,.922-.154,2.575,2.575,0,0,1,.382.03,2.261,2.261,0,0,1,.387.109,1.422,1.422,0,0,1,.362.193,1.343,1.343,0,0,1,.312.292Z" transform="translate(-99.512 -95.027)"/><path class="d" d="M185.258,95.168h2.9v.867H186.18v.8h1.9v.882h-1.854v.872H188.3v.867h-3.013Z" transform="translate(-101.235 -95.059)"/><path class="d" d="M190.686,95.168h.942v3.4h1.745v.867h-2.686Z" transform="translate(-102.738 -95.059)"/><path class="d" d="M195.326,95.168h2.9v.867h-1.982v.8H198.1v.882h-1.854v.872h2.072v.867h-2.993Z" transform="translate(-104.022 -95.059)"/><path class="d" d="M200.713,95.168h1.65a2.76,2.76,0,0,1,.62.064,1.387,1.387,0,0,1,.5.208,1.026,1.026,0,0,1,.352.4,1.288,1.288,0,0,1,.134.62,1.259,1.259,0,0,1-.208.758,1.09,1.09,0,0,1-.689.4l1.085,1.8h-1.14l-.9-1.71h-.466v1.71h-.937Zm.937,1.764h.828a.788.788,0,0,0,.253-.055.4.4,0,0,0,.268-.416.441.441,0,0,0-.064-.258.5.5,0,0,0-.169-.149.837.837,0,0,0-.238-.069h-.877Z" transform="translate(-105.514 -95.059)"/><path class="d" d="M206.333,95.168h2.9v.867h-1.982v.8h1.854v.882h-1.814v.872h2.072v.867h-3.013Z" transform="translate(-107.07 -95.059)"/><path class="d" d="M212.6,97.226l-1.412-2.037h1.185l.912,1.487.872-1.487h1.14l-1.378,2.022,1.541,2.25h-1.184l-1.041-1.72-1.016,1.72h-1.13Z" transform="translate(-108.387 -95.065)"/></g><g transform="translate(59.319 8.305)"><path class="e" d="M15.307,16.393V9.1a5.447,5.447,0,0,0-1.649-3.9A5.691,5.691,0,0,0,9.674,3.591q-.092,0-.183-.009-.09.009-.183.009A5.69,5.69,0,0,0,5.323,5.2,5.447,5.447,0,0,0,3.675,9.1v7.29a1.818,1.818,0,0,1-1.837,1.8A1.818,1.818,0,0,1,0,16.393V9.1A9.215,9.215,0,0,1,9.308,0c.061,0,.122,0,.183.006S9.612,0,9.674,0a9.215,9.215,0,0,1,9.308,9.1v7.29a1.838,1.838,0,0,1-3.675,0Z" transform="translate(44.515 3.955)"/><path class="e" d="M15.307,16.393V9.1a5.447,5.447,0,0,0-1.649-3.9A5.691,5.691,0,0,0,9.674,3.591q-.092,0-.183-.009-.09.009-.183.009A5.69,5.69,0,0,0,5.323,5.2,5.447,5.447,0,0,0,3.675,9.1v7.29a1.818,1.818,0,0,1-1.837,1.8A1.818,1.818,0,0,1,0,16.393V9.1A9.215,9.215,0,0,1,9.308,0c.061,0,.122,0,.183.006S9.612,0,9.674,0a9.215,9.215,0,0,1,9.308,9.1v7.29a1.838,1.838,0,0,1-3.675,0Z" transform="translate(66.661 3.955)"/><path class="e" d="M9.277,33.457A9.26,9.26,0,0,1,0,23.917s-.02-8.375,9.277-9.273a9.26,9.26,0,0,1,9.535,9.273,9.475,9.475,0,0,1-9.477,9.54ZM5.292,19.932a5.451,5.451,0,0,0-1.6,3.986,5.7,5.7,0,0,0,5.58,5.843,5.946,5.946,0,0,0,5.843-5.843,5.7,5.7,0,0,0-5.843-5.581l-.129,0A5.453,5.453,0,0,0,5.292,19.932Z" transform="translate(21.912 -11.481)"/><path d="M62.146,71.833a1.839,1.839,0,0,1-1.868,1.829H47.447A5.685,5.685,0,0,0,52.809,77.5a7.35,7.35,0,0,0,4.168-1.2,1.775,1.775,0,0,1,2.448.852,1.968,1.968,0,0,1-.9,2.478,9.079,9.079,0,0,1-5.719,1.6,9.337,9.337,0,0,1,0-18.674,9.166,9.166,0,0,1,9.337,9.332m-14.7-1.858H58.2a5.43,5.43,0,0,0-5.387-3.8,5.7,5.7,0,0,0-5.362,3.8" transform="translate(45.32 -58.986)"/><path d="M14.552,7.062A4.952,4.952,0,0,0,13.162,5.1,6.536,6.536,0,0,0,10.077,3.75a5.075,5.075,0,0,0-6.013,4.8A5.832,5.832,0,0,0,8.9,14.991a8.8,8.8,0,0,0,2.287-.179,7.278,7.278,0,0,0,1.687-.637c1.658-.835,3.046,1.255,2.4,2.421s-3.392,2.036-4.827,2.073c-.573.049-1.636.015-1.636.015a9.48,9.48,0,0,1-2.587-.646,9.189,9.189,0,0,1-6.112-7.3A9.246,9.246,0,0,1,7.424.181a10.291,10.291,0,0,1,5.843.614c2.11.922,4,3.017,4.315,4.118A1.9,1.9,0,0,1,14.552,7.062Z" transform="translate(0 3.661) rotate(-7)"/><path d="M14.552,7.062A4.952,4.952,0,0,0,13.162,5.1,6.536,6.536,0,0,0,10.077,3.75a5.075,5.075,0,0,0-6.013,4.8A5.832,5.832,0,0,0,8.9,14.991a8.8,8.8,0,0,0,2.287-.179,7.278,7.278,0,0,0,1.687-.637c1.658-.835,3.046,1.255,2.4,2.421s-3.392,2.036-4.827,2.073c-.573.049-1.636.015-1.636.015a9.48,9.48,0,0,1-2.587-.646,9.189,9.189,0,0,1-6.112-7.3A9.246,9.246,0,0,1,7.424.181a10.291,10.291,0,0,1,5.843.614c2.11.922,4,3.017,4.315,4.118A1.9,1.9,0,0,1,14.552,7.062Z" transform="translate(109.147 3.661) rotate(-7)"/><path class="f" d="M121.963,45.042a1.5,1.5,0,0,1-1.5,1.5H118.33v10.6a1.489,1.489,0,1,1-2.973,0v-10.6h-2.164a1.5,1.5,0,0,1-1.473-1.5,1.473,1.473,0,0,1,1.473-1.469h2.172v-6a1.489,1.489,0,0,1,2.973,0v6h2.132a1.477,1.477,0,0,1,1.493,1.469Z" transform="translate(19.345 -36.158)"/></g></g></g></svg>