<svg xmlns="http://www.w3.org/2000/svg" width="56.99" height="56.976" viewBox="0 0 56.99 56.976"><defs><style>.a{fill:#88b337;}.b{fill:#6b962a;}.c{fill:#fdb62f;}.d{fill:#fec9a3;}.e{fill:#f7bb8f;}.f{fill:#c91c24;}.g{fill:#950007;}.h{fill:#d9d9d9;}</style></defs><g transform="translate(0 -0.063)"><g transform="translate(9.823 0.063)"><path class="a" d="M125.582,91.97a2.309,2.309,0,0,0-.344-1.218l-2.191-3.527a3.862,3.862,0,0,1-.413-1.749V74.612a12.77,12.77,0,0,0-12.771-12.771h-5.894A12.77,12.77,0,0,0,91.2,74.612V85.476a3.859,3.859,0,0,1-.413,1.749L88.6,90.752a2.309,2.309,0,0,0-.344,1.218h0a2.3,2.3,0,0,0,2.289,2.289h32.752A2.3,2.3,0,0,0,125.582,91.97Z" transform="translate(-88.253 -54.965)"/><path class="a" d="M196.141,6.939,201.053.063H185.335l4.912,6.876V8.9h5.894Z" transform="translate(-174.529 -0.063)"/></g><path class="b" d="M214.416,129.967l-2.191-3.527a3.862,3.862,0,0,1-.413-1.749V113.827a12.767,12.767,0,0,0-2.682-7.859c-2.623,14.45-11.857,22.781-20.531,27.506h23.871a2.3,2.3,0,0,0,1.965-3.507Z" transform="translate(-167.607 -94.117)"/><g transform="translate(0 2.028)"><path class="c" d="M401.074,25.572h0a4.774,4.774,0,0,0-3.929-3.929h0a4.774,4.774,0,0,0,3.929-3.929h0A4.774,4.774,0,0,0,405,21.642h0A4.774,4.774,0,0,0,401.074,25.572Z" transform="translate(-352.939 -17.713)"/><path class="c" d="M3.929,202.082h0A4.774,4.774,0,0,0,0,198.152H0a4.774,4.774,0,0,0,3.929-3.929h0a4.774,4.774,0,0,0,3.929,3.929h0A4.774,4.774,0,0,0,3.929,202.082Z" transform="translate(0 -174.576)"/></g><path class="d" d="M95.769,269.63a2.947,2.947,0,0,0-3.929-1.09L77.9,274.492a1.972,1.972,0,0,1-.776.157H59.845a1.965,1.965,0,1,1,0-3.929H67.7a5.894,5.894,0,0,0,5.894-5.894H57.251a8.932,8.932,0,0,0-6.965,3.35l-6.159,7.456,6.935,12.712,26.69-6.415a14.174,14.174,0,0,0,3.32-1.218l13.753-7.043A2.946,2.946,0,0,0,95.769,269.63Z" transform="translate(-39.215 -235.293)"/><path class="e" d="M86.578,380.61l2.21,4.047,26.69-6.415a14.176,14.176,0,0,0,3.32-1.218l7.436-3.821C113.877,376.985,97.472,379.343,86.578,380.61Z" transform="translate(-76.941 -331.606)"/><path class="f" d="M0,329.552v17.682H12.771l2.947-2.947L3.929,326.605Z" transform="translate(0 -290.195)"/><path class="g" d="M0,462.528H12.771l2.947-2.947-2.161-3.242A69.475,69.475,0,0,1,0,460.376Z" transform="translate(0 -405.489)"/><circle class="h" cx="1.965" cy="1.965" r="1.965" transform="translate(6.876 50.166)"/></g></svg>