<svg xmlns="http://www.w3.org/2000/svg" width="72" height="72" viewBox="0 0 72 72"><defs><style>.a{fill:rgba(255,255,255,0);}.b{fill:#c91c24;}.c{fill:#950007;}.d{fill:#fff;}.e{fill:#bdfdff;}.f{fill:#e1e3fa;}.g{fill:#3e3d42;}.h{fill:#2d2d30;}.i{fill:#1d1d1f;}.j{fill:#ffc477;}.k{fill:#ffb655;}.l{fill:#ffdaaa;}.m{fill:#f072ae;}.n{fill:#ed539d;}</style></defs><g transform="translate(-126 -33)"><rect class="a" width="72" height="72" transform="translate(126 33)"/><g transform="translate(134 41.175)"><circle class="b" cx="28.5" cy="28.5" r="28.5" transform="translate(0 -0.175)"/><path class="c" d="M125.963,141.151l-10.687-10.687a8.878,8.878,0,0,0-8.8-2.817l-3.862-3.862,0,0h-24.7v23.163L97.831,166.87A28.414,28.414,0,0,0,125.963,141.151Z" transform="translate(-69.266 -110.046)"/><path class="d" d="M77.913,123.826v23.163H90.266l6.177,6.177v-6.177h6.177V123.826Z" transform="translate(-69.266 -110.083)"/><path class="e" d="M189.217,123.826v23.163l6.177,6.177v-6.177h6.177V123.826Z" transform="translate(-168.216 -110.083)"/><g transform="translate(16.368 16.831)"><path class="c" d="M153.655,215.025V207.3h-3.088v7.721h-3.088v3.088h9.265v-3.088Z" transform="translate(-147.478 -201.127)"/><circle class="c" cx="2.316" cy="2.316" r="2.316" transform="translate(2.316)"/></g><path class="d" d="M304.386,324.212h-14.2v-.887a7.1,7.1,0,0,1,7.1-7.1h0a7.1,7.1,0,0,1,7.1,7.1v.887Z" transform="translate(-257.983 -281.13)"/><path class="f" d="M355.92,316.226h-1.775v7.985h7.1v-2.662A5.323,5.323,0,0,0,355.92,316.226Z" transform="translate(-314.839 -281.129)"/><path d="M341.705,317.1h-3.549l1.775-8.873Z" transform="translate(-300.625 -274.022)"/><path d="M339.931,318.888l1.775-2.662h-3.549Z" transform="translate(-300.625 -281.129)"/><path class="g" d="M290.19,322.117v2.662h7.1l-2.638-7.914A5.324,5.324,0,0,0,290.19,322.117Z" transform="translate(-257.983 -281.696)"/><path class="h" d="M356.783,316.863l-2.638,7.915h7.1v-2.662A5.324,5.324,0,0,0,356.783,316.863Z" transform="translate(-314.839 -281.695)"/><path class="i" d="M275.967,156.341h0a8.835,8.835,0,0,0-3.959.931,2.66,2.66,0,0,0-3.139,2.618l-.027.036a3.105,3.105,0,0,0-1.747,5.243c0,.015,0,.03,0,.045v3.549h17.745v-3.549A8.872,8.872,0,0,0,275.967,156.341Z" transform="translate(-236.661 -138.989)"/><path d="M354.145,156.341h0v12.422h8.873v-3.549A8.872,8.872,0,0,0,354.145,156.341Z" transform="translate(-314.839 -138.989)"/><path class="j" d="M277.75,255.82h-1.775a1.78,1.78,0,0,1-1.775-1.775h0a1.78,1.78,0,0,1,1.775-1.775h1.775Z" transform="translate(-243.768 -224.272)"/><path class="k" d="M402.11,255.82h1.775a1.78,1.78,0,0,0,1.775-1.775h0a1.78,1.78,0,0,0-1.775-1.775H402.11Z" transform="translate(-357.481 -224.272)"/><path class="l" d="M293.125,222a10.134,10.134,0,0,1-.8-.666,15.774,15.774,0,0,1-8.592,2.547h-1.489a8.075,8.075,0,0,0-.049.887,7.985,7.985,0,1,0,15.971,0,8.073,8.073,0,0,0-.05-.895A9.065,9.065,0,0,1,293.125,222Z" transform="translate(-250.876 -196.765)"/><path class="j" d="M362.078,223.87A9.065,9.065,0,0,1,357.087,222a10.134,10.134,0,0,1-.8-.666,15.768,15.768,0,0,1-2.145,1.167V232.75a7.987,7.987,0,0,0,7.935-8.88Z" transform="translate(-314.838 -196.766)"/><circle cx="1.146" cy="1.146" r="1.146" transform="translate(33.982 27.999)"/><circle cx="1.146" cy="1.146" r="1.146" transform="translate(42.337 27.999)"/><path class="m" d="M332.825,286.911a2.662,2.662,0,0,0,2.662-2.662h-5.324A2.662,2.662,0,0,0,332.825,286.911Z" transform="translate(-293.519 -252.701)"/><path class="n" d="M354.145,284.249v2.662a2.662,2.662,0,0,0,2.662-2.662Z" transform="translate(-314.839 -252.701)"/></g></g></svg>