<svg xmlns="http://www.w3.org/2000/svg" width="27.984" height="36" viewBox="0 0 27.984 36"><defs><style>.a{fill:#3643d9;}</style></defs><g transform="translate(-57)"><g transform="translate(57 0)"><path class="a" d="M145.868,45.84h-10a.528.528,0,1,0,0,1.055h10a.528.528,0,0,0,0-1.055Z" transform="translate(-129.833 -42.615)"/><path class="a" d="M145.868,91.668h-10a.528.528,0,1,0,0,1.055h10a.528.528,0,0,0,0-1.055Z" transform="translate(-129.833 -85.223)"/><path class="a" d="M115.916,384.24h-2.54a.528.528,0,1,0,0,1.055h2.54a.528.528,0,1,0,0-1.055Z" transform="translate(-108.92 -357.224)"/><path class="a" d="M191.434,384.24h-2.54a.528.528,0,1,0,0,1.055h2.54a.528.528,0,1,0,0-1.055Z" transform="translate(-179.131 -357.224)"/><path class="a" d="M266.951,384.24h-2.54a.528.528,0,1,0,0,1.055h2.54a.528.528,0,0,0,0-1.055Z" transform="translate(-249.338 -357.224)"/><path class="a" d="M115.916,417.987h-2.54a.528.528,0,1,0,0,1.055h2.54a.528.528,0,1,0,0-1.055Z" transform="translate(-108.92 -388.601)"/><path class="a" d="M191.434,417.987h-2.54a.528.528,0,1,0,0,1.055h2.54a.528.528,0,1,0,0-1.055Z" transform="translate(-179.131 -388.601)"/><path class="a" d="M266.951,417.987h-2.54a.528.528,0,1,0,0,1.055h2.54a.528.528,0,0,0,0-1.055Z" transform="translate(-249.338 -388.601)"/><path class="a" d="M115.916,451.734h-2.54a.528.528,0,1,0,0,1.055h2.54a.528.528,0,1,0,0-1.055Z" transform="translate(-108.92 -419.974)"/><path class="a" d="M191.434,451.734h-2.54a.528.528,0,1,0,0,1.055h2.54a.528.528,0,1,0,0-1.055Z" transform="translate(-179.131 -419.974)"/><path class="a" d="M266.951,451.734h-2.54a.528.528,0,1,0,0,1.055h2.54a.528.528,0,1,0,0-1.055Z" transform="translate(-249.338 -419.974)"/><path class="a" d="M114.014,182.7a1.1,1.1,0,0,0-1.1-1.1H98.754a1.1,1.1,0,0,0-1.1,1.1v1.518a.528.528,0,1,0,1.055,0V182.7a.044.044,0,0,1,.044-.044h14.16a.044.044,0,0,1,.044.044v5.5a.044.044,0,0,1-.044.044H98.754a.044.044,0,0,1-.044-.044v-1.52a.528.528,0,0,0-1.055,0v1.52a1.1,1.1,0,0,0,1.1,1.1h14.16a1.1,1.1,0,0,0,1.1-1.1v-5.5Z" transform="translate(-94.795 -168.829)"/><path class="a" d="M104.89,310.139a1.055,1.055,0,0,0-1.054-1.054h-2.588a1.053,1.053,0,0,0-1.025,1.3l.344,1.445a1.05,1.05,0,0,0,1.025.809h2.243a1.055,1.055,0,0,0,1.054-1.054Zm-3.3,1.444-.346-1.443,2.586,0,0,1.443Z" transform="translate(-97.156 -287.354)"/><path class="a" d="M184.39,311.582v-1.445a1.055,1.055,0,0,0-1.053-1.054h-2.728a1.055,1.055,0,0,0-1.054,1.054v1.445a1.055,1.055,0,0,0,1.054,1.054h2.728A1.055,1.055,0,0,0,184.39,311.582Zm-3.78,0,0-1.443,2.726,0,0,1.443Z" transform="translate(-170.939 -287.353)"/><path class="a" d="M265.222,311.828l.345-1.445a1.053,1.053,0,0,0-1.025-1.3h-2.588a1.055,1.055,0,0,0-1.054,1.054v1.445a1.055,1.055,0,0,0,1.054,1.054H264.2A1.05,1.05,0,0,0,265.222,311.828Zm-1.025-.246-2.242,0,0-1.443,2.586,0Z" transform="translate(-246.565 -287.354)"/><path class="a" d="M83.539,5.036H80.681V2.6c0-.006,0-.012,0-.018A2.668,2.668,0,0,0,78,0h-15.5a2.825,2.825,0,0,0-2.822,2.822V7.33A3.169,3.169,0,0,0,57,10.459V17.5c0,3.957.7,5.02.7,8.88v6.945A2.682,2.682,0,0,0,60.376,36H75.69a2.682,2.682,0,0,0,2.679-2.679V31.159a.527.527,0,1,0-1.055,0v2.162a1.626,1.626,0,0,1-1.624,1.624H60.377a1.626,1.626,0,0,1-1.624-1.624V26.376c0-3.94-.7-5.035-.7-8.88V10.459A2.113,2.113,0,0,1,59.687,8.4V9.753a1.375,1.375,0,0,0,1.373,1.373H75.006A1.375,1.375,0,0,0,76.38,9.753V8.4a2.113,2.113,0,0,1,1.632,2.055V17.5c0,3.845-.7,4.937-.7,8.879v2.275a.527.527,0,1,0,1.055,0V26.376c0-3.839.7-4.945.7-8.879V12.723h3.239a2.685,2.685,0,0,0,2.679-2.679V6.481a1.447,1.447,0,0,0-1.445-1.445ZM75.325,9.753a.319.319,0,0,1-.319.319H61.06a.319.319,0,0,1-.319-.319V2.822a1.769,1.769,0,0,1,1.767-1.767H75.875a2.665,2.665,0,0,0-.55,1.624Zm3.742,1.916v-1.21a3.169,3.169,0,0,0-2.687-3.128V2.679a1.624,1.624,0,0,1,3.247-.065v7.43a2.666,2.666,0,0,0,.55,1.624Zm4.863-1.624a1.624,1.624,0,0,1-3.249,0V6.09h2.858a.391.391,0,0,1,.39.39Z" transform="translate(-57 0)"/></g></g></svg>