<svg xmlns="http://www.w3.org/2000/svg" xmlns:xlink="http://www.w3.org/1999/xlink" width="800" height="840" viewBox="0 0 800 840"><defs><filter id="a" x="89" y="91" width="329" height="352" filterUnits="userSpaceOnUse"><feOffset dy="3" input="SourceAlpha"/><feGaussianBlur stdDeviation="6" result="b"/><feFlood flood-opacity="0.161"/><feComposite operator="in" in2="b"/><feComposite in="SourceGraphic"/></filter><filter id="c" x="378" y="414" width="330" height="351" filterUnits="userSpaceOnUse"><feOffset dy="3" input="SourceAlpha"/><feGaussianBlur stdDeviation="6" result="d"/><feFlood flood-opacity="0.161"/><feComposite operator="in" in2="d"/><feComposite in="SourceGraphic"/></filter><filter id="e" x="382" y="91" width="330" height="352" filterUnits="userSpaceOnUse"><feOffset dy="3" input="SourceAlpha"/><feGaussianBlur stdDeviation="6" result="f"/><feFlood flood-opacity="0.161"/><feComposite operator="in" in2="f"/><feComposite in="SourceGraphic"/></filter><filter id="g" x="89" y="414" width="329" height="351" filterUnits="userSpaceOnUse"><feOffset dy="3" input="SourceAlpha"/><feGaussianBlur stdDeviation="6" result="h"/><feFlood flood-opacity="0.161"/><feComposite operator="in" in2="h"/><feComposite in="SourceGraphic"/></filter></defs><g transform="translate(-1022 -115)"><circle cx="100" cy="100" r="100" transform="translate(1565 755)" fill="#c91c24" opacity="0.55"/><circle cx="100" cy="100" r="100" transform="translate(1040 115)" fill="#f2e0e0" opacity="0.55"/><g transform="translate(-2673 -1696)" opacity="0.57"><circle cx="400" cy="400" r="400" transform="translate(3695 1836)" fill="#f2e0e0"/><circle cx="350" cy="350" r="350" transform="translate(3745 1886)" fill="#f1bdbd"/><circle cx="300" cy="300" r="300" transform="translate(3795 1936)" fill="#e47777"/><circle cx="250" cy="250" r="250" transform="translate(3845 1986)" fill="#c91c24"/><circle cx="200" cy="200" r="200" transform="translate(3895 2036)" fill="#950007"/></g><g transform="translate(8864 19986)"><g transform="translate(-7735 -19765)"><g transform="matrix(1, 0, 0, 1, -107, -106)" filter="url(#a)"><rect width="293" height="316" rx="24" transform="translate(107 106)" fill="#fff"/></g><g transform="translate(39.953 74.367)"><text transform="translate(0.047 158.633)" fill="#1a1a1a" font-size="31" font-family="Montserrat-Bold, Montserrat" font-weight="700" letter-spacing="0.02em"><tspan x="0" y="0">Bill Payment</tspan></text><g transform="translate(52.972 0)"><rect width="109" height="113" transform="translate(0.075 -0.367)" fill="rgba(255,255,255,0)"/><g transform="translate(7.069 8.312)"><path d="M47.47,0A47.47,47.47,0,1,1,0,47.47,47.47,47.47,0,0,1,47.47,0Z" transform="translate(0)" fill="#950007"/><path d="M199.361,3.7V36.1H163.9V3.168a47.633,47.633,0,0,1,35.485.531Z" transform="translate(-133.508 0)" fill="#e4e7ed"/><path d="M279.25,139.578H261.973C262.526,123.162,278.7,122.519,279.25,139.578Z" transform="translate(-213.398 -103.47)" fill="#c6cbd6"/><path d="M76.927,126.148h32.516c-4.275,0-7.841,4.828-8.528,11.141v41.176l-3.477-5.051-3.7,5.382-3.7-5.382-3.7,5.382-3.7-5.382-3.7,5.382-3.7-5.382-3.7,5.382-3.7-5.382-3.7,5.382V139a12.87,12.87,0,0,1,12.847-12.847Z" transform="translate(-52.252 -102.758)" fill="#fff"/><path d="M283.237,235.692h34.842v41.642H283.237Z" transform="translate(-230.72 -191.99)" fill="#5d718f"/><g transform="translate(55.774 57.302)"><path d="M301.683,309.04h3.589a.889.889,0,0,1,.886.886v3.589a.889.889,0,0,1-.886.886h-3.589a.889.889,0,0,1-.886-.886v-3.589A.889.889,0,0,1,301.683,309.04Z" transform="translate(-300.797 -309.04)" fill="#fff"/><path d="M339.193,309.04h3.588a.889.889,0,0,1,.886.886v3.589a.889.889,0,0,1-.886.886h-3.588a.889.889,0,0,1-.886-.886v-3.589A.889.889,0,0,1,339.193,309.04Z" transform="translate(-331.352 -309.04)" fill="#fff"/></g><path d="M376.7,309.04h3.589a.889.889,0,0,1,.886.886v3.589a.889.889,0,0,1-.886.886H376.7a.889.889,0,0,1-.886-.886v-3.589A.889.889,0,0,1,376.7,309.04Z" transform="translate(-306.133 -251.738)" fill="#83cf8f"/><path d="M414.213,309.04H417.8a.889.889,0,0,1,.886.886v3.589a.889.889,0,0,1-.886.886h-3.589a.889.889,0,0,1-.886-.886v-3.589A.889.889,0,0,1,414.213,309.04Z" transform="translate(-336.688 -251.738)" fill="#ffe356"/><g transform="translate(55.774 64.102)"><path d="M301.683,345.714h3.589a.889.889,0,0,1,.886.886v3.589a.889.889,0,0,1-.886.886h-3.589a.889.889,0,0,1-.886-.886V346.6A.889.889,0,0,1,301.683,345.714Z" transform="translate(-300.797 -345.714)" fill="#fff"/><path d="M339.193,345.714h3.588a.889.889,0,0,1,.886.886v3.589a.889.889,0,0,1-.886.886h-3.588a.889.889,0,0,1-.886-.886V346.6A.889.889,0,0,1,339.193,345.714Z" transform="translate(-331.352 -345.714)" fill="#fff"/><path d="M376.7,345.714h3.589a.889.889,0,0,1,.886.886v3.589a.889.889,0,0,1-.886.886H376.7a.889.889,0,0,1-.886-.886V346.6A.889.889,0,0,1,376.7,345.714Z" transform="translate(-361.907 -345.714)" fill="#fff"/><path d="M414.213,345.714H417.8a.889.889,0,0,1,.886.886v3.589a.889.889,0,0,1-.886.886h-3.589a.889.889,0,0,1-.886-.886V346.6A.889.889,0,0,1,414.213,345.714Z" transform="translate(-392.462 -345.714)" fill="#fff"/><path d="M301.683,382.507h3.589a.889.889,0,0,1,.886.886v3.588a.889.889,0,0,1-.886.886h-3.589a.889.889,0,0,1-.886-.886v-3.588A.889.889,0,0,1,301.683,382.507Z" transform="translate(-300.797 -375.685)" fill="#fff"/><path d="M339.193,382.507h3.588a.889.889,0,0,1,.886.886v3.588a.889.889,0,0,1-.886.886h-3.588a.889.889,0,0,1-.886-.886v-3.588A.889.889,0,0,1,339.193,382.507Z" transform="translate(-331.352 -375.685)" fill="#fff"/><path d="M376.7,382.507h3.589a.889.889,0,0,1,.886.886v3.588a.889.889,0,0,1-.886.886H376.7a.889.889,0,0,1-.886-.886v-3.588A.889.889,0,0,1,376.7,382.507Z" transform="translate(-361.907 -375.685)" fill="#fff"/><path d="M414.213,382.507H417.8a.889.889,0,0,1,.886.886v3.588a.889.889,0,0,1-.886.886h-3.589a.889.889,0,0,1-.886-.886v-3.588A.889.889,0,0,1,414.213,382.507Z" transform="translate(-392.462 -375.685)" fill="#fff"/><path d="M301.683,419.181h3.589a.889.889,0,0,1,.886.886v3.589a.889.889,0,0,1-.886.886h-3.589a.889.889,0,0,1-.886-.886v-3.589A.889.889,0,0,1,301.683,419.181Z" transform="translate(-300.797 -405.558)" fill="#fff"/><path d="M339.193,419.181h3.588a.889.889,0,0,1,.886.886v3.589a.889.889,0,0,1-.886.886h-3.588a.889.889,0,0,1-.886-.886v-3.589A.889.889,0,0,1,339.193,419.181Z" transform="translate(-331.352 -405.558)" fill="#fff"/><path d="M376.7,419.181h3.589a.889.889,0,0,1,.886.886v3.589a.889.889,0,0,1-.886.886H376.7a.889.889,0,0,1-.886-.886v-3.589A.889.889,0,0,1,376.7,419.181Z" transform="translate(-361.907 -405.558)" fill="#fff"/><path d="M414.213,419.181H417.8a.889.889,0,0,1,.886.886v3.589a.889.889,0,0,1-.886.886h-3.589a.889.889,0,0,1-.886-.886v-3.589A.889.889,0,0,1,414.213,419.181Z" transform="translate(-392.462 -405.558)" fill="#fff"/></g><path d="M296.019,247.518h30.1v6.667h-30.1Z" transform="translate(-241.131 -201.623)" fill="#ecf0f1"/><path d="M434.049,251.819a1.744,1.744,0,0,1,1.218.51h0a1.745,1.745,0,0,1,.51,1.218v1.262a1.723,1.723,0,0,1-2.947,1.218h0a1.745,1.745,0,0,1-.51-1.218v-1.262a1.7,1.7,0,0,1,.51-1.218A1.746,1.746,0,0,1,434.049,251.819Zm.775.952a1.128,1.128,0,0,0-.775-.332,1.087,1.087,0,0,0-.775.332,1.128,1.128,0,0,0-.332.775v1.262a1.087,1.087,0,0,0,.332.775,1.127,1.127,0,0,0,.775.332,1.087,1.087,0,0,0,.775-.332,1.128,1.128,0,0,0,.332-.775v-1.262a1.087,1.087,0,0,0-.332-.775Z" transform="translate(-352.16 -205.127)" fill="#807e7e"/><path d="M118.145,173.454H134.38v1.506H118.145Z" transform="translate(-96.239 -141.292)" fill="#83cf8f"/><g transform="translate(26.624 36.105)"><path d="M143.589,194.718h18.185v1.506H143.589Z" transform="translate(-143.589 -194.718)" fill="#c6cbd6"/><path d="M143.589,224.941h18.185v1.484H143.589Z" transform="translate(-143.589 -219.337)" fill="#c6cbd6"/><path d="M143.589,255.044h18.185v1.506H143.589Z" transform="translate(-143.589 -243.858)" fill="#c6cbd6"/><path d="M143.589,285.267h18.185v1.484H143.589Z" transform="translate(-143.589 -268.477)" fill="#c6cbd6"/></g><path d="M143.589,315.371h9.1v1.506h-9.1Z" transform="translate(-116.965 -256.895)" fill="#ff7069"/><path d="M72.153,347.864h1.573v1.573H72.153Zm31.608,0h1.573v1.573h-1.573Zm-3.522,0h1.573v1.573H100.24Zm-3.522,0h1.573v1.573H96.717Zm-3.522,0H94.77v1.573H93.2Zm-3.521,0h1.573v1.573H89.674Zm-3.522,0h1.571v1.573H86.152Zm-3.522,0h1.574v1.573H82.63Zm-3.521,0h1.573v1.573H79.108Zm-3.521,0h1.573v1.573H75.587Z" transform="translate(-58.774 -283.364)" fill="#c6cbd6"/><path d="M84.881,199.223a4.066,4.066,0,0,1,.576-2.259,2.573,2.573,0,0,1,1.7-1.107v-1.018h1.772v1.018a2.727,2.727,0,0,1,1.749,1.086,4.092,4.092,0,0,1,.576,2.282v.443H89.2v-.576a1.528,1.528,0,0,0-.284-1.063,1.181,1.181,0,0,0-1.6,0,1.491,1.491,0,0,0-.284,1.063,2.364,2.364,0,0,0,.31,1.218,3.972,3.972,0,0,0,.8.952c.31.284.642.576,1.018.864a8.237,8.237,0,0,1,1.018.952,5.419,5.419,0,0,1,.8,1.241,4.23,4.23,0,0,1,.31,1.683,3.919,3.919,0,0,1-.6,2.282,2.668,2.668,0,0,1-1.749,1.107v1H87.165v-1a2.664,2.664,0,0,1-1.772-1.107A4.144,4.144,0,0,1,84.817,206v-.952h2.06v1.086a1.424,1.424,0,0,0,.31,1.04,1.09,1.09,0,0,0,.82.284,1.124,1.124,0,0,0,.82-.284,1.46,1.46,0,0,0,.31-1.04,2.364,2.364,0,0,0-.31-1.218,3.966,3.966,0,0,0-.8-.952c-.31-.284-.662-.576-1.018-.864a8.232,8.232,0,0,1-1.018-.952,5.418,5.418,0,0,1-.8-1.241,3.878,3.878,0,0,1-.314-1.684Z" transform="translate(-69.088 -158.71)" fill="#950007"/></g></g></g></g><g transform="translate(-7445.796 -19441.711)"><g transform="matrix(1, 0, 0, 1, -396.2, -429.29)" filter="url(#c)"><rect width="294" height="315" rx="24" transform="translate(396 429)" fill="#fff"/></g><g transform="translate(91.925 75.399)"><text transform="translate(13.871 156.311)" fill="#1a1a1a" font-size="32" font-family="Montserrat-Bold, Montserrat" font-weight="700" letter-spacing="0.02em"><tspan x="0" y="0">Loan</tspan></text><g transform="translate(0 0)"><rect width="111" height="109" transform="translate(-0.129 0.311)" fill="rgba(255,255,255,0)"/><g transform="translate(7.96 12.683)"><path d="M205.332,67.563l-42.711,42.709a1.059,1.059,0,0,1-1.5,0l-23.91-23.911a1.059,1.059,0,0,1,0-1.5l42.713-42.71a1.059,1.059,0,0,1,1.5,0l23.911,23.911a1.059,1.059,0,0,1,0,1.5Z" transform="translate(-111.31 -40.457)" fill="#5cc45c"/><path d="M282.658,143.389l-6.441-6.441-44.208,44.208,6.441,6.441a1.059,1.059,0,0,0,1.5,0l42.71-42.71a1.06,1.06,0,0,0,0-1.5Z" transform="translate(-188.635 -117.782)" fill="#4ead4e"/><path d="M187.337,129.329a5.852,5.852,0,0,0,0-5.546.592.592,0,0,1,.095-.7l30.708-30.708a.592.592,0,0,1,.7-.095,5.851,5.851,0,0,0,5.546,0,.592.592,0,0,1,.7.095L237,104.281a.592.592,0,0,1,.095.7,5.85,5.85,0,0,0,0,5.546.592.592,0,0,1-.095.7L206.294,141.94a.592.592,0,0,1-.7.095,5.851,5.851,0,0,0-5.546,0,.592.592,0,0,1-.7-.095l-11.909-11.909A.592.592,0,0,1,187.337,129.329Z" transform="translate(-152.254 -81.401)" fill="#a0e557"/><path d="M259.812,133.246a5.85,5.85,0,0,1,0-5.546.592.592,0,0,0-.095-.7l-6.858-6.858a5.844,5.844,0,0,0,0,6.307L221.507,157.8a5.845,5.845,0,0,0-6.307,0l6.858,6.858a.592.592,0,0,0,.7.095,5.85,5.85,0,0,1,5.546,0,.592.592,0,0,0,.7-.095l30.708-30.708A.593.593,0,0,0,259.812,133.246Z" transform="translate(-174.966 -104.113)" fill="#93cc4a"/><circle cx="8.71" cy="8.71" r="8.71" transform="translate(47.644 35.756) rotate(-45)" fill="#f3e8d7"/><path d="M79.062,171.981l13.144-13.144c1.513-1.513,2.159-3.326.644-4.841-2.39-2.964-11.1-.583-15.232,3.55l-5.534,5.535a3.278,3.278,0,0,1-2.324.959h-.045a4.161,4.161,0,0,1-3.522-2.8V149.092l2.168-2.168,2.383-2.383,9.463-9.463c-3.893-.436-7.765-.672-9.267-.851a5.763,5.763,0,0,0-4.389,1.62L54.437,145.4a10.821,10.821,0,0,0-3.532,5.459c-1.324,4.791-4.108,13.264-5.876,16.634L36.2,176.328l15.291,15.291,4.255-4.255a6.7,6.7,0,0,1,2.874-1.7l8.881-2.991a15.385,15.385,0,0,0,7.076-5.012Z" transform="translate(-29.427 -115.542)" fill="#fcd7c3"/><path d="M109.983,258.046l4.5-5.685,13.144-13.144c1.513-1.513,2.159-3.326.644-4.841-.878-1.089-2.61-1.457-4.655-1.281a12.793,12.793,0,0,0-7.914,3.753l-8.363,8.363-4.5,5.685a15.384,15.384,0,0,1-7.076,5.012L86.881,258.9a6.7,6.7,0,0,0-2.874,1.7l-4.255,4.255L86.9,272l4.255-4.255a6.7,6.7,0,0,1,2.874-1.7l8.881-2.991a15.387,15.387,0,0,0,7.074-5.008Z" transform="translate(-64.843 -195.921)" fill="#ffcdac"/><path d="M25.607,364.548l-17.7-17.7a1.679,1.679,0,0,1,0-2.375l3.114-3.114a1.679,1.679,0,0,1,2.375,0l17.7,17.693a1.679,1.679,0,0,1,0,2.375l-3.114,3.114A1.679,1.679,0,0,1,25.607,364.548Z" transform="translate(-6.031 -283.579)" fill="#c91c24"/><path d="M84.1,412.055l-6-6-5.489,5.489,6,6a1.68,1.68,0,0,0,2.375,0L84.1,414.43a1.679,1.679,0,0,0,0-2.375Z" transform="translate(-59.032 -336.579)" fill="#950007"/><path d="M293.984,258.148a4.466,4.466,0,0,0-6.316,0l-1.986,1.986a2.3,2.3,0,0,0,0,3.251l2,2,6.768-6.768Z" transform="translate(-231.728 -215.259)" fill="#efefef"/><path d="M95,59.053l-23.91-23.91a2.446,2.446,0,0,0-3.459,0L54.484,48.292a1.387,1.387,0,1,0,1.961,1.961l12.918-12.92L92.815,60.784,50.565,103.03l-4.923-4.923c.2-.227.4-.458.585-.7l.756-.956a1.979,1.979,0,0,0,1.468-.172,4.491,4.491,0,0,1,4.227,0,2,2,0,0,0,.951.243,1.96,1.96,0,0,0,1.391-.58l3.215-3.215a1.387,1.387,0,0,0-1.961-1.961l-2.813,2.813a7.187,7.187,0,0,0-3.77-.555l.98-1.239,6.26-6.26h0l5.579-5.579a10.1,10.1,0,1,0-12.216-6.873,16.346,16.346,0,0,0-3.087,2.372l-5.534,5.536a1.885,1.885,0,0,1-1.344.552h-.046A2.843,2.843,0,0,1,38.148,79.9V75.1L66.465,46.783a7.187,7.187,0,0,0,5.8,0l11.1,11.1a7.187,7.187,0,0,0,0,5.8L60.914,86.133a1.387,1.387,0,0,0,1.961,1.961L85.729,65.238a1.968,1.968,0,0,0,.336-2.341,4.491,4.491,0,0,1,0-4.227,1.966,1.966,0,0,0-.336-2.343L73.82,44.418a1.968,1.968,0,0,0-2.342-.337,4.49,4.49,0,0,1-4.227,0,1.969,1.969,0,0,0-2.342.336L38.147,71.178V68.551L51.755,54.943a1.386,1.386,0,0,0-.826-2.358c-2.314-.259-4.59-.446-6.419-.6-1.254-.1-2.245-.184-2.837-.255a7.06,7.06,0,0,0-5.425,1.918L24.144,63.2l-.025.02a12.152,12.152,0,0,0-3.977,6.155c-1.255,4.544-3.965,12.808-5.674,16.175l-5.9,5.9-.22-.22a3.067,3.067,0,0,0-4.336,0L.9,94.343a3.067,3.067,0,0,0,0,4.336l17.7,17.7a3.067,3.067,0,0,0,4.336,0l3.114-3.115a3.066,3.066,0,0,0,0-4.336l-.226-.226,1.47-1.47a5.332,5.332,0,0,1,2.279-1.348l.057-.018,8.889-2.993a16.751,16.751,0,0,0,5.129-2.843l5.192,5.192a2.446,2.446,0,0,0,3.459,0l42.71-42.709a2.446,2.446,0,0,0,0-3.46ZM55.95,82.586,54.941,81.57a.913.913,0,0,1,0-1.291l1.986-1.986a3.086,3.086,0,0,1,3.777-.455ZM54.786,65a7.324,7.324,0,0,1,10.885,9.768,4,4,0,0,0-1.219-2.817,5.656,5.656,0,0,0-4.179-1.766,17.288,17.288,0,0,0-7.453,1.588A7.376,7.376,0,0,1,54.786,65Zm-30.7,46.3-3.115,3.115a.292.292,0,0,1-.414,0l-17.7-17.7a.292.292,0,0,1,0-.414l3.115-3.115a.292.292,0,0,1,.414,0l17.7,17.7a.292.292,0,0,1,0,.414Zm21.538-17.6-1.57,1.986a14.036,14.036,0,0,1-1.314,1.443l-.016.014-.01.011a13.956,13.956,0,0,1-5.09,3.087l-8.855,2.982a8.115,8.115,0,0,0-3.437,2.041l-1.47,1.471L10.527,93.408l6.052-6.052a1.387,1.387,0,0,0,.248-.336c1.814-3.456,4.641-12.041,5.985-16.909a9.391,9.391,0,0,1,3.068-4.75l12.1-9.551.025-.02a4.374,4.374,0,0,1,3.34-1.312c.643.077,1.656.16,2.939.266,1.031.085,2.206.181,3.446.3L35.781,67a1.386,1.386,0,0,0-.406.981h0V80.12a1.383,1.383,0,0,0,.047.357,5.521,5.521,0,0,0,4.861,3.834h.045a4.64,4.64,0,0,0,3.31-1.365l5.534-5.534a14.543,14.543,0,0,1,3.375-2.432l.015-.006a1.377,1.377,0,0,0,.167-.09,15.42,15.42,0,0,1,7.4-1.925,3.067,3.067,0,0,1,2.217.8,1.434,1.434,0,0,0,.1.111,1.211,1.211,0,0,1,.433,1.176,2.34,2.34,0,0,1-.3.724,5.863,5.863,0,0,0-7.615.567l-1.986,1.986a3.688,3.688,0,0,0,0,5.212L54,84.548l-5.338,5.338a1.43,1.43,0,0,0-.107.121L45.628,93.7Z" transform="translate(-0.001 -34.427)"/></g></g></g></g><g transform="translate(-7441.665 -19765)"><g transform="matrix(1, 0, 0, 1, -400.33, -106)" filter="url(#e)"><rect width="294" height="316" rx="24" transform="translate(400 106)" fill="#fff"/></g><g transform="translate(62.709 73.334)"><text transform="translate(-0.044 157.666)" fill="#1a1a1a" font-size="31" font-family="Montserrat-Bold, Montserrat" font-weight="700" letter-spacing="0.02em"><tspan x="0" y="0">Collection</tspan></text><g transform="translate(29.216 0)"><rect width="112" height="111" transform="translate(-0.26 -0.334)" fill="rgba(255,255,255,0)"/><g transform="translate(12.406 11.889)"><g transform="translate(15.237)"><path d="M146.156,108.575a3.582,3.582,0,0,0-.533-1.891l-3.4-5.47a5.991,5.991,0,0,1-.64-2.712V81.65a19.808,19.808,0,0,0-19.814-19.809H112.63A19.808,19.808,0,0,0,92.824,81.648V98.5a5.986,5.986,0,0,1-.64,2.712l-3.4,5.47a3.582,3.582,0,0,0-.533,1.891h0a3.564,3.564,0,0,0,3.55,3.55h50.8A3.564,3.564,0,0,0,146.156,108.575Z" transform="translate(-88.253 -51.174)" fill="#88b337"/><path d="M202.1,10.73,209.715.063h-24.38l7.619,10.667v3.048H202.1Z" transform="translate(-168.574 -0.063)" fill="#88b337"/></g><path d="M228.644,143.193l-3.4-5.47a5.99,5.99,0,0,1-.64-2.712V118.158a19.8,19.8,0,0,0-4.161-12.19c-4.066,22.411-18.391,35.336-31.847,42.666h37.027a3.566,3.566,0,0,0,3.048-5.44Z" transform="translate(-156.037 -87.683)" fill="#6b962a"/><g transform="translate(0 3.043)"><path d="M403.241,29.9h0a7.405,7.405,0,0,0-6.1-6.1h0a7.405,7.405,0,0,0,6.1-6.1h0a7.405,7.405,0,0,0,6.095,6.1h0A7.405,7.405,0,0,0,403.241,29.9Z" transform="translate(-328.576 -17.708)" fill="#fdb62f"/><path d="M6.1,206.413h0A7.405,7.405,0,0,0,0,200.319H0a7.405,7.405,0,0,0,6.1-6.1h0a7.405,7.405,0,0,0,6.1,6.1h0a7.4,7.4,0,0,0-6.1,6.095Z" transform="translate(0 -163.743)" fill="#fdb62f"/></g><path d="M124.231,272.278a4.571,4.571,0,0,0-6.1-1.692L96.514,279.82a3.059,3.059,0,0,1-1.2.244h-26.8a3.047,3.047,0,1,1,0-6.095H80.7a9.142,9.142,0,0,0,9.142-9.142H64.485a13.854,13.854,0,0,0-10.8,5.2L44.13,281.588,54.882,301.3l41.4-9.948a21.981,21.981,0,0,0,5.15-1.891l21.332-10.926A4.569,4.569,0,0,0,124.231,272.278Z" transform="translate(-36.508 -219.114)" fill="#fec9a3"/><path d="M86.578,384.692l3.429,6.278,41.4-9.95a21.992,21.992,0,0,0,5.15-1.891l11.537-5.927C128.923,379.07,103.476,382.726,86.578,384.692Z" transform="translate(-71.63 -308.779)" fill="#f7bb8f"/><path d="M0,331.176V358.6H19.809l4.571-4.571L6.1,326.6Z" transform="translate(0 -270.226)" fill="#c91c24"/><path d="M0,465.939H19.809l4.571-4.571-3.352-5.029A107.774,107.774,0,0,1,0,462.6Z" transform="translate(0 -377.561)" fill="#950007"/><circle cx="3.048" cy="3.048" r="3.048" transform="translate(10.667 77.716)" fill="#d9d9d9"/></g></g></g></g><g transform="translate(-7735 -19441.711)"><g transform="matrix(1, 0, 0, 1, -107, -429.29)" filter="url(#g)"><rect width="293" height="315" rx="24" transform="translate(107 429)" fill="#fff"/></g><g transform="translate(28.493 75.399)"><text transform="translate(-0.493 155.311)" fill="#1a1a1a" font-size="31" font-family="Montserrat-Bold, Montserrat" font-weight="700" letter-spacing="0.02em"><tspan x="0" y="0">Disbursement</tspan></text><g transform="translate(63.432 0)"><rect width="109" height="109" transform="translate(0.075 0.311)" fill="rgba(255,255,255,0)"/><g transform="translate(6.499 9.341)"><g transform="translate(23.42 4.791)"><path d="M152.474,56a6.388,6.388,0,0,0-4.516,1.87L130.667,75.162V91.13h47.9a9.581,9.581,0,0,0,9.581-9.581h6.388V56Z" transform="translate(-130.667 -56)" fill="#f0915a"/></g><g transform="translate(87.293)"><path d="M460.249,67.13V32h-4.79a4.791,4.791,0,0,0-4.791,4.791V62.339a4.79,4.79,0,0,0,4.791,4.791Z" transform="translate(-450.668 -32)" fill="#c91c24"/></g><g transform="translate(92.083 17.565)"><path d="M474.667,123.193v14.373h4.791V120h-1.6A3.193,3.193,0,0,0,474.667,123.193Z" transform="translate(-474.667 -120)" fill="#930007"/></g><g transform="translate(13.839 12.774)"><path d="M152.927,132.727V99.193A3.193,3.193,0,0,0,149.734,96H85.86a3.193,3.193,0,0,0-3.193,3.193v33.533a3.193,3.193,0,0,0,3.193,3.193h63.873a3.193,3.193,0,0,0,3.193-3.192Z" transform="translate(-82.667 -96)" fill="#78af41"/></g><g transform="translate(18.63 17.565)"><path d="M106.667,143.953V126.388a1.6,1.6,0,0,1,1.6-1.6,3.193,3.193,0,0,0,3.193-3.193,1.6,1.6,0,0,1,1.6-1.6h47.9a1.6,1.6,0,0,1,1.6,1.6,3.193,3.193,0,0,0,3.193,3.193,1.6,1.6,0,0,1,1.6,1.6v17.565a1.6,1.6,0,0,1-1.6,1.6,3.193,3.193,0,0,0-3.193,3.193,1.6,1.6,0,0,1-1.6,1.6h-47.9a1.6,1.6,0,0,1-1.6-1.6,3.193,3.193,0,0,0-3.193-3.193,1.6,1.6,0,0,1-1.6-1.6Z" transform="translate(-106.667 -120)" fill="#466932"/></g><g transform="translate(36.993 20.758)"><circle cx="11.976" cy="11.976" r="11.976" transform="translate(0 0)" fill="#78af41"/></g><g transform="translate(37.515 4.791)"><path d="M217.262,57.87,202.226,72.906a3.193,3.193,0,0,0,0,4.516l.548.548a9.581,9.581,0,0,0,13.549,0l6-6H235.1a9.581,9.581,0,0,0,9.581-9.581V56h-22.9a6.388,6.388,0,0,0-4.513,1.87Z" transform="translate(-201.291 -56)" fill="#fab991"/></g><g transform="translate(38.856 17.033)"><path d="M208,121.592a4.893,4.893,0,0,0,6.92,0,1.129,1.129,0,0,0,0-1.6l-2.661-2.661Z" transform="translate(-208 -117.334)" fill="#f0915a"/></g><g transform="translate(22.888 60.679)"><path d="M154.081,336H139.695a6.386,6.386,0,0,0-4.516,1.871L128,345.049l9.049,9.049,4.388-4.387a3.194,3.194,0,0,1,2.258-.935h10.387a6.387,6.387,0,1,0,0-12.775Z" transform="translate(-128 -336)" fill="#fab991"/></g><g transform="translate(31.937 59.083)"><path d="M219.3,329.4a4.79,4.79,0,0,0-6.774,0l-12.968,12.97h-19.58a3.194,3.194,0,0,0-2.258.935l-4.388,4.387,6.92,6.92,2.661-2.661h18.629a4.79,4.79,0,0,0,3.387-1.4L219.3,336.178A4.791,4.791,0,0,0,219.3,329.4Z" transform="translate(-173.333 -328)" fill="#f0915a"/></g><g transform="translate(0 68.793)"><path d="M51.656,397.277H13.333l20.162-20.162a1.6,1.6,0,0,1,2.258,0l16.9,16.9a1.6,1.6,0,0,1,0,2.258Z" transform="translate(-13.333 -376.648)" fill="#950007"/></g><g transform="translate(21.291 78.776)"><path d="M130.645,426.667,120,437.312h17.033l1-1a1.6,1.6,0,0,0,0-2.258Z" transform="translate(-120 -426.667)" fill="#5f0004"/></g><g transform="translate(45.775 63.872)"><path d="M245.86,358.388h-1.6a1.6,1.6,0,0,1-1.6-1.6V353.6a1.6,1.6,0,0,1,1.6-1.6h1.6a3.194,3.194,0,0,1,0,6.388Z" transform="translate(-242.666 -352)" fill="#f0915a"/></g></g></g></g></g></g></g></svg>