<svg xmlns="http://www.w3.org/2000/svg" width="600" height="353.292" viewBox="0 0 600 353.292"><defs><style>.a{fill:#e6e6e6;}.b{fill:#fff;}.c{fill:#3f3d56;}.d{fill:#c91c24;}</style></defs><g transform="translate(0 -204.538)"><ellipse class="a" cx="111.158" cy="11.486" rx="111.158" ry="11.486" transform="translate(0 468.559)"/><rect class="a" width="134.871" height="167.477" transform="translate(43.722 310.854)"/><rect class="b" width="96.337" height="4.446" transform="translate(63.209 368.55)"/><rect class="b" width="96.337" height="4.446" transform="translate(63.209 384.466)"/><rect class="b" width="96.337" height="4.446" transform="translate(63.209 400.383)"/><rect class="b" width="96.337" height="4.446" transform="translate(63.209 416.3)"/><path class="a" d="M310.556,418.792a26.389,26.389,0,1,1-4.09-14.136,26.389,26.389,0,0,1,4.09,14.136Z" transform="translate(-172.936 -181.966)"/><path class="b" d="M305.969,404.306,279.92,430.35c-1.637-2.535-10.758-14.314-10.758-14.314a36.913,36.913,0,0,1,3.734-3.3l7.564,10.085,22.46-22.459A26.353,26.353,0,0,1,305.969,404.306Z" transform="translate(-169.244 -181.617)"/><ellipse class="a" cx="111.158" cy="11.486" rx="111.158" ry="11.486" transform="translate(377.684 461.657)"/><rect class="a" width="134.871" height="167.477" transform="translate(421.406 303.821)"/><rect class="b" width="96.337" height="4.446" transform="translate(440.893 397.189)"/><rect class="b" width="96.337" height="4.446" transform="translate(440.893 413.106)"/><rect class="b" width="96.337" height="4.446" transform="translate(440.893 429.023)"/><rect class="b" width="96.337" height="4.446" transform="translate(440.893 444.94)"/><path class="b" d="M611.29,536.534H580.683a107.052,107.052,0,0,1,0-36.494h30.608a65.665,65.665,0,0,0,0,36.494Z" transform="translate(-145.128 -174.282)"/><rect class="b" width="56.32" height="3.705" transform="translate(483.133 328.967)"/><rect class="b" width="56.32" height="3.705" transform="translate(483.133 342.61)"/><rect class="b" width="56.32" height="3.705" transform="translate(483.133 356.253)"/><rect class="b" width="56.32" height="3.705" transform="translate(483.133 369.895)"/><path class="a" d="M655.172,413.168a26.389,26.389,0,1,1-4.09-14.136A26.389,26.389,0,0,1,655.172,413.168Z" transform="translate(-139.867 -182.212)"/><path class="b" d="M650.584,398.682l-26.049,26.044c-1.637-2.535-10.758-14.314-10.758-14.314a36.907,36.907,0,0,1,3.734-3.3l7.564,10.085,22.46-22.46a26.354,26.354,0,0,1,3.051,3.941Z" transform="translate(-142.301 -181.863)"/><ellipse class="c" cx="130.274" cy="13.462" rx="130.274" ry="13.462" transform="translate(171.9 530.907)"/><rect class="d" width="158.066" height="196.28" transform="translate(222.207 351.128)"/><rect class="b" width="112.904" height="5.211" transform="translate(244.784 389.162)"/><rect class="b" width="112.904" height="5.211" transform="translate(244.784 407.818)"/><rect class="b" width="112.904" height="5.211" transform="translate(244.784 426.473)"/><rect class="b" width="112.904" height="5.211" transform="translate(244.784 445.128)"/><rect class="b" width="112.904" height="5.211" transform="translate(244.784 463.784)"/><rect class="b" width="59.058" height="20.844" transform="translate(271.702 483.628)"/><path class="d" d="M498.3,440.6a39.655,39.655,0,1,1-6.146-21.243A39.655,39.655,0,0,1,498.3,440.6Z" transform="translate(-156.824 -181.594)"/><path class="b" d="M491.409,418.833l-39.145,39.138c-2.46-3.809-16.167-21.51-16.167-21.51a55.467,55.467,0,0,1,5.611-4.953l11.366,15.155,33.751-33.751a39.6,39.6,0,0,1,4.584,5.922Z" transform="translate(-155.878 -181.068)"/></g></svg>