<svg xmlns="http://www.w3.org/2000/svg" width="312" height="312.011" viewBox="0 0 312 312.011"><defs><style>.a{fill:#fff;}.b{opacity:0.2;}.c{fill:#d0cde1;}.d{fill:#585858;}</style></defs><path class="a" d="M574,268a155.471,155.471,0,0,1-12.563,61.431l-.517,1.191A156.258,156.258,0,0,1,390.931,421.66q-1.405-.249-2.806-.517a154.608,154.608,0,0,1-28.218-8.322q-2.222-.893-4.412-1.851c-1-.434-1.994-.882-2.982-1.343A156.015,156.015,0,1,1,574,268Z" transform="translate(-262 -112)"/><path class="b" d="M464.1,538.156q-1.405-.249-2.806-.517c-.609-17.682-2.7-53.972-9.831-91.98-3.9-20.8-9.314-42.125-16.823-61.186a190.438,190.438,0,0,0-8.8-19.311c-7.588-14.331-16.791-26.4-27.951-34.569l1.643-2.243q13.922,10.2,25.025,28.652,3.33,5.525,6.4,11.788,3.288,6.7,6.272,14.229,1.9,4.791,3.678,9.914a359.852,359.852,0,0,1,13.135,50.76q1.2,6.3,2.28,12.909A654.55,654.55,0,0,1,464.1,538.156Z" transform="translate(-335.172 -228.496)"/><path class="b" d="M430.642,670.886c-1-.434-1.994-.881-2.982-1.343a226.594,226.594,0,0,0-5.977-35.811,117.483,117.483,0,0,0-5.451-16.246c-3.7-8.654-8.483-16.011-14.672-20.548L403.2,594.7c6.48,4.745,11.478,12.245,15.342,21.018,4.352,9.886,7.255,21.392,9.189,32.386C429.169,656.269,430.074,664.157,430.642,670.886Z" transform="translate(-337.148 -371.915)"/><circle class="b" cx="13.887" cy="13.887" r="13.887" transform="translate(33.311 74.258)"/><circle class="b" cx="13.887" cy="13.887" r="13.887" transform="translate(37.783 193.801)"/><path class="b" d="M482.821,320.263c-2.945,16.614,3.556,31.658,3.556,31.658s11.275-11.893,14.22-28.507-3.556-31.658-3.556-31.658S485.766,303.649,482.821,320.263Z" transform="translate(-380.491 -208.791)"/><path class="b" d="M353.833,415.541c15.847,5.795,31.771,2.076,31.771,2.076s-9.769-13.114-25.616-18.908-31.771-2.076-31.771-2.076S337.986,409.746,353.833,415.541Z" transform="translate(-297.655 -264.631)"/><path class="b" d="M356.967,651.83c11.107,4.062,22.284,1.412,22.284,1.412s-6.831-9.235-17.939-13.3-22.284-1.412-22.284-1.412S345.859,647.769,356.967,651.83Z" transform="translate(-303.477 -395.061)"/><circle class="c" cx="60.817" cy="60.817" r="60.817" transform="translate(94.863 68.912)"/><path class="c" d="M547.833,471.792s7.6,36.11,7.6,39.911,36.11,20.906,36.11,20.906l32.309-5.7,11.4-34.21s-19.005-28.508-19.005-39.911Z" transform="translate(-415.91 -295.501)"/><path class="d" d="M628.874,547.658l-.517,1.191a156.258,156.258,0,0,1-169.989,91.038q-1.405-.249-2.806-.517a154.608,154.608,0,0,1-28.218-8.322q-2.222-.893-4.412-1.851c-1-.434-1.994-.882-2.982-1.343a155.812,155.812,0,0,1-25.5-14.9l-7.209-20.912,4.052-3.092,8.335-6.365,8.894-6.789,2.312-1.768,34.9-26.64,2.575-1.966,18.138-13.846,0,0s19.615,31.962,48.125,22.458S542.46,517.28,542.46,517.28Z" transform="translate(-329.437 -330.228)"/><path class="d" d="M468.348,247.683s19.309-41.837,56.318-32.182,57.928,24.136,59.537,38.618-.8,36.2-.8,36.2-4.023-29.768-29.768-23.332-65.973,1.609-65.973,1.609l-6.437,57.928s-7.241-10.459-15.286-4.023S442.6,260.556,468.348,247.683Z" transform="translate(-365.409 -166.952)"/><path class="d" d="M418.34,718.275q-2.222-.893-4.412-1.851c-1-.434-1.994-.881-2.982-1.343a156.388,156.388,0,0,1-40.426-27.092,54.69,54.69,0,0,1,7.717-8.718h28.509l4.274,14.372Z" transform="translate(-320.434 -417.453)"/><path class="d" d="M854.64,576.32l24.457,4.32a155.974,155.974,0,0,1-26.2,40.878Z" transform="translate(-580.177 -362.019)"/></svg>