<svg xmlns="http://www.w3.org/2000/svg" width="350.564" height="254.802" viewBox="0 0 350.564 254.802"><defs><style>.a{fill:#f2f2f2;}.b{fill:#2f2e41;}.c{fill:#ffb9b9;}.d{opacity:0.1;}.e{fill:#575a89;}.f,.h{opacity:0.2;}.g{fill:#c91c24;}.h,.i{fill:none;stroke-miterlimit:10;stroke-width:2px;}.h{stroke:#000;}.i{stroke:#3f3d56;}.j{fill:#3f3d56;}.k{fill:#9f616a;}.l{fill:#d0cde1;}.m{fill:#57b894;}</style></defs><g transform="translate(0 0.355)"><circle class="a" cx="119.5" cy="119.5" r="119.5" transform="translate(30 -0.355)"/><ellipse class="a" cx="47.21" cy="7.554" rx="47.21" ry="7.554" transform="translate(0 239.34)"/><ellipse class="a" cx="73.047" cy="11.688" rx="73.047" ry="11.688" transform="translate(204.469 223.394)"/><path class="b" d="M856.786,435.945s.622,2.073-2.9,3.939-4.561,8.914-.415,10.987,5.39,4.768,3.317,6.634-5.8,6.841-.829,8.085,5.6,3.731,4.146,4.768,3.317-1.866,3.317-1.866.829,4.975,5.182,3.731,16.584-24.876,10.365-28.193S856.786,435.945,856.786,435.945Z" transform="translate(-595.5 -313.204)"/><path class="c" d="M875.959,492.339s2.15,7.526-1.613,8.064a14.69,14.69,0,0,0-6.451,2.688l6.989,9.139h12.9l8.064-8.064s-10.752-8.064-8.6-12.9S875.959,492.339,875.959,492.339Z" transform="translate(-607.159 -349.581)"/><path class="d" d="M875.959,492.339s2.15,7.526-1.613,8.064a14.69,14.69,0,0,0-6.451,2.688l6.989,9.139h12.9l8.064-8.064s-10.752-8.064-8.6-12.9S875.959,492.339,875.959,492.339Z" transform="translate(-607.159 -349.581)"/><path class="c" d="M852.787,723.839l12.365,4.3,8.6.537-.537-7.526-17.74-5.247Z" transform="translate(-580.761 -487.542)"/><path class="e" d="M953,771.636s0,7.526,1.075,7.526,15.59-1.613,19.891,0,10.752-4.3,7.526-7.526-8.487-8.064-11.77-6.989S953,768.411,953,768.411Z" transform="translate(-665.119 -536.952)"/><path class="e" d="M821.387,764.974s-6.451,12.9-2.15,13.977,9.139-.538,9.676-1.075,8.064-2.688,9.139-1.613,1.075-4.3,1.075-4.3Z" transform="translate(-573.015 -537.278)"/><path class="b" d="M834.342,709.359s-10.214,13.977-2.688,17.74,43.544,3.763,46.232,0,3.763-15.59,0-16.665S834.342,709.359,834.342,709.359Z" transform="translate(-580.594 -499.404)"/><path class="f" d="M834.342,709.359s-10.214,13.977-2.688,17.74,43.544,3.763,46.232,0,3.763-15.59,0-16.665S834.342,709.359,834.342,709.359Z" transform="translate(-580.594 -499.404)"/><circle class="c" cx="12.364" cy="12.364" r="12.364" transform="translate(260.736 121.792)"/><path class="g" d="M845.987,527.812l10.752-2.15s2.688,8.6,11.289,6.989,10.752-6.989,10.752-6.989,6.451,2.688,6.989,2.688,7.526,2.688,7.526,4.3-8.064,17.74-8.064,17.74l1.075,29.029-39.781-1.075,2.688-28.492Z" transform="translate(-592.239 -374.303)"/><path class="c" d="M823.575,576.22s-3.226,28.492-1.075,30.642,10.752,8.064,10.752,8.064v-6.451l-4.3-8.064,4.3-18.816Z" transform="translate(-575.74 -408.734)"/><path class="c" d="M978.352,573.692s-1.882,29.3-1.882,30.374-4.838,4.838-6.451,4.838-2.688-2.688-2.688-2.688l3.763-4.3-2.688-22.041Z" transform="translate(-674.876 -407.012)"/><path class="b" d="M932.5,689.866s24.191-13.44,24.729,0-12.365,18.815-12.365,18.815-33.33,9.995-34.674,6.341-4.032-9.567-1.881-10.1,4.838-1.613,5.913-.538,14.515-8.064,14.515-8.064Z" transform="translate(-634.132 -482.061)"/><path class="h" d="M989.124,697.562s-4.838,2.15-6.451,3.763-8.6,4.3-8.6,4.3" transform="translate(-679.467 -491.37)"/><path class="g" d="M830.419,533.478l-3.226-1.075s-11.827,12.365-8.064,15.59,5.913,4.3,6.989,5.376,6.451,1.613,6.451,1.613Z" transform="translate(-573.445 -378.893)"/><path class="g" d="M963.057,544.2l4.838,1.075s3.763,8.064,4.838,9.139-1.613.538-3.225,2.688-3.226,5.913-6.451,5.913-7.526-5.376-7.526-5.376Z" transform="translate(-666.84 -386.928)"/><path class="b" d="M788.959,701.284s-20.428-14.515-27.417-3.763,30.1,25.266,35.481,27.417,10.214,4.3,10.214,4.3,4.838-11.827,4.838-13.977-3.763-2.15-4.838-2.15-5.913-1.075-6.989-2.688S788.959,701.284,788.959,701.284Z" transform="translate(-534.136 -488.64)"/><path class="h" d="M813.966,705.988s5.376,4.3,10.214,5.376,6.451,3.763,6.451,3.763" transform="translate(-570.432 -497.108)"/><path class="e" d="M837.731,636.424l.43,22.762a2.849,2.849,0,0,0,2.881,2.8L883.4,661.5a2.849,2.849,0,0,0,2.813-2.685l1.286-22.286a2.85,2.85,0,0,0-2.845-3.013H840.58a2.849,2.849,0,0,0-2.849,2.9Z" transform="translate(-586.616 -447.757)"/><path class="b" d="M894.511,423.04s.689,2.3-3.215,4.363-5.052,9.875-.459,12.171,5.971,5.282,3.674,7.349-6.43,7.578-.919,8.956,6.2,4.134,4.593,5.282,3.674-2.067,3.674-2.067.919,5.512,5.741,4.134,9.634-26.425,4.259-32.876C906.861,424.354,894.511,423.04,894.511,423.04Z" transform="translate(-620.749 -304.416)"/><path class="b" d="M904.13,412.28c0-3.365,10.067-.947,14.382,3.751,2.988,3.253,7.528,8.147,3.724,11.6s6.52,7.972,9.288,9.343,8.235,5.564,3.3,8.377-4.856,5.652-3,6.325-4.1-1-4.1-1,.6,5.555-4.414,5.528-19.4-27.59-15.967-35.252C910.545,413.826,904.13,412.28,904.13,412.28Z" transform="translate(-631.835 -296.02)"/><path class="b" d="M879.343,413.219c-13.46-.811-14.811,9.322-14.811,9.322.093,5.863,9.4,3.006,11.991,3.881,3.12-2.245,9.134-6.491,13.436-9.522A20.342,20.342,0,0,0,879.343,413.219Z" transform="translate(-604.868 -297.697)"/><path class="i" d="M711.817,407.557s-12.074-56.588-87.648-97.637" transform="translate(-441.178 -227.38)"/><path class="j" d="M575.483,254.891l.151.62-3.057.741.963,2.995-.608.195-1.172-3.648Z" transform="translate(-389.377 -173.585)"/><path class="g" d="M78.338,762.5c0,7.167-4.26,9.67-9.517,9.67q-.183,0-.365,0c-.244-.005-.485-.017-.723-.033-4.743-.336-8.429-2.967-8.429-9.633,0-6.9,8.815-15.6,9.477-16.246h0l.038-.037S78.338,755.337,78.338,762.5Z" transform="translate(-56.496 -524.506)"/><path class="j" d="M79.886,771.078l3.481-4.864-3.489,5.4-.009.558c-.244-.005-.485-.017-.723-.033l.375-7.171,0-.056.006-.01.035-.677-3.5-5.411,3.509,4.9.008.144.284-5.418-2.995-5.591,3.031,4.64.3-11.232v0l-.049,8.857,2.981-3.511-2.994,4.274-.079,4.851,2.784-4.655-2.8,5.369-.044,2.7,4.041-6.479-4.056,7.421Z" transform="translate(-67.908 -524.506)"/><path class="b" d="M221.819,788.221l2.036-1.512s1.348,7.527-.156,8.655-7.142,3.007-7.142,5.263-12.781,5.263-13.157,1.88a7.455,7.455,0,0,1,1.128-5.263s6.015-6.015,6.766-7.142,2.631-3.383,2.631-3.383Z" transform="translate(-154.586 -552.08)"/><path class="b" d="M167,489.186s.056.331.154.936c.09.538.214,1.3.365,2.233,1.579,9.635,6.184,38,5.872,38.933-.376,1.128-3.007,5.263,0,6.391a2.331,2.331,0,0,1,.936,1.019,21.842,21.842,0,0,1,1.59,3.751,164.841,164.841,0,0,1,4.819,19.3c.485,2.534.816,4.571.913,5.639a3.066,3.066,0,0,1,.011.744c-.376,1.5,2.255,6.766,3.383,8.27s3.007,3.007,2.631,4.511,9.4,5.639,10.525,3.007,1.128-4.135,1.5-4.887.752-6.015-1.128-6.766-.752-13.909-2.631-16.54c-.628-.876-1.586-3.842-2.59-7.409-.395-1.4-.793-2.887-1.184-4.379-1.586-6.116-2.992-12.27-2.992-12.27l.376-43.982-20.675-2.631-.53,1.169-1.056,2.319Z" transform="translate(-129.836 -346.646)"/><path class="b" d="M133.4,721.425s-3.007-3.007-4.511,0-3.007,14.661-5.639,17.292S117.24,754.5,121,755.256s7.894-1.128,8.27-3.383,8.27-13.909,8.27-15.036-5.263-5.263-5.263-5.263Z" transform="translate(-97.372 -506.71)"/><path class="b" d="M203.862,430.994s-4.887,43.982-6.015,48.117-7.142,19.923-9.022,22.555-13.909,24.058-15.412,25.186-4.511,4.135-4.511,4.135-5.639,5.639-6.39,6.766-7.142-2.255-7.518-4.511.376-6.015.752-7.518-.752-3.759.376-4.887,6.766-6.766,6.766-9.4,9.774-18.044,13.533-21.427,3.007-9.022,3.007-9.022V458.059l-20.675-6.391s1.128-18.044,3.759-18.044S199.727,427.611,203.862,430.994Z" transform="translate(-121.592 -309.129)"/><circle class="k" cx="12.405" cy="12.405" r="12.405" transform="translate(39.416 34.277)"/><path class="k" d="M190.607,214.481s1.5,5.639,3.383,7.142-4.887,7.894-4.887,7.894l-12.781.752-2.255-7.142s4.135-8.27,3.007-13.533S190.607,214.481,190.607,214.481Z" transform="translate(-134.651 -158.025)"/><path class="g" d="M191.055,248.18s-3.383.376-4.135,1.5-6.015,4.511-10.15,3.759-6.766-1.88-7.518-1.5-2.255,8.27-2.255,8.27l4.135,12.029-.752,33.08-1.128,9.022s-2.255-3.007,6.766-1.128,20.675-1.5,24.434-1.88,10.15-1.5,10.526-3.759-1.128-10.525-1.128-10.525l-6.015-25.186-3.759-13.533Z" transform="translate(-129.836 -185.334)"/><path class="l" d="M231.271,241.138s3.18-1.687,4.308-.183,15.412,3.759,15.412,4.887,3.007,31.577,2.255,34.208,1.5,5.639,1.5,5.639l2.631,11.277s7.142,21.427,4.135,22.179-5.639,0-6.766,0S254,304.86,250.991,301.1s-7.142-13.157-7.894-15.036-10.15-27.817-9.774-30.825S231.271,241.138,231.271,241.138Z" transform="translate(-173.608 -179.989)"/><path class="l" d="M148.609,248.18s-3.007,0-3.383.752a41.134,41.134,0,0,1-5.639,6.766c-1.5,1.128-6.766,6.014-6.766,7.142s10.9,9.4,10.9,9.4,4.511,22.179,2.255,29.7-5.639,25.562-4.135,26.69,4.887,1.5,4.887,0,2.255-17.668,4.135-21.051,7.518-24.81,5.263-30.825S148.609,248.18,148.609,248.18Z" transform="translate(-106.562 -185.334)"/><path class="k" d="M280.892,364.847s.376,11.653-3.759,17.668a71.439,71.439,0,0,0-6.766,12.781s-6.766-1.88-7.894-4.135-8.27-.376-8.27-1.128,8.646-4.511,9.4-5.263,3.383-.752,4.887-2.255,1.88-4.887,1.88-4.887l1.5-9.774Z" transform="translate(-189.224 -264.786)"/><path class="b" d="M186.6,148.761a7.149,7.149,0,0,0,2.782-.637,3.725,3.725,0,0,0,.952-5.515,7.127,7.127,0,0,0-1.322-1.063L186.16,139.6a13.977,13.977,0,0,0-4.031-2.14,12.584,12.584,0,0,0-4.121-.243,27.846,27.846,0,0,0-7.894,1.435,13.212,13.212,0,0,0-6.4,4.681c-2.419,3.5-2.453,8.222-1.12,12.263s3.864,7.56,6.358,11.008l1.294-6.314a2.33,2.33,0,0,1,.732-1.512c1.163-.827,2.585.871,4.011.86a2.4,2.4,0,0,0,2.034-1.61,9.172,9.172,0,0,0,.451-2.7c.17-1.934.846-4.626,2.678-5.693C181.862,148.642,184.686,148.935,186.6,148.761Z" transform="translate(-126.24 -109.728)"/><path class="d" d="M232.531,498.718s-1.27,36.724-2.021,37.852,0-37.967,0-37.967Z" transform="translate(-172.862 -355.876)"/><path class="l" d="M283.664,257.607h3.007s12.781,17.292,11.277,18.42,0,4.135,0,4.135l3.007,5.639s3.759,3.383,2.631,4.135-2.631,3.759-2.631,3.759-7.518-1.128-9.774,3.383l-4.875-6.155Z" transform="translate(-209.288 -191.754)"/><rect class="b" width="11.164" height="20.805" transform="translate(65.119 75.676) rotate(-22.438)"/><ellipse class="g" cx="2.233" cy="2.051" rx="2.233" ry="2.051" transform="translate(70.599 79.754) rotate(-22.438)"/><path class="k" d="M190.065,317.379S163,339.934,158.489,332.791s4.887-13.157,4.887-13.157,8.27.376,17.668-5.639l9.4-4.135s8.579-12.249,11.5-7.584S196.954,315.058,190.065,317.379Z" transform="translate(-123.208 -221.452)"/><path class="l" d="M133.746,289.426l-4.135,1.5v11.277l-1.5,2.256s.376,4.511,1.5,5.639,3.383.752,2.631,3.383a14.248,14.248,0,0,0-.376,5.263s6.766,8.646,7.142,7.518,5.639-15.036,6.39-15.036-7.518-21.8-7.518-21.8Z" transform="translate(-103.352 -213.423)"/><path class="b" d="M283.69,454s3.887-3.759,1.943-3.947-8.71-3.947-9.838-2.068S283.69,454,283.69,454Z" transform="translate(-203.864 -321.048)"/><ellipse class="m" cx="5" cy="2.5" rx="5" ry="2.5" transform="translate(149 55.645)"/><path class="i" d="M519.183,226.373a50.3,50.3,0,0,0-36.683,0V211.381a63.49,63.49,0,0,1,36.683,0Z" transform="translate(-344.699 -158.429)"/><path class="i" d="M524.976,227.168a36.3,36.3,0,0,0-26.476,0v-10.82a45.824,45.824,0,0,1,26.476,0Z" transform="translate(-355.595 -162.325)"/><ellipse class="i" cx="5.5" cy="2.5" rx="5.5" ry="2.5" transform="translate(150 54.645)"/><ellipse class="m" cx="5.423" cy="2.871" rx="5.423" ry="2.871" transform="matrix(0.98, -0.2, 0.2, 0.98, 151.276, 74.684)"/><path class="i" d="M529.75,275.17a50.3,50.3,0,0,0-35.942,7.336l-3-14.689a63.49,63.49,0,0,1,35.942-7.336Z" transform="translate(-350.358 -193.529)"/><path class="i" d="M535.264,277.731a36.3,36.3,0,0,0-25.941,5.294l-2.164-10.6A45.823,45.823,0,0,1,533.1,267.13Z" transform="translate(-361.492 -198.107)"/><ellipse class="i" cx="5.423" cy="2.871" rx="5.423" ry="2.871" transform="matrix(0.98, -0.2, 0.2, 0.98, 152.896, 73.051)"/><ellipse class="m" cx="2.871" cy="5.423" rx="2.871" ry="5.423" transform="translate(150.431 96.742) rotate(-86.019)"/><path class="i" d="M524.307,340.344a50.3,50.3,0,0,0-36.595-2.546l1.041-14.956a63.49,63.49,0,0,1,36.595,2.547Z" transform="translate(-348.248 -235.103)"/><path class="i" d="M530.761,340.873a36.3,36.3,0,0,0-26.412-1.838l.751-10.794a45.823,45.823,0,0,1,26.412,1.838Z" transform="translate(-359.578 -239.079)"/><ellipse class="i" cx="2.871" cy="5.423" rx="2.871" ry="5.423" transform="translate(152.428 95.602) rotate(-86.019)"/><path class="i" d="M379.626,264.181s-23.444-3.207-40.186,6.6" transform="translate(-247.273 -195.889)"/><path class="j" d="M288.235,224.459l.609.193-.952,3,3.06.73L290.8,229l-3.727-.89Z" transform="translate(-195.504 -152.86)"/></g></svg>