<svg xmlns="http://www.w3.org/2000/svg" width="620" height="559.206" viewBox="0 0 620 559.206"><defs><style>.a{fill:#f2f2f2;}.b{fill:#3f3d56;}.c{fill:#c91c24;}.d{opacity:0.2;}.e{fill:#2f2e41;}.f{fill:#a0616a;}.g{fill:#d0cde1;}</style></defs><circle class="a" cx="145.612" cy="145.612" r="145.612" transform="translate(147.997 242.232)"/><ellipse class="b" cx="138.179" cy="18.877" rx="138.179" ry="18.877" transform="translate(134.86 521.452)"/><ellipse class="b" cx="9.781" cy="4.748" rx="9.781" ry="4.748" transform="translate(266.209 151.962) rotate(-18.58)"/><path class="c" d="M489.431,279.861l51.309-23.379s86.927-32.857,161.288,47.347c0,0-33.327-21.393-58.587,6.866,0,0-47.534-12.86-87.424,34.391,0,0-62.39,9.448-88.375,42.558,0,0-28.969-4.455-40.5,32.269a1.1,1.1,0,0,1-1.822.454h0a1.094,1.094,0,0,1-.31-.578C423.929,414.114,411.189,338.4,489.431,279.861Z" transform="translate(-232.264 -104.876)"/><path class="d" d="M489.431,279.861l51.309-23.379s86.927-32.857,161.288,47.347c0,0-33.327-21.393-58.587,6.866,0,0-47.534-12.86-87.424,34.391,0,0-62.39,9.448-88.375,42.558,0,0-28.969-4.455-40.5,32.269a1.1,1.1,0,0,1-1.822.454h0a1.094,1.094,0,0,1-.31-.578C423.929,414.114,411.189,338.4,489.431,279.861Z" transform="translate(-232.264 -104.876)"/><path class="e" d="M405.524,385.933l21.365,3.561,7.122-33.829L416.8,348.543Z" transform="translate(-132.731 -114.081)"/><circle class="f" cx="18.398" cy="18.398" r="18.398" transform="translate(283.772 228.23)"/><path class="f" d="M568.749,416.421s1.78,22.553-11.87,24.333,11.87,42.138,18.4,41.544,18.4-43.918,18.4-43.918S578.245,427.7,583.586,418.2Z" transform="translate(-274.591 -159.407)"/><path class="f" d="M542.483,537.459s2.374,17.211,9.5,17.211-4.748-19.585-4.748-19.585Z" transform="translate(-271.174 -198.246)"/><path class="f" d="M695.145,564.2s17.8,14.837,15.431,19.585-17.8-5.341-18.992-17.211Z" transform="translate(-319.976 -207.775)"/><path class="f" d="M525.639,648.9l-11.276,42.138L501.9,742.074h11.87s4.154-16.024,11.87-24.333c0,0,7.715-13.057,7.715-21.959l18.4-43.325Z" transform="translate(-257.891 -235.497)"/><path class="f" d="M609.535,648.671l3.561,39.764s-.594,28.487,0,35.016a130.9,130.9,0,0,1,0,16.024h10.683s10.089-35.016,7.122-54.007l4.154-44.512Z" transform="translate(-293.121 -232.899)"/><path class="e" d="M567.917,474.267S551.927,461.6,556.065,443.9c0,0-16.041.7-22.57,7.226s1.78,28.487,1.78,28.487,14.244,23.74,11.87,34.422-27.894,67.064-19.585,70.625,58.755,16.024,84.276-4.748c0,0,6.528-58.755-19.585-77.747V487.324s4.748-4.154,2.374-14.837c0,0,10.089-18.4,4.154-21.959s-19.568-8.779-19.568-8.779S580.381,468.332,567.917,474.267Z" transform="translate(-265.747 -167.696)"/><path class="e" d="M524.811,455.665s-7.715-1.187-15.431,10.089-27.894,29.081-18.4,37.983S526,518.574,526,518.574l5.935-10.683-25.52-12.463L527.779,479.4Z" transform="translate(-253.503 -172.24)"/><path class="e" d="M627.228,455.682s8.309,0,11.87,10.089,24.333,44.512,24.333,44.512l11.87,18.4-8.309,9.5-23.146-26.113-21.959-36.2Z" transform="translate(-297.164 -172.257)"/><path class="e" d="M511.746,785.646H495.129l-3.561,29.081s-9.5,15.431,4.748,13.65,9.5-17.8,9.5-17.8l3.561-5.935,1.187,12.463,1.187-.594v-13.65S518.275,796.922,511.746,785.646Z" transform="translate(-253.494 -280.257)"/><path class="e" d="M626.114,785.068l-15.431-1.187-2.967,33.235s-1.78,12.463,8.9,10.683,7.122-11.87,7.122-11.87v-18.4Z" transform="translate(-292.489 -279.679)"/><path class="e" d="M559.558,370.976s-8.646,2.882-9.085,14.264a20.183,20.183,0,0,0,.6,5.4c.487,2.063.8,6.5-2.973,12.3a121.809,121.809,0,0,0-6.913,11.891l-.027.054,9.5,1.187,2.019-15.74a78.381,78.381,0,0,1,6.224-22.1l.066-.147s4.154,7.715,12.463,7.715l-2.967-2.967s13.057,5.341,17.8,5.341c0,0,3.561,2.374,0,5.935s-10.683,11.87-6.528,18.4.594,8.309.594,8.309l6.528-3.561,2.967-1.78v2.374l15.431-1.78s4.154-.593-4.748-10.683c0,0-2.351-3.918-1.322-7.3a17.045,17.045,0,0,0,.648-7.971C597.84,379,590.015,356.884,559.558,370.976Z" transform="translate(-270.741 -143.042)"/><path class="b" d="M671.671,515.254c5.872-5.972-.632-18.34-1.14-19.28L603.462,359.019a1.746,1.746,0,1,0-3.137,1.536l67.1,137.023.019.034c.067.122,6.542,12.422.775,15.946-6.211,3.8-13.455-2.355-13.527-2.417a1.746,1.746,0,1,0-2.283,2.643c.374.324,9.27,7.867,17.632,2.754A8.462,8.462,0,0,0,671.671,515.254Z" transform="translate(-290.048 -140.298)"/><path class="c" d="M483.307,265.724,533,243.081s84.19-31.822,156.21,45.857c0,0-32.277-20.72-56.743,6.65,0,0-46.037-12.455-84.672,33.308,0,0-60.426,9.15-85.593,41.218,0,0-28.931-4.449-39.73,32.931l-1.494-1.469S404.53,324.665,483.307,265.724Z" transform="translate(-230.938 -100.559)"/><path class="b" d="M504.174,279.671s-24.333,81.9-21.366,104.454" transform="translate(-251.56 -114.647)"/><path class="b" d="M552.922,262.3s30.664,69.257,38.38,75.191" transform="translate(-274.591 -108.96)"/><path class="b" d="M587.919,246.145s78.934,47.479,99.706,52.82" transform="translate(-286.046 -103.674)"/><path class="b" d="M409.05,755.773c-.143-.233-3.506-5.849-4.672-17.51-1.069-10.7-.382-28.732,8.971-53.887,17.718-47.654-4.083-86.1-4.306-86.487l1.076-.624c.056.1,5.682,9.9,9.005,25.511a111.3,111.3,0,0,1-4.609,62.034c-17.687,47.573-4.538,70.094-4.4,70.316Z" transform="translate(-225.848 -218.598)"/><circle class="b" cx="8.08" cy="8.08" r="8.08" transform="translate(168.194 360.332)"/><circle class="b" cx="8.08" cy="8.08" r="8.08" transform="translate(193.678 390.167)"/><circle class="c" cx="8.08" cy="8.08" r="8.08" transform="translate(176.274 410.056)"/><circle class="c" cx="8.08" cy="8.08" r="8.08" transform="translate(197.406 426.838)"/><circle class="b" cx="8.08" cy="8.08" r="8.08" transform="translate(170.059 452.943)"/><path class="b" d="M418.134,816.405s-8.08-19.889,16.16-34.807Z" transform="translate(-230.05 -278.932)"/><path class="b" d="M388.353,822.6s-3.677-21.151-32.139-20.969Z" transform="translate(-210.207 -285.488)"/><path class="b" d="M165.962,0,194.4,15.561,139.3,52.057l-26.361-17.39Z" transform="translate(-36.965)"/><path class="b" d="M60.6,73.493,0,112.562l28.143,16.726L88.723,88.847Z" transform="translate(0 -24.055)"/><path class="g" d="M239.483,78.644a23.886,23.886,0,0,0-12.857,16.282,7.059,7.059,0,0,0,2.315,7.061l17.52,14.8a8.121,8.121,0,0,0,9.183.886c7.123-3.95,18.562-12.242,13.454-22.743a7.26,7.26,0,0,0-2.529-2.872L247.043,79.141A7.622,7.622,0,0,0,239.483,78.644Z" transform="translate(-167.726 -48.596)"/><ellipse class="b" cx="28.819" cy="19.571" rx="28.819" ry="19.571" transform="matrix(0.597, -0.802, 0.802, 0.597, 76.218, 76.431)"/><path class="d" d="M287.35,145.462c3.552,2.646,12-2.571,19.6-11.825q1.009-1.227,1.995-2.549.722-.971,1.392-1.941c7.042-10.175,9.825-20.155,6.188-22.863-3.664-2.729-12.529,2.9-20.3,12.694q-.651.823-1.289,1.679a66.533,66.533,0,0,0-4.075,6.148C285.847,135.4,284.218,143.129,287.35,145.462Z" transform="translate(-187.144 -57.671)"/><path class="g" d="M293.339,133.317l16.089,6.831,11.512,4.887,1.7-2.3-9.828-7.079L298.7,125.49q-.651.823-1.289,1.679A66.529,66.529,0,0,0,293.339,133.317Z" transform="translate(-189.627 -64.182)"/><circle class="g" cx="3.497" cy="3.497" r="3.497" transform="translate(130.936 77.777)"/><path class="c" d="M340.27,193.182a1.669,1.669,0,0,1,.791-.4c18.837-3.892,30.69-14.738,36.235-33.156a1.676,1.676,0,1,1,3.209.966c-5.85,19.432-18.893,31.366-38.766,35.473a1.676,1.676,0,0,1-1.469-2.879Z" transform="translate(-204.809 -74.964)"/><path class="c" d="M333.378,175.542a1.666,1.666,0,0,1,.791-.4c14.124-2.919,23.011-11.05,27.169-24.86a1.676,1.676,0,1,1,3.209.966c-4.482,14.888-14.474,24.031-29.7,27.177a1.676,1.676,0,0,1-1.469-2.879Z" transform="translate(-202.554 -71.905)"/><path class="c" d="M350.452,211.526a1.666,1.666,0,0,1,.791-.4c18.8-3.884,39.355-22.694,44.889-41.075a1.676,1.676,0,0,1,3.209.966c-5.846,19.417-27.561,39.288-47.42,43.391a1.676,1.676,0,0,1-1.469-2.879Z" transform="translate(-208.142 -78.376)"/><path class="b" d="M716.071,0,687.63,15.561l55.1,36.5L769.1,34.667Z" transform="translate(-225.067)"/><path class="b" d="M817.9,73.493l60.6,39.069-28.143,16.726L789.779,88.847Z" transform="translate(-258.501 -24.055)"/><path class="g" d="M939.136,78.643a23.886,23.886,0,0,1,12.857,16.282,7.059,7.059,0,0,1-2.315,7.061l-17.52,14.8a8.121,8.121,0,0,1-9.183.886c-7.123-3.95-18.562-12.242-13.454-22.743a7.26,7.26,0,0,1,2.529-2.872l19.526-12.912a7.622,7.622,0,0,1,7.56-.5Z" transform="translate(-390.892 -48.596)"/><ellipse class="b" cx="19.571" cy="28.819" rx="19.571" ry="28.819" transform="matrix(0.802, -0.597, 0.597, 0.802, 477.964, 53.577)"/><path class="d" d="M896.9,145.462c-3.552,2.646-12-2.571-19.6-11.825q-1.009-1.227-1.995-2.549-.722-.971-1.392-1.941c-7.042-10.175-9.825-20.155-6.188-22.863,3.664-2.729,12.529,2.9,20.3,12.694q.651.823,1.289,1.679a66.5,66.5,0,0,1,4.075,6.148C898.4,135.4,900.033,143.129,896.9,145.462Z" transform="translate(-377.107 -57.671)"/><path class="g" d="M892.4,133.317l-16.089,6.831L864.8,145.035l-1.7-2.3,9.828-7.079,14.112-10.169q.651.823,1.289,1.679a66.463,66.463,0,0,1,4.074,6.148Z" transform="translate(-376.114 -64.182)"/><circle class="g" cx="3.497" cy="3.497" r="3.497" transform="translate(482.069 77.777)"/><path class="c" d="M839.854,193.182a1.668,1.668,0,0,0-.791-.4c-18.837-3.892-30.69-14.738-36.235-33.156a1.676,1.676,0,0,0-3.209.966c5.85,19.432,18.893,31.366,38.766,35.473a1.676,1.676,0,0,0,1.469-2.879Z" transform="translate(-355.313 -74.964)"/><path class="c" d="M851.156,175.542a1.666,1.666,0,0,0-.791-.4c-14.124-2.919-23.011-11.05-27.169-24.86a1.676,1.676,0,1,0-3.209.966c4.482,14.888,14.474,24.031,29.7,27.177a1.676,1.676,0,0,0,1.469-2.879Z" transform="translate(-361.98 -71.905)"/><path class="c" d="M825.461,211.526a1.667,1.667,0,0,0-.791-.4c-18.8-3.884-39.355-22.694-44.889-41.075a1.676,1.676,0,1,0-3.209.966c5.846,19.417,27.561,39.288,47.42,43.391a1.676,1.676,0,0,0,1.469-2.879Z" transform="translate(-347.77 -78.376)"/></svg>