<svg xmlns="http://www.w3.org/2000/svg" width="72" height="72" viewBox="0 0 72 72"><defs><style>.a{fill:rgba(255,255,255,0);}.b{fill:#950007;}.c{fill:#e4e7ed;}.d{fill:#c6cbd6;}.e{fill:#fff;}.f{fill:#5d718f;}.g{fill:#83cf8f;}.h{fill:#ffe356;}.i{fill:#ecf0f1;}.j{fill:#807e7e;}.k{fill:#ff7069;}</style></defs><g transform="translate(-126 -33)"><rect class="a" width="72" height="72" transform="translate(126 33)"/><g transform="translate(131 38)"><path class="b" d="M30.6,0A30.6,30.6,0,1,1,0,30.6,30.59,30.59,0,0,1,30.6,0Z" transform="translate(0 0)"/><path class="c" d="M186.757,2.385V23.274H163.9V2.042a30.705,30.705,0,0,1,22.874.343Z" transform="translate(-144.307)"/><path class="d" d="M273.11,135.114H261.973C262.33,124.534,272.753,124.12,273.11,135.114Z" transform="translate(-230.661 -111.841)"/><path class="e" d="M72.385,126.148H93.346c-2.756,0-5.054,3.113-5.5,7.182v26.543l-2.242-3.256-2.385,3.47-2.385-3.47-2.385,3.47-2.385-3.47-2.385,3.47-2.385-3.47-2.385,3.47-2.385-3.47-2.385,3.47V134.429a8.3,8.3,0,0,1,8.281-8.281Z" transform="translate(-56.479 -111.07)"/><path class="f" d="M283.237,235.692H305.7v26.843h-22.46Z" transform="translate(-249.383 -207.521)"/><g transform="translate(35.953 36.938)"><path class="e" d="M301.368,309.04h2.313a.573.573,0,0,1,.571.571v2.313a.573.573,0,0,1-.571.571h-2.313a.573.573,0,0,1-.571-.571v-2.313A.573.573,0,0,1,301.368,309.04Z" transform="translate(-300.797 -309.04)"/><path class="e" d="M338.878,309.04h2.313a.573.573,0,0,1,.571.571v2.313a.573.573,0,0,1-.571.571h-2.313a.573.573,0,0,1-.571-.571v-2.313A.573.573,0,0,1,338.878,309.04Z" transform="translate(-333.824 -309.04)"/></g><path class="g" d="M376.388,309.04H378.7a.573.573,0,0,1,.571.571v2.313a.573.573,0,0,1-.571.571h-2.313a.573.573,0,0,1-.571-.571v-2.313A.573.573,0,0,1,376.388,309.04Z" transform="translate(-330.897 -272.102)"/><path class="h" d="M413.9,309.04h2.313a.573.573,0,0,1,.571.571v2.313a.573.573,0,0,1-.571.571H413.9a.573.573,0,0,1-.571-.571v-2.313A.573.573,0,0,1,413.9,309.04Z" transform="translate(-363.924 -272.102)"/><g transform="translate(35.953 41.322)"><path class="e" d="M301.368,345.714h2.313a.573.573,0,0,1,.571.571V348.6a.573.573,0,0,1-.571.571h-2.313a.573.573,0,0,1-.571-.571v-2.313A.573.573,0,0,1,301.368,345.714Z" transform="translate(-300.797 -345.714)"/><path class="e" d="M338.878,345.714h2.313a.573.573,0,0,1,.571.571V348.6a.573.573,0,0,1-.571.571h-2.313a.573.573,0,0,1-.571-.571v-2.313A.573.573,0,0,1,338.878,345.714Z" transform="translate(-333.824 -345.714)"/><path class="e" d="M376.388,345.714H378.7a.573.573,0,0,1,.571.571V348.6a.573.573,0,0,1-.571.571h-2.313a.573.573,0,0,1-.571-.571v-2.313A.573.573,0,0,1,376.388,345.714Z" transform="translate(-366.85 -345.714)"/><path class="e" d="M413.9,345.714h2.313a.573.573,0,0,1,.571.571V348.6a.573.573,0,0,1-.571.571H413.9a.573.573,0,0,1-.571-.571v-2.313A.573.573,0,0,1,413.9,345.714Z" transform="translate(-399.877 -345.714)"/><path class="e" d="M301.368,382.507h2.313a.573.573,0,0,1,.571.571v2.313a.573.573,0,0,1-.571.571h-2.313a.573.573,0,0,1-.571-.571v-2.313A.573.573,0,0,1,301.368,382.507Z" transform="translate(-300.797 -378.109)"/><path class="e" d="M338.878,382.507h2.313a.573.573,0,0,1,.571.571v2.313a.573.573,0,0,1-.571.571h-2.313a.573.573,0,0,1-.571-.571v-2.313A.573.573,0,0,1,338.878,382.507Z" transform="translate(-333.824 -378.109)"/><path class="e" d="M376.388,382.507H378.7a.573.573,0,0,1,.571.571v2.313a.573.573,0,0,1-.571.571h-2.313a.573.573,0,0,1-.571-.571v-2.313A.573.573,0,0,1,376.388,382.507Z" transform="translate(-366.85 -378.109)"/><path class="e" d="M413.9,382.507h2.313a.573.573,0,0,1,.571.571v2.313a.573.573,0,0,1-.571.571H413.9a.573.573,0,0,1-.571-.571v-2.313A.573.573,0,0,1,413.9,382.507Z" transform="translate(-399.877 -378.109)"/><path class="e" d="M301.368,419.181h2.313a.573.573,0,0,1,.571.571v2.313a.573.573,0,0,1-.571.571h-2.313a.573.573,0,0,1-.571-.571v-2.313A.573.573,0,0,1,301.368,419.181Z" transform="translate(-300.797 -410.4)"/><path class="e" d="M338.878,419.181h2.313a.573.573,0,0,1,.571.571v2.313a.573.573,0,0,1-.571.571h-2.313a.573.573,0,0,1-.571-.571v-2.313A.573.573,0,0,1,338.878,419.181Z" transform="translate(-333.824 -410.4)"/><path class="e" d="M376.388,419.181H378.7a.573.573,0,0,1,.571.571v2.313a.573.573,0,0,1-.571.571h-2.313a.573.573,0,0,1-.571-.571v-2.313A.573.573,0,0,1,376.388,419.181Z" transform="translate(-366.85 -410.4)"/><path class="e" d="M413.9,419.181h2.313a.573.573,0,0,1,.571.571v2.313a.573.573,0,0,1-.571.571H413.9a.573.573,0,0,1-.571-.571v-2.313A.573.573,0,0,1,413.9,419.181Z" transform="translate(-399.877 -410.4)"/></g><path class="i" d="M296.019,247.518h19.4v4.3h-19.4Z" transform="translate(-260.637 -217.933)"/><path class="j" d="M433.435,251.819a1.124,1.124,0,0,1,.785.328h0a1.125,1.125,0,0,1,.328.785v.814a1.1,1.1,0,0,1-.328.785,1.1,1.1,0,0,1-1.571,0h0a1.125,1.125,0,0,1-.328-.785v-.814a1.1,1.1,0,0,1,.328-.785A1.125,1.125,0,0,1,433.435,251.819Zm.5.614a.727.727,0,0,0-.5-.214.7.7,0,0,0-.5.214.727.727,0,0,0-.214.5v.814a.7.7,0,0,0,.214.5.727.727,0,0,0,.5.214.7.7,0,0,0,.5-.214.727.727,0,0,0,.214-.5v-.814a.7.7,0,0,0-.214-.5Z" transform="translate(-380.648 -221.72)"/><path class="g" d="M118.145,173.454h10.466v.971H118.145Z" transform="translate(-104.024 -152.722)"/><g transform="translate(17.163 23.274)"><path class="d" d="M143.589,194.718h11.723v.971H143.589Z" transform="translate(-143.589 -194.718)"/><path class="d" d="M143.589,224.941h11.723v.957H143.589Z" transform="translate(-143.589 -221.329)"/><path class="d" d="M143.589,255.044h11.723v.971H143.589Z" transform="translate(-143.589 -247.834)"/><path class="d" d="M143.589,285.267h11.723v.957H143.589Z" transform="translate(-143.589 -274.444)"/></g><path class="k" d="M143.589,315.371h5.868v.971h-5.868Z" transform="translate(-126.426 -277.676)"/><path class="d" d="M72.153,347.864h1.014v1.014H72.153Zm20.375,0h1.014v1.014H92.528Zm-2.27,0h1.014v1.014H90.258Zm-2.27,0H89v1.014H87.988Zm-2.27,0h1.014v1.014H85.717Zm-2.27,0h1.014v1.014H83.447Zm-2.27,0h1.014v1.014H81.177Zm-2.27,0H79.92v1.014H78.907Zm-2.27,0H77.65v1.014H76.636Zm-2.27,0H75.38v1.014H74.366Z" transform="translate(-63.529 -306.285)"/><path class="b" d="M84.857,197.664a2.621,2.621,0,0,1,.371-1.456,1.658,1.658,0,0,1,1.1-.714v-.657H87.47v.657a1.758,1.758,0,0,1,1.128.7,2.638,2.638,0,0,1,.371,1.471v.286H87.641v-.371a.985.985,0,0,0-.186-.685.761.761,0,0,0-1.028,0,.961.961,0,0,0-.186.685,1.527,1.527,0,0,0,.2.785,2.557,2.557,0,0,0,.514.614c.2.186.414.371.657.557a5.308,5.308,0,0,1,.657.614,3.493,3.493,0,0,1,.514.8,2.727,2.727,0,0,1,.2,1.085A2.526,2.526,0,0,1,88.6,203.5a1.72,1.72,0,0,1-1.128.714v.643H86.328v-.643a1.717,1.717,0,0,1-1.142-.714,2.671,2.671,0,0,1-.371-1.471v-.614h1.328v.7a.918.918,0,0,0,.2.671.7.7,0,0,0,.528.186.725.725,0,0,0,.528-.186.941.941,0,0,0,.2-.671,1.527,1.527,0,0,0-.2-.785,2.557,2.557,0,0,0-.514-.614c-.2-.186-.428-.371-.657-.557a5.308,5.308,0,0,1-.657-.614,3.492,3.492,0,0,1-.514-.8A2.5,2.5,0,0,1,84.857,197.664Z" transform="translate(-74.677 -171.549)"/></g></g></svg>