<svg xmlns="http://www.w3.org/2000/svg" width="72" height="72" viewBox="0 0 72 72"><defs><style>.a{fill:rgba(255,255,255,0);}.b{fill:#00ccb3;}.c{fill:#950007;}.d{fill:#ffdaaa;}.e{fill:#fff;}.f{fill:#009986;}.g{fill:#00b39d;}.h{fill:#ffc477;}</style></defs><g transform="translate(-126 -33)"><rect class="a" width="72" height="72" transform="translate(126 33)"/><g transform="translate(130.065 37)"><path class="b" d="M53,11H11a2.006,2.006,0,0,0-2,2V35H55V13a2.006,2.006,0,0,0-2-2Z"/><path class="c" d="M27.93,49.27,30,57,14.55,61.14l-2.08-7.73,1.94-.52v.01L26,49.79Z"/><path class="c" d="M51.53,53.41l-2.08,7.73L34,57l2.07-7.73,1.93.52L49.59,52.9v-.01Z"/><path class="d" d="M10.81,31.76a2.07,2.07,0,0,1,.47-.18,2.984,2.984,0,0,1,2.9.77L16.83,35l5.44,5.44,1.67,1.67L26,49.79l-11.59,3.1-.52-1.93L8.73,47.17l-.78-2.9L3.04,25.92a3,3,0,0,1,5.79-1.55L9,25Z"/><path class="d" d="M53.19,31.76,55,25l.17-.63a3,3,0,1,1,5.79,1.55L56.05,44.27l-.78,2.9-5.16,3.79-.52,1.93L38,49.79l2.06-7.68,1.67-1.67L47.17,35l2.65-2.65a2.984,2.984,0,0,1,2.9-.77,2.07,2.07,0,0,1,.47.18Z"/><circle class="e" cx="6" cy="6" r="6" transform="translate(26 17)"/><path class="f" d="M55,5V9a2.006,2.006,0,0,0-2-2H11A2.006,2.006,0,0,0,9,9V5a2.006,2.006,0,0,1,2-2H53a2.006,2.006,0,0,1,2,2Z"/><path class="g" d="M55,12v1a2.006,2.006,0,0,0-2-2H11a2.006,2.006,0,0,0-2,2V9a2.006,2.006,0,0,1,2-2H53a2.006,2.006,0,0,1,2,2Z"/><path class="g" d="M14,20H12V16a1,1,0,0,1,1-1h4v2H14Z"/><path class="g" d="M52,20H50V17H47V15h4a1,1,0,0,1,1,1Z"/><path class="g" d="M17,31H13a1,1,0,0,1-1-1V26h2v3h3Z"/><path class="g" d="M51,31H47V29h3V26h2v4A1,1,0,0,1,51,31Z"/><rect class="g" width="2" height="2" transform="translate(42 22)"/><rect class="g" width="2" height="2" transform="translate(20 22)"/><path class="h" d="M25.032,50.049l-1.988-7.421-9.568-9.566a2,2,0,0,0-1.935-.518,1.25,1.25,0,0,0-.244.086.769.769,0,0,1-.091.045,1.868,1.868,0,0,0-.569.393,2,2,0,0,0,.007,2.823l8.083,8.083-1.415,1.414L9.229,37.305a4.012,4.012,0,0,1,0-5.658,3.877,3.877,0,0,1,1.146-.792,3.164,3.164,0,0,1,.648-.243,4.013,4.013,0,0,1,3.867,1.035L24.648,41.4a.992.992,0,0,1,.258.448l2.058,7.678Z"/><path class="h" d="M38.966,50.049l-1.932-.518,2.06-7.68a1.011,1.011,0,0,1,.259-.449l9.76-9.759a4,4,0,0,1,3.867-1.028,3.036,3.036,0,0,1,.678.261,3.606,3.606,0,0,1,1.1.753A4.049,4.049,0,0,1,55.818,33.5a4,4,0,0,1-1.051,3.8l-8.079,8.08-1.415-1.414,8.08-8.08a1.974,1.974,0,0,0,.528-1.9,2.05,2.05,0,0,0-.528-.939,1.77,1.77,0,0,0-.541-.372,1.666,1.666,0,0,0-.334-.136,1.983,1.983,0,0,0-1.951.507l-9.571,9.571Z"/></g></g></svg>