<svg xmlns="http://www.w3.org/2000/svg" width="24" height="24" viewBox="0 0 24 24"><defs><style>.a{fill:none;}.b{fill:#585858;}</style></defs><rect class="a" width="24" height="24"/><g transform="translate(1.24 1.998)"><path class="b" d="M17.784,8.358,13.7,14.611a2.227,2.227,0,0,1,.506,1.42,2.25,2.25,0,0,1-4.5,0,2.466,2.466,0,0,1,.038-.417l-2.7-1.57a2.236,2.236,0,0,1-1.561.628,2.263,2.263,0,0,1-1.106-.291L1.5,17.072v2.681a2.007,2.007,0,0,0,2,2h17a2.007,2.007,0,0,0,2-2V9.788L19.758,7.964a2.248,2.248,0,0,1-1.973.394Z" transform="translate(-1.5 -2.25)"/><path class="b" d="M5.484,10.172a2.251,2.251,0,0,1,2.25,2.25c0,.1-.009.2-.019.291l2.817,1.575a2.23,2.23,0,0,1,1.425-.506,2.354,2.354,0,0,1,.488.052l4.1-6.347a2.226,2.226,0,0,1-.417-1.3,2.25,2.25,0,0,1,4.5,0,2.445,2.445,0,0,1-.061.53L22.5,8.006V4.252a2.007,2.007,0,0,0-2-2H3.5a2.007,2.007,0,0,0-2,2V15l1.875-1.8a2.25,2.25,0,0,1,2.109-3.033Z" transform="translate(-1.5 -2.25)"/></g></svg>