<svg xmlns="http://www.w3.org/2000/svg" width="72" height="72" viewBox="0 0 72 72"><defs><style>.a{fill:rgba(255,255,255,0);}.b{fill:#f0915a;}.c{fill:#c91c24;}.d{fill:#930007;}.e{fill:#78af41;}.f{fill:#466932;}.g{fill:#fab991;}.h{fill:#950007;}.i{fill:#5f0004;}</style></defs><g transform="translate(-126 -33)"><rect class="a" width="72" height="72" transform="translate(126 33)"/><g transform="translate(117.317 7.89)"><g transform="translate(28.486 35.099)"><path class="b" d="M144.776,56a4.133,4.133,0,0,0-2.922,1.21L130.667,68.4V78.729h30.994a6.2,6.2,0,0,0,6.2-6.2h4.132V56Z" transform="translate(-130.667 -56)"/></g><g transform="translate(69.81 32)"><path class="c" d="M456.866,54.729V32h-3.1a3.1,3.1,0,0,0-3.1,3.1v16.53a3.1,3.1,0,0,0,3.1,3.1Z" transform="translate(-450.667 -32)"/></g><g transform="translate(72.91 43.364)"><path class="d" d="M474.667,122.066v9.3h3.1V120h-1.033A2.066,2.066,0,0,0,474.667,122.066Z" transform="translate(-474.667 -120)"/></g><g transform="translate(22.287 40.265)"><path class="e" d="M128.124,119.762v-21.7A2.066,2.066,0,0,0,126.058,96H84.733a2.066,2.066,0,0,0-2.066,2.066v21.7a2.066,2.066,0,0,0,2.066,2.066h41.325A2.066,2.066,0,0,0,128.124,119.762Z" transform="translate(-82.667 -96)"/></g><g transform="translate(25.386 43.364)"><path class="f" d="M106.667,135.5V124.132A1.033,1.033,0,0,1,107.7,123.1a2.066,2.066,0,0,0,2.066-2.066A1.033,1.033,0,0,1,110.8,120h30.994a1.033,1.033,0,0,1,1.033,1.033,2.066,2.066,0,0,0,2.066,2.066,1.033,1.033,0,0,1,1.033,1.033V135.5a1.033,1.033,0,0,1-1.033,1.033,2.066,2.066,0,0,0-2.066,2.066,1.033,1.033,0,0,1-1.033,1.033H110.8a1.033,1.033,0,0,1-1.033-1.033,2.066,2.066,0,0,0-2.066-2.066A1.033,1.033,0,0,1,106.667,135.5Z" transform="translate(-106.667 -120)"/></g><g transform="translate(37.267 45.431)"><circle class="e" cx="7.748" cy="7.748" r="7.748" transform="translate(0)"/></g><g transform="translate(37.606 35.099)"><path class="g" d="M211.625,57.21,201.9,66.936a2.066,2.066,0,0,0,0,2.922l.355.354a6.2,6.2,0,0,0,8.766,0l3.882-3.882h8.265a6.2,6.2,0,0,0,6.2-6.2V56H214.547A4.133,4.133,0,0,0,211.625,57.21Z" transform="translate(-201.294 -56)"/></g><g transform="translate(38.472 43.02)"><path class="b" d="M208,120.089a3.166,3.166,0,0,0,4.477,0,.731.731,0,0,0,0-1.033l-1.722-1.722Z" transform="translate(-208 -117.334)"/></g><g transform="translate(28.141 71.259)"><path class="g" d="M144.874,336h-9.308a4.132,4.132,0,0,0-2.922,1.21L128,341.854l5.854,5.854,2.839-2.838a2.066,2.066,0,0,1,1.461-.605h6.72a4.132,4.132,0,0,0,0-8.265Z" transform="translate(-128 -336)"/></g><g transform="translate(33.995 70.225)"><path class="b" d="M203.074,328.908a3.1,3.1,0,0,0-4.383,0l-8.39,8.39H177.633a2.067,2.067,0,0,0-1.461.605l-2.838,2.838,4.477,4.477,1.722-1.722h12.053a3.1,3.1,0,0,0,2.191-.908l9.3-9.3A3.1,3.1,0,0,0,203.074,328.908Z" transform="translate(-173.333 -328)"/></g><g transform="translate(13.333 76.508)"><path class="h" d="M38.128,389.994H13.333L26.377,376.95a1.033,1.033,0,0,1,1.461,0l10.936,10.936a1.033,1.033,0,0,1,0,1.461Z" transform="translate(-13.333 -376.647)"/></g><g transform="translate(27.108 82.967)"><path class="i" d="M126.887,426.667,120,433.554h11.02l.647-.647a1.033,1.033,0,0,0,0-1.461Z" transform="translate(-120 -426.667)"/></g><g transform="translate(42.949 73.325)"><path class="b" d="M244.733,356.132H243.7a1.033,1.033,0,0,1-1.033-1.033v-2.066A1.033,1.033,0,0,1,243.7,352h1.033a2.066,2.066,0,1,1,0,4.132Z" transform="translate(-242.667 -352)"/></g></g></g></svg>