<svg xmlns="http://www.w3.org/2000/svg" width="24" height="24" viewBox="0 0 24 24"><defs><style>.a{fill:none;}.b{fill:#585858;}</style></defs><rect class="a" width="24" height="24"/><path class="b" d="M13.5,4.287V4.5H9V0h.213a.844.844,0,0,1,.6.247L13.253,3.69a.844.844,0,0,1,.247.6ZM8.719,5.625a.846.846,0,0,1-.844-.844V0H.844A.844.844,0,0,0,0,.844V17.156A.844.844,0,0,0,.844,18H12.656a.844.844,0,0,0,.844-.844V5.625ZM4.331,14.08a.19.19,0,0,1-.268.009l-2.28-2.138a.19.19,0,0,1,0-.277l2.28-2.138a.19.19,0,0,1,.268.009l.688.734a.19.19,0,0,1-.013.272L3.574,11.813l1.433,1.261a.19.19,0,0,1,.013.272Zm1.8,1.775-.965-.28a.19.19,0,0,1-.129-.235L7.2,7.9a.19.19,0,0,1,.235-.129l.965.28a.19.19,0,0,1,.129.235l-2.16,7.44a.19.19,0,0,1-.235.129Zm5.653-3.9-2.28,2.138a.19.19,0,0,1-.268-.009l-.688-.734a.19.19,0,0,1,.013-.272L10,11.813,8.564,10.551a.19.19,0,0,1-.013-.272l.688-.734a.19.19,0,0,1,.268-.009l2.28,2.138a.19.19,0,0,1,0,.277Z" transform="translate(5.149 3)"/></svg>