<svg xmlns="http://www.w3.org/2000/svg" width="24" height="24" viewBox="0 0 24 24"><defs><style>.a{fill:#585858;}</style></defs><g transform="translate(-5.536)"><path class="a" d="M13.716,3.356A3.611,3.611,0,0,1,17.536,0a3.611,3.611,0,0,1,3.82,3.356,3.611,3.611,0,0,1-3.82,3.356A3.611,3.611,0,0,1,13.716,3.356ZM19.372,9a3.366,3.366,0,0,1,.786-1.967,5.525,5.525,0,0,0-1-.091H15.916a5.535,5.535,0,0,0-1,.09,3.356,3.356,0,0,1,.789,2.117A4.687,4.687,0,0,1,19.372,9Zm.647.3a3.815,3.815,0,0,1,2.029,2.846,3.909,3.909,0,0,0,1.487.293,3.327,3.327,0,0,0,3.52-3.092,3.327,3.327,0,0,0-3.52-3.093A3.334,3.334,0,0,0,20.019,9.3Zm-2.306,6.332a3.327,3.327,0,0,0,3.52-3.093,3.327,3.327,0,0,0-3.52-3.092,3.328,3.328,0,0,0-3.52,3.092A3.328,3.328,0,0,0,17.713,15.633Zm1.493.211H16.219a4.265,4.265,0,0,0-4.507,3.96v3.209l.009.05.252.069A23.14,23.14,0,0,0,18.1,24a14.049,14.049,0,0,0,5.35-.883l.235-.1h.025V19.8A4.263,4.263,0,0,0,19.206,15.843Zm5.824-3.192H22.066a3.62,3.62,0,0,1-1.339,2.655,4.831,4.831,0,0,1,3.825,4.5V20.8a13.532,13.532,0,0,0,4.724-.872l.235-.1h.025v-3.21A4.265,4.265,0,0,0,25.03,12.651ZM11.537,12.44a3.857,3.857,0,0,0,1.872-.477,3.77,3.77,0,0,1,1.637-2.441c0-.058.01-.115.01-.174a3.327,3.327,0,0,0-3.519-3.093,3.327,3.327,0,0,0-3.52,3.093A3.326,3.326,0,0,0,11.537,12.44ZM14.7,15.306a3.624,3.624,0,0,1-1.338-2.64c-.11-.007-.219-.015-.331-.015H10.043a4.265,4.265,0,0,0-4.507,3.959V19.82l.009.05.252.069a23.761,23.761,0,0,0,5.075.838v-.969A4.832,4.832,0,0,1,14.7,15.306Z"/></g></svg>