<svg xmlns="http://www.w3.org/2000/svg" width="50" height="50" viewBox="0 0 50 50"><defs><style>.a{fill:#afafaf;}</style></defs><path class="a" d="M25,0A25,25,0,1,0,50,25,24.986,24.986,0,0,0,25,0Zm0,46.667A21.667,21.667,0,1,1,46.667,25,21.691,21.691,0,0,1,25,46.667Z"/><g transform="translate(23.307 20.313)"><path class="a" d="M240.623,209.777a1.693,1.693,0,0,0-1.693,1.693v14.282a1.693,1.693,0,0,0,3.386,0V211.47A1.693,1.693,0,0,0,240.623,209.777Z" transform="translate(-238.93 -209.777)"/></g><g transform="translate(21.614 12.092)"><path class="a" d="M225.253,124.122a3.386,3.386,0,1,0,3.386,3.386A3.39,3.39,0,0,0,225.253,124.122Z" transform="translate(-221.867 -124.122)"/></g></svg>