<svg xmlns="http://www.w3.org/2000/svg" width="24" height="24" viewBox="0 0 24 24"><defs><style>.a{fill:none;}.b{fill:#585858;}</style></defs><rect class="a" width="24" height="24"/><path class="b" d="M9.805,17.982,7.661,17.36a.423.423,0,0,1-.288-.524l4.8-16.53a.423.423,0,0,1,.524-.288L14.839.64a.423.423,0,0,1,.288.524l-4.8,16.53a.421.421,0,0,1-.524.288ZM5.8,14.038l1.529-1.631a.422.422,0,0,0-.028-.6L4.113,9,7.3,6.2a.419.419,0,0,0,.028-.6L5.8,3.962a.422.422,0,0,0-.6-.018L.134,8.691a.419.419,0,0,0,0,.615L5.2,14.055a.419.419,0,0,0,.6-.018Zm11.5.021,5.066-4.75a.419.419,0,0,0,0-.615L17.3,3.941a.426.426,0,0,0-.6.018L15.173,5.59a.422.422,0,0,0,.028.6L18.387,9,15.2,11.8a.419.419,0,0,0-.028.6L16.7,14.038a.422.422,0,0,0,.6.021Z" transform="translate(0.576 2.999)"/></svg>