<svg xmlns="http://www.w3.org/2000/svg" width="72" height="72" viewBox="0 0 72 72"><defs><style>.a{fill:rgba(255,255,255,0);}.b{fill:#5cc45c;}.c{fill:#4ead4e;}.d{fill:#a0e557;}.e{fill:#93cc4a;}.f{fill:#f3e8d7;}.g{fill:#fcd7c3;}.h{fill:#ffcdac;}.i{fill:#c91c24;}.j{fill:#950007;}.k{fill:#efefef;}</style></defs><g transform="translate(-126 -33)"><rect class="a" width="72" height="72" transform="translate(126 33)"/><g transform="translate(131.461 7.574)"><path class="b" d="M180.919,58.387,153.447,85.859a.681.681,0,0,1-.964,0L137.1,70.479a.681.681,0,0,1,0-.964l27.472-27.472a.681.681,0,0,1,.964,0l15.38,15.38A.681.681,0,0,1,180.919,58.387Z" transform="translate(-120.44 -6.525)"/><path class="c" d="M264.588,141.091l-4.143-4.143-28.436,28.436,4.143,4.143a.681.681,0,0,0,.964,0l27.472-27.472A.682.682,0,0,0,264.588,141.091Z" transform="translate(-204.109 -90.193)"/><path class="d" d="M187.31,116.084a3.764,3.764,0,0,0,0-3.567.381.381,0,0,1,.062-.452l19.753-19.752a.381.381,0,0,1,.452-.062,3.763,3.763,0,0,0,3.568,0,.381.381,0,0,1,.452.062l7.661,7.661a.381.381,0,0,1,.062.452,3.763,3.763,0,0,0,0,3.567.381.381,0,0,1-.062.452L199.5,124.2a.381.381,0,0,1-.452.062,3.763,3.763,0,0,0-3.567,0,.381.381,0,0,1-.452-.062l-7.661-7.661A.381.381,0,0,1,187.31,116.084Z" transform="translate(-164.744 -50.828)"/><path class="e" d="M243.895,128.566a3.763,3.763,0,0,1,0-3.567.381.381,0,0,0-.062-.452l-4.411-4.411a3.759,3.759,0,0,0,0,4.057L219.255,144.36a3.759,3.759,0,0,0-4.057,0l4.411,4.411a.381.381,0,0,0,.452.062,3.763,3.763,0,0,1,3.567,0,.381.381,0,0,0,.452-.062l19.753-19.753A.381.381,0,0,0,243.895,128.566Z" transform="translate(-189.319 -75.403)"/><circle class="f" cx="5.603" cy="5.603" r="5.603" transform="translate(30.646 57.426) rotate(-45)"/><path class="g" d="M63.768,158.5l8.453-8.453c.974-.974,1.388-2.139.414-3.113-1.535-1.907-7.14-.378-9.8,2.281l-3.56,3.56a2.108,2.108,0,0,1-1.5.617h-.029a2.674,2.674,0,0,1-2.265-1.8v-7.811l1.395-1.395,1.533-1.533,6.087-6.087c-2.5-.281-4.994-.432-5.96-.548a3.707,3.707,0,0,0-2.823,1.042L47.926,141.4a6.96,6.96,0,0,0-2.272,3.511,74.616,74.616,0,0,1-3.78,10.7l-5.681,5.681,9.836,9.836,2.735-2.735a4.312,4.312,0,0,1,1.848-1.092l5.713-1.924a9.9,9.9,0,0,0,4.551-3.223Z" transform="translate(-31.841 -87.769)"/><path class="h" d="M99.2,249.13l2.892-3.657,8.453-8.453c.974-.974,1.388-2.139.414-3.113a3.407,3.407,0,0,0-2.994-.824,8.229,8.229,0,0,0-5.09,2.414l-5.38,5.38L94.6,244.533a9.9,9.9,0,0,1-4.551,3.223l-5.713,1.924a4.312,4.312,0,0,0-1.848,1.092l-2.735,2.735,4.6,4.6,2.735-2.735a4.312,4.312,0,0,1,1.848-1.092l5.713-1.924A9.9,9.9,0,0,0,99.2,249.13Z" transform="translate(-70.162 -174.743)"/><path class="i" d="M19.117,356.1,7.733,344.716a1.08,1.08,0,0,1,0-1.528l2-2a1.08,1.08,0,0,1,1.528,0l11.384,11.384a1.08,1.08,0,0,1,0,1.528l-2,2A1.08,1.08,0,0,1,19.117,356.1Z" transform="translate(-6.525 -269.592)"/><path class="j" d="M80,409.917l-3.861-3.861-3.531,3.531,3.861,3.861a1.08,1.08,0,0,0,1.528,0l2-2A1.08,1.08,0,0,0,80,409.917Z" transform="translate(-63.874 -326.939)"/><path class="k" d="M290.783,257.681a2.873,2.873,0,0,0-4.063,0l-1.276,1.276a1.479,1.479,0,0,0,0,2.091l1.284,1.284,4.353-4.353Z" transform="translate(-250.737 -195.667)"/><path d="M61.11,50.267,45.73,34.887a1.574,1.574,0,0,0-2.225,0l-8.458,8.458a.892.892,0,1,0,1.261,1.261L44.617,36.3,59.7,51.38,32.525,78.554l-3.166-3.166c.129-.146.255-.295.376-.448l.486-.615a1.273,1.273,0,0,0,.944-.111,2.889,2.889,0,0,1,2.719,0,1.285,1.285,0,0,0,.612.156A1.261,1.261,0,0,0,35.391,74L37.46,71.93A.892.892,0,1,0,36.2,70.668l-1.81,1.81a4.624,4.624,0,0,0-2.425-.357l.63-.8L36.622,67.3h0l3.588-3.588a6.494,6.494,0,1,0-6.231-10.875,6.543,6.543,0,0,0-1.627,6.455,10.514,10.514,0,0,0-1.986,1.525l-3.56,3.561a1.213,1.213,0,0,1-.864.355h-.029a1.828,1.828,0,0,1-1.374-1.05V60.588L42.753,42.374a4.623,4.623,0,0,0,3.729,0l7.142,7.142a4.624,4.624,0,0,0,0,3.729L39.182,67.685a.892.892,0,0,0,1.261,1.261l14.7-14.7a1.266,1.266,0,0,0,.216-1.506,2.888,2.888,0,0,1,0-2.719,1.265,1.265,0,0,0-.216-1.507l-7.661-7.661a1.266,1.266,0,0,0-1.507-.216,2.888,2.888,0,0,1-2.719,0,1.266,1.266,0,0,0-1.507.216L24.538,58.065V56.376l8.753-8.753a.892.892,0,0,0-.531-1.517c-1.489-.167-2.953-.287-4.129-.383-.807-.066-1.444-.118-1.824-.164a4.541,4.541,0,0,0-3.49,1.234l-7.784,6.141-.016.013a7.817,7.817,0,0,0-2.563,3.961A77.063,77.063,0,0,1,9.3,67.312L5.512,71.1l-.142-.142a1.972,1.972,0,0,0-2.789,0l-2,2a1.972,1.972,0,0,0,0,2.789L11.961,87.139a1.972,1.972,0,0,0,2.789,0l2-2a1.972,1.972,0,0,0,0-2.789l-.145-.145.945-.945a3.429,3.429,0,0,1,1.466-.867l.036-.011,5.718-1.925a10.775,10.775,0,0,0,3.3-1.829l3.34,3.34a1.574,1.574,0,0,0,2.225,0L61.11,52.492a1.574,1.574,0,0,0,0-2.225ZM35.991,65.4l-.653-.654a.588.588,0,0,1,0-.83l1.276-1.276a1.985,1.985,0,0,1,2.429-.292Zm-.751-11.31a4.711,4.711,0,0,1,7,6.283,2.574,2.574,0,0,0-.784-1.812A3.638,3.638,0,0,0,38.77,57.43a11.12,11.12,0,0,0-4.794,1.021A4.746,4.746,0,0,1,35.24,54.095ZM15.493,83.875l-2,2a.188.188,0,0,1-.266,0L1.839,74.494a.188.188,0,0,1,0-.266l2-2a.188.188,0,0,1,.266,0L15.493,83.608a.188.188,0,0,1,0,.266ZM29.346,72.557l-1.01,1.277a9.026,9.026,0,0,1-.846.928l-.01.009-.006.007A8.977,8.977,0,0,1,24.2,76.765l-5.7,1.918A5.22,5.22,0,0,0,16.292,80l-.945.945L6.773,72.366l3.891-3.891a.892.892,0,0,0,.159-.216,75.412,75.412,0,0,0,3.85-10.876,6.041,6.041,0,0,1,1.973-3.055l7.784-6.141.016-.013a2.814,2.814,0,0,1,2.149-.844c.413.05,1.065.1,1.891.171.663.054,1.419.116,2.216.19l-7.685,7.685a.892.892,0,0,0-.261.631h0v7.811a.89.89,0,0,0,.03.23,3.551,3.551,0,0,0,3.127,2.466h.029a2.985,2.985,0,0,0,2.126-.878l3.559-3.56A9.354,9.354,0,0,1,33.8,60.511l.01,0a.885.885,0,0,0,.108-.058,9.919,9.919,0,0,1,4.759-1.238,1.973,1.973,0,0,1,1.426.512.924.924,0,0,0,.064.071.779.779,0,0,1,.279.756,1.505,1.505,0,0,1-.191.466,3.771,3.771,0,0,0-4.9.367l-1.276,1.276a2.371,2.371,0,0,0,0,3.353l.654.654L31.3,70.1a.916.916,0,0,0-.069.078l-1.879,2.377Z"/></g></g></svg>