<svg xmlns="http://www.w3.org/2000/svg" width="72" height="72" viewBox="0 0 72 72"><defs><style>.a{fill:rgba(255,255,255,0);}.b{fill:#ffa000;}.c{fill:#ffc107;}.d{fill:#c91c24;}</style></defs><g transform="translate(-126 -33)"><rect class="a" width="72" height="72" transform="translate(126 33)"/><g transform="translate(134 39.381)"><path class="b" d="M147.54,351.1a9.77,9.77,0,1,1-9.77-9.77A9.77,9.77,0,0,1,147.54,351.1Zm0,0" transform="translate(-113.345 -302.253)"/><path class="c" d="M41.541,66.9A17.057,17.057,0,0,1,28.315,43.132,17.039,17.039,0,0,0,7.327,59.765v6.809A16.377,16.377,0,0,1,1.495,79.112a4.274,4.274,0,0,0,2.78,7.521h40.3A4.274,4.274,0,0,0,47.33,79.09,16.354,16.354,0,0,1,41.541,66.9Zm0,0" transform="translate(0 -37.783)"/><path class="d" d="M301.757,12.212A12.212,12.212,0,1,1,289.544,0,12.212,12.212,0,0,1,301.757,12.212Zm0,0" transform="translate(-245.58)"/></g></g></svg>