<svg xmlns="http://www.w3.org/2000/svg" width="24" height="24" viewBox="0 0 24 24"><rect width="24" height="24" fill="none"/><path d="M18.131,13.439l-.947-5.676a1.136,1.136,0,0,0-1.121-.947H7.378V4.545h3.406a.569.569,0,0,0,.568-.568V.568A.569.569,0,0,0,10.784,0H1.7a.569.569,0,0,0-.568.568V3.973a.569.569,0,0,0,.568.568H5.108V6.812H2.1a1.138,1.138,0,0,0-1.121.947L.027,13.435A2.2,2.2,0,0,0,0,13.808v3.221a1.134,1.134,0,0,0,1.135,1.135H17.024a1.134,1.134,0,0,0,1.135-1.135V13.811a1.883,1.883,0,0,0-.028-.373ZM9.933,8.8a.569.569,0,0,1,.568-.568h.568a.569.569,0,0,1,.568.568v.568a.569.569,0,0,1-.568.568H10.5a.569.569,0,0,1-.568-.568ZM8.8,11.069h.568a.569.569,0,0,1,.568.568V12.2a.569.569,0,0,1-.568.568H8.8A.569.569,0,0,1,8.23,12.2v-.568A.569.569,0,0,1,8.8,11.069ZM7.662,8.231A.569.569,0,0,1,8.23,8.8v.568a.569.569,0,0,1-.568.568H7.094a.569.569,0,0,1-.568-.568V8.8a.569.569,0,0,1,.568-.568ZM2.837,2.838V1.7H9.649V2.838Zm1.419,7.1H3.689a.569.569,0,0,1-.568-.568V8.8a.569.569,0,0,1,.568-.568h.568a.569.569,0,0,1,.568.568v.568A.569.569,0,0,1,4.256,9.934ZM4.824,12.2v-.568a.569.569,0,0,1,.568-.568h.568a.569.569,0,0,1,.568.568V12.2a.569.569,0,0,1-.568.568H5.391A.569.569,0,0,1,4.824,12.2Zm7.663,3.973a.285.285,0,0,1-.284.284H5.959a.285.285,0,0,1-.284-.284V15.61a.285.285,0,0,1,.284-.284H12.2a.285.285,0,0,1,.284.284Zm.851-3.973a.569.569,0,0,1-.568.568H12.2a.569.569,0,0,1-.568-.568v-.568a.569.569,0,0,1,.568-.568h.568a.569.569,0,0,1,.568.568Zm1.7-2.838a.569.569,0,0,1-.568.568h-.568a.569.569,0,0,1-.568-.568V8.8a.569.569,0,0,1,.568-.568h.568a.569.569,0,0,1,.568.568Z" transform="translate(2.75 2.585)" fill="#585858"/></svg>