<svg xmlns="http://www.w3.org/2000/svg" width="620" height="574.759" viewBox="0 0 620 574.759"><g transform="translate(-19.855 -23.261)"><g transform="translate(78.915 23.261)" opacity="0.88"><g transform="translate(459.491 130.876)"><g transform="translate(15.792 15.536)"><path d="M427.174,132.248a6.44,6.44,0,0,1,2.018.632,8.5,8.5,0,0,1,4.022,4.069,8.612,8.612,0,0,1,.82,3.932,8.722,8.722,0,0,1-1.352,4.407,8.744,8.744,0,0,1-3.86,3.318,8.707,8.707,0,0,1-10.123-2.27,8.755,8.755,0,0,1-2.074-4.65,8.743,8.743,0,0,1,.66-4.562,8.592,8.592,0,0,1,2.422-3.2,8.487,8.487,0,0,1,5.374-1.963,6.435,6.435,0,0,1,2.093.291c-.009.059-.746-.148-2.089-.1a8.51,8.51,0,0,0-5.156,2.038,8.338,8.338,0,0,0-2.857,7.445,8.327,8.327,0,0,0,1.99,4.391,8.269,8.269,0,0,0,9.568,2.146,8.352,8.352,0,0,0,3.673-3.121,8.338,8.338,0,0,0,.6-7.951,8.506,8.506,0,0,0-3.792-4.045C427.914,132.432,427.157,132.306,427.174,132.248Z" transform="translate(-416.552 -131.957)" fill="#fff"/></g><g transform="translate(0)"><path d="M438.088,127.115a1.706,1.706,0,0,1-.019-.3c-.005-.224-.012-.523-.022-.911-.011-.834-.028-2.037-.05-3.6l.062.077-7.773-1.7.14-.069-2.045,4.351-.036.078-.088,0a19.443,19.443,0,0,0-5.067.9l-.093.03-.07-.069c-1.065-1.055-2.218-2.2-3.417-3.384l.217.024-6.711,4.273.078-.228c.5,1.4,1.056,2.946,1.622,4.527l.042.116-.083.09a19.327,19.327,0,0,0-2.949,4.2l-.059.114h-.128l-4.806.018.211-.171c-.543,2.439-1.13,5.07-1.731,7.765l-.125-.256,4.344,2.058.127.061.007.141a19.4,19.4,0,0,0,.882,5.047l.043.136-.1.1-3.392,3.409.032-.3,4.262,6.72-.288-.1,4.531-1.614.14-.05.108.1a19.3,19.3,0,0,0,4.184,2.947h0c.059.1-.131-.216.133.217v2.411q0,1.2.005,2.4l-.191-.238,7.764,1.743-.272.133,2.064-4.341.062-.132.145-.005a19.24,19.24,0,0,0,5.049-.876l.137-.043.1.1,3.405,3.4-.29-.031,6.724-4.251-.092.265q-.818-2.307-1.607-4.533l-.044-.125.09-.1a19.25,19.25,0,0,0,2.961-4.189l.061-.114h.128l4.806,0-.2.16c.618-2.73,1.2-5.307,1.758-7.76l.1.21-4.337-2.073-.1-.046,0-.106a19.4,19.4,0,0,0-.867-5.069l-.03-.093.069-.069,3.405-3.4-.02.179-4.228-6.739.129.044-4.541,1.583-.046.016-.034-.032a20.133,20.133,0,0,0-3.087-2.377l-.827-.5a2.089,2.089,0,0,1-.272-.168,2.55,2.55,0,0,1,.292.132c.19.1.477.245.849.465a18.89,18.89,0,0,1,3.152,2.332l-.079-.016c1.234-.447,2.714-.986,4.519-1.642l.082-.03.048.074,4.287,6.7.062.1-.082.084c-1.045,1.057-2.152,2.175-3.381,3.419l.039-.162a19.7,19.7,0,0,1,.912,5.151l-.1-.152,4.347,2.053.136.063-.034.147c-.546,2.456-1.118,5.034-1.726,7.767l-.035.158h-.164l-4.806.019.187-.115a19.682,19.682,0,0,1-3.015,4.292l.046-.222q.8,2.225,1.619,4.529l.061.17-.152.1-6.716,4.265-.158.1-.132-.131-3.411-3.39.238.058a19.714,19.714,0,0,1-5.172.9l.208-.136q-1.02,2.15-2.06,4.343l-.083.175-.189-.042q-3.827-.859-7.764-1.739l-.191-.043v-.2l-.005-2.4,0-1.206v-1.206c.264.434.073.12.131.217h0a19.735,19.735,0,0,1-4.289-3.023l.248.051-4.531,1.611-.183.066-.105-.164c-1.463-2.313-2.907-4.595-4.255-6.723l-.1-.162.136-.136,3.4-3.405-.058.238a19.848,19.848,0,0,1-.9-5.172l.133.2c-1.5-.715-2.989-1.422-4.34-2.066l-.164-.078.04-.178,1.75-7.761.039-.17h.174l4.806,0-.186.114a19.666,19.666,0,0,1,3.027-4.281l-.043.2c-.56-1.584-1.107-3.13-1.6-4.534l-.053-.145.131-.082,6.73-4.242.118-.075.1.1,3.4,3.4-.162-.039a19.671,19.671,0,0,1,5.152-.881l-.124.082,2.08-4.333.043-.09.1.023,7.753,1.786.062.013v.062c-.013,1.548-.024,2.738-.032,3.565-.007.393-.013.7-.017.923A2.559,2.559,0,0,1,438.088,127.115Z" transform="translate(-404.828 -120.423)" fill="#fff"/></g></g><g transform="translate(399.258 444.13)"><path d="M500.668,434.425s-.016-.505-.024-1.467-.013-2.392-.024-4.251c-.013-3.734-.032-9.212-.055-16.245-.028-14.057-.069-34.317-.119-59.192l.222.221-140.259.066H360.4l.287-.287c-.007,28.722-.013,56.165-.02,81.154l-.267-.267,100.886.129,28.973.073,7.725.032c.871.008,1.536.013,2,.016s.688.016.688.016-.217.011-.656.016l-1.968.016-7.671.032-28.911.073-101.064.129h-.267v-.268c-.005-24.989-.013-52.433-.02-81.154v-.287h.3l140.259.066h.221v.221c-.05,24.931-.09,45.238-.117,59.329-.024,7.01-.043,12.472-.057,16.195-.011,1.84-.019,3.248-.024,4.209S500.668,434.425,500.668,434.425Z" transform="translate(-360.111 -352.984)" fill="#fff"/><g transform="translate(0.466 9.826)"><path d="M500.6,360.566c0,.159-31.375.287-70.068.287s-70.075-.128-70.075-.287,31.368-.287,70.075-.287S500.6,360.407,500.6,360.566Z" transform="translate(-360.457 -360.279)" fill="#fff"/></g><g transform="translate(12.437 23.495)"><rect width="43.329" height="43.329" fill="#fff"/></g><g transform="translate(67.668 30.354)"><path d="M473.065,375.806a2.666,2.666,0,0,1-.637.058l-1.828.054-6.72.092-22.173.083-22.175-.083-6.72-.092-1.826-.054a2.667,2.667,0,0,1-.637-.058,2.672,2.672,0,0,1,.637-.058l1.826-.054,6.72-.09,22.175-.085,22.173.085,6.72.09,1.828.054A2.671,2.671,0,0,1,473.065,375.806Z" transform="translate(-410.348 -375.519)" fill="#fff"/><g transform="translate(0 9.678)"><path d="M474.46,382.991a2.792,2.792,0,0,1-.652.058l-1.867.054-6.871.092-22.664.083-22.67-.083-6.87-.092L411,383.049a2.773,2.773,0,0,1-.651-.058,2.875,2.875,0,0,1,.651-.058l1.868-.053,6.87-.092,22.67-.085,22.664.085,6.871.092,1.867.053A2.894,2.894,0,0,1,474.46,382.991Z" transform="translate(-410.348 -382.704)" fill="#fff"/></g><g transform="translate(0 19.357)"><path d="M474.46,390.177a2.894,2.894,0,0,1-.652.058l-1.867.054-6.871.09-22.664.085-22.67-.085-6.87-.09L411,390.235a2.874,2.874,0,0,1-.651-.058,2.773,2.773,0,0,1,.651-.058l1.868-.054,6.87-.092,22.67-.083,22.664.083,6.871.092,1.867.054A2.792,2.792,0,0,1,474.46,390.177Z" transform="translate(-410.348 -389.89)" fill="#fff"/></g><g transform="translate(0 29.035)"><path d="M474.46,397.362a2.9,2.9,0,0,1-.652.058l-1.867.054-6.871.09-22.664.085-22.67-.085-6.87-.09L411,397.42a2.88,2.88,0,0,1-.651-.058A2.778,2.778,0,0,1,411,397.3l1.868-.054,6.87-.092,22.67-.083,22.664.083,6.871.092,1.867.054A2.8,2.8,0,0,1,474.46,397.362Z" transform="translate(-410.348 -397.075)" fill="#fff"/></g></g></g><g transform="translate(51.767)"><circle cx="58.295" cy="58.295" r="58.295" transform="translate(0 82.441) rotate(-45)" fill="#fff"/><g transform="translate(81.74 49.878)"><path d="M189.987,94.647a11.733,11.733,0,0,1-2.06.136l-5.665.114c-4.809.066-11.507.112-19.068.124h-.374v-.374c0-1.21,0-2.485,0-3.781,0-8.444.042-16.088.11-21.622.048-2.667.089-4.875.12-6.552a14.522,14.522,0,0,1,.147-2.4,14.714,14.714,0,0,1,.147,2.4c.031,1.677.071,3.885.12,6.552.069,5.533.11,13.177.11,21.622,0,1.3,0,2.571,0,3.781l-.374-.374c7.561.012,14.259.057,19.068.124l5.665.114A11.567,11.567,0,0,1,189.987,94.647Z" transform="translate(-162.817 -60.29)" fill="#fff"/></g><g transform="translate(81.919 33.722)"><path d="M163.327,48.3c.207,0,.377,2.193.377,4.9s-.17,4.9-.377,4.9-.377-2.193-.377-4.9S163.118,48.3,163.327,48.3Z" transform="translate(-162.95 -48.296)" fill="#fff"/></g><g transform="translate(102.021 41.576)"><path d="M184.71,54.138c.148.147-1.261,1.794-3.145,3.679s-3.533,3.295-3.68,3.147,1.261-1.794,3.147-3.68S184.563,53.99,184.71,54.138Z" transform="translate(-177.874 -54.127)" fill="#fff"/></g><g transform="translate(116.134 58.527)"><path d="M196.605,66.736c.1.19-1.754,1.3-4.017,2.682s-4.106,2.5-4.231,2.33,1.541-1.583,3.839-2.975S196.515,66.555,196.605,66.736Z" transform="translate(-188.351 -66.711)" fill="#fff"/></g><g transform="translate(120.135 83.351)"><g transform="translate(0 0)"><path d="M204.676,85.518c0,.209-2.989.377-6.677.377s-6.677-.168-6.677-.377,2.989-.377,6.677-.377S204.676,85.311,204.676,85.518Z" transform="translate(-191.322 -85.141)" fill="#fff"/></g></g><g transform="translate(28.282 82.461)"><path d="M135.743,84.857c0,.209-2.823.377-6.307.377s-6.307-.168-6.307-.377,2.823-.377,6.307-.377S135.743,84.65,135.743,84.857Z" transform="translate(-123.13 -84.48)" fill="#fff"/></g><g transform="translate(37.435 101.573)"><path d="M139.934,98.679c.136.158-2,2.093-4.766,4.322s-5.114,3.9-5.238,3.735,2.008-2.1,4.766-4.322S139.8,98.521,139.934,98.679Z" transform="translate(-129.925 -98.668)" fill="#fff"/></g><g transform="translate(56.894 116.073)"><path d="M151.077,109.438c.174.128-1.409,2.561-3.244,5.622s-3.249,5.6-3.443,5.5.932-2.8,2.8-5.892S150.916,109.318,151.077,109.438Z" transform="translate(-144.372 -109.434)" fill="#fff"/></g><g transform="translate(81.919 121.42)"><path d="M163.327,126.758c-.209,0-.377-2.99-.377-6.677s.168-6.678.377-6.678.377,2.989.377,6.678S163.535,126.758,163.327,126.758Z" transform="translate(-162.95 -113.403)" fill="#fff"/></g><g transform="translate(101.078 117.159)"><path d="M187.175,118.958c-.106.168-2.72-1.334-5.506-3.772s-4.639-4.811-4.487-4.939c.163-.144,2.231,1.981,4.982,4.371S187.3,118.777,187.175,118.958Z" transform="translate(-177.173 -110.24)" fill="#fff"/></g><g transform="translate(116.268 103.011)"><path d="M196.77,108.055c-.148.147-2.128-1.593-4.422-3.889s-4.036-4.274-3.889-4.421,2.127,1.592,4.422,3.887S196.917,107.907,196.77,108.055Z" transform="translate(-188.451 -99.736)" fill="#fff"/></g><g transform="translate(39.551 57.602)"><path d="M138.777,73.306c-.148.148-1.9-1.36-3.9-3.367s-3.517-3.755-3.369-3.9,1.894,1.362,3.9,3.369S138.923,73.159,138.777,73.306Z" transform="translate(-131.496 -66.025)" fill="#fff"/></g><g transform="translate(56.353 40.206)"><path d="M151.119,60.226c-.147.147-1.864-1.324-3.835-3.287s-3.451-3.673-3.3-3.82,1.864,1.323,3.836,3.285S151.265,60.078,151.119,60.226Z" transform="translate(-143.97 -53.109)" fill="#fff"/></g></g><g transform="translate(386.022 39.626)" opacity="0.8"><path d="M415.551,65.63a38.663,38.663,0,0,1,8.386,5.908l8.96-3.19,8.423,13.293-6.711,6.74A38.587,38.587,0,0,1,436.37,98.49l8.588,4.08-3.446,15.354-9.507.022a38.463,38.463,0,0,1-5.909,8.386l3.19,8.961-13.292,8.423-6.742-6.711a38.563,38.563,0,0,1-10.108,1.758l-4.077,8.59-15.357-3.444-.02-9.508a38.491,38.491,0,0,1-8.388-5.909l-8.961,3.191-8.423-13.293,6.713-6.742a38.678,38.678,0,0,1-1.76-10.106l-8.587-4.079,3.444-15.357,9.507-.019a38.476,38.476,0,0,1,5.909-8.388l-3.19-8.963,13.291-8.421,6.742,6.712A38.52,38.52,0,0,1,396.1,61.267l4.077-8.588,15.354,3.444.023,9.507ZM402.013,83.7a16.881,16.881,0,1,0,12.777,20.167A16.881,16.881,0,0,0,402.013,83.7Z" transform="translate(-350.285 -52.679)" fill="#fff" fill-rule="evenodd"/></g><g transform="translate(0 164.721)"><path d="M63.7,168.493h99.64s-8.812-16.034-34.46-13.7c-24.495,2.228-25.739-7.889-38.195-9.134S67.852,153.962,63.7,168.493Z" transform="translate(-63.701 -145.55)" fill="#fff"/></g><g transform="translate(215.646 350.251)"><path d="M223.8,301.859h80.652s-7.132-12.979-27.892-11.09c-19.828,1.8-20.835-6.385-30.917-7.394S227.158,290.1,223.8,301.859Z" transform="translate(-223.797 -283.288)" fill="#fff"/></g></g><g transform="translate(19.855 590.742)"><path d="M639.855,444.91c0,.194-138.8.352-309.985.352-171.243,0-310.015-.158-310.015-.352s138.772-.35,310.015-.35C501.052,444.56,639.855,444.716,639.855,444.91Z" transform="translate(-19.855 -444.56)" fill="#263238"/></g><g transform="translate(52.385 187.059)"><g transform="translate(357.815)"><g transform="translate(0.351 0.35)"><rect width="195.692" height="131.028" fill="#fff"/></g><path d="M505.691,276.244s-.019-.819-.03-2.384l-.031-6.913c-.018-6.064-.04-14.961-.071-26.352-.035-22.764-.086-55.486-.148-95.38l.28.28-195.677.071H310l.35-.352c-.011,46.68-.02,91.068-.03,131.029l-.321-.322,140.984.159,40.279.086,10.714.039,2.765.019c.624.007.95.019.95.019s-.3.012-.912.019l-2.729.019-10.651.039-40.206.086L310,276.564h-.322v-.322c-.008-39.961-.019-84.349-.03-131.029v-.35h.366l195.677.07h.281v.28c-.061,39.966-.112,72.748-.147,95.555-.031,11.363-.055,20.238-.071,26.289-.013,3-.024,5.3-.031,6.86C505.711,275.464,505.691,276.244,505.691,276.244Z" transform="translate(-309.648 -144.865)" fill="#e8505b"/><g transform="translate(0.352 11.693)"><path d="M309.909,153.9c0-.194,43.774-.35,97.761-.35,54,0,97.769.156,97.769.35s-43.765.35-97.769.35C353.683,154.246,309.909,154.09,309.909,153.9Z" transform="translate(-309.909 -153.546)" fill="#e8505b"/></g><g transform="translate(4.935 4.576)"><g opacity="0.3"><path d="M316.449,149.831a1.569,1.569,0,1,1-1.569-1.569A1.569,1.569,0,0,1,316.449,149.831Z" transform="translate(-313.312 -148.262)" fill="#e8505b"/></g><g transform="translate(5.374)" opacity="0.3"><path d="M320.438,149.831a1.568,1.568,0,1,1-1.568-1.569A1.568,1.568,0,0,1,320.438,149.831Z" transform="translate(-317.302 -148.262)" fill="#e8505b"/></g><g transform="translate(10.671)" opacity="0.3"><path d="M324.371,149.831a1.569,1.569,0,1,1-1.568-1.569A1.568,1.568,0,0,1,324.371,149.831Z" transform="translate(-321.234 -148.262)" fill="#e8505b"/></g></g><g transform="translate(17.175 25.707)" opacity="0.3"><rect width="52.201" height="52.201" fill="#e8505b"/></g><g transform="translate(78.269 40.112)"><path d="M458.694,174.994c0,.194-20.358.352-45.467.352s-45.471-.158-45.471-.352,20.354-.35,45.471-.35S458.694,174.8,458.694,174.994Z" transform="translate(-367.755 -174.644)" fill="#e8505b"/></g><g transform="translate(78.269 49.813)"><path d="M458.694,182.2c0,.194-20.358.35-45.467.35s-45.471-.156-45.471-.35,20.354-.35,45.471-.35S458.694,182,458.694,182.2Z" transform="translate(-367.755 -181.846)" fill="#e8505b"/></g><g transform="translate(78.269 59.512)"><path d="M458.694,189.4c0,.193-20.358.35-45.467.35s-45.471-.158-45.471-.35,20.354-.352,45.471-.352S458.694,189.2,458.694,189.4Z" transform="translate(-367.755 -189.047)" fill="#e8505b"/></g><g transform="translate(78.269 69.213)"><path d="M421.5,196.6a12.107,12.107,0,0,1-2.112.137l-5.758.11c-4.864.063-11.581.1-19,.1s-14.142-.04-19-.1l-5.76-.11a12.1,12.1,0,0,1-2.111-.137,12.21,12.21,0,0,1,2.111-.136l5.76-.112c4.863-.063,11.581-.1,19-.1s14.137.039,19,.1l5.758.112A12.219,12.219,0,0,1,421.5,196.6Z" transform="translate(-367.755 -196.249)" fill="#e8505b"/></g><g transform="translate(20.442 95.508)" opacity="0.3"><rect width="24.532" height="24.532" fill="#e8505b"/></g><g transform="translate(64.931 95.508)" opacity="0.3"><rect width="24.532" height="24.532" fill="#e8505b"/></g><g transform="translate(109.42 95.508)" opacity="0.3"><rect width="24.532" height="24.532" fill="#e8505b"/></g><g transform="translate(153.91 95.508)" opacity="0.3"><rect width="24.532" height="24.532" fill="#e8505b"/></g></g><g transform="translate(0 47.278)"><g transform="translate(0.277 0.276)"><rect width="174.329" height="70.81" fill="#fff"/></g><path d="M218.61,251.049s-.012-.435-.019-1.265-.012-2.066-.022-3.673c-.011-3.231-.027-7.978-.049-14.092-.024-12.221-.061-29.9-.105-51.779l.194.194-174.316.082h-.012l.276-.276c0,24.8-.008,48.732-.012,70.809l-.264-.264,124.99.125,36.259.073,9.7.034,2.512.016c.567.005.863.016.863.016s-.275.011-.83.018-1.4.008-2.481.016l-9.65.034-36.2.073-125.169.125h-.264v-.265c0-22.077-.008-46.013-.012-70.809v-.276h.288l174.316.082h.2v.194c-.044,21.929-.079,39.648-.105,51.9-.02,6.1-.036,10.828-.047,14.049-.009,1.592-.016,2.808-.022,3.638S218.61,251.049,218.61,251.049Z" transform="translate(-44.005 -179.964)" fill="#e8505b"/><g transform="translate(0.451 9.55)"><path d="M44.34,187.33c0-.154,38.965-.276,87.021-.276,48.072,0,87.031.123,87.031.276s-38.959.275-87.031.275C83.305,187.6,44.34,187.482,44.34,187.33Z" transform="translate(-44.34 -187.054)" fill="#e8505b"/></g><g transform="translate(5.218 4.289)"><g opacity="0.3"><path d="M50.41,184.414a1.265,1.265,0,1,1-1.265-1.266A1.266,1.266,0,0,1,50.41,184.414Z" transform="translate(-47.879 -183.148)" fill="#e8505b"/></g><g transform="translate(4.336)" opacity="0.3"><path d="M53.628,184.414a1.265,1.265,0,1,1-1.265-1.266A1.265,1.265,0,0,1,53.628,184.414Z" transform="translate(-51.098 -183.148)" fill="#e8505b"/></g><g transform="translate(8.609)" opacity="0.3"><path d="M56.8,184.414a1.265,1.265,0,1,1-1.266-1.266A1.266,1.266,0,0,1,56.8,184.414Z" transform="translate(-54.27 -183.148)" fill="#e8505b"/></g></g><g transform="translate(15.092 21.335)" opacity="0.3"><rect width="42.107" height="42.107" fill="#e8505b"/></g><g transform="translate(65.758 32.342)"><path d="M189.61,204.251c0,.152-21.669.276-48.392.276s-48.394-.124-48.394-.276,21.663-.276,48.394-.276S189.61,204.1,189.61,204.251Z" transform="translate(-92.824 -203.975)" fill="#e8505b"/><g transform="translate(0 8.579)"><path d="M189.61,210.62c0,.152-21.669.276-48.392.276s-48.394-.124-48.394-.276,21.663-.276,48.394-.276S189.61,210.467,189.61,210.62Z" transform="translate(-92.824 -210.344)" fill="#e8505b"/></g><g transform="translate(0 17.156)"><path d="M155.128,216.988a2.755,2.755,0,0,1-.633.055l-1.814.053-6.677.088-22.026.081-22.031-.081-6.676-.088-1.814-.053a2.755,2.755,0,0,1-.633-.055,2.756,2.756,0,0,1,.633-.055c.474-.015,1.075-.031,1.814-.053l6.676-.088,22.031-.081,22.026.081,6.677.088c.738.022,1.34.038,1.814.053A2.755,2.755,0,0,1,155.128,216.988Z" transform="translate(-92.824 -216.712)" fill="#e8505b"/></g></g></g></g><g transform="translate(254.158 97.721)"><path d="M283.5,114.367c-2.923-1.948-6.934-.769-9.856,1.18s-5.419,4.62-8.693,5.892c-6.148,2.39-14.207-.442-18.986,4.106-3.032,2.887-3.342,7.624-5.659,11.11-3.9,5.873-13.269,8.079-14.072,15.085-.469,4.087,2.764,8.005,6.715,9.151s8.3-.063,11.721-2.341c4-2.659,7.143-6.759,11.7-8.273,4.659-1.546,10.409-.252,14.085-3.5s3.126-9.236,5.762-13.389c1.4-2.21,3.615-3.753,5.6-5.463s3.869-3.828,4.2-6.425-.733-7.027-2.518-7.127" transform="translate(-182.566 -66.455)" fill="#fff" opacity="0.88"/><g transform="translate(0 45.953)"><g transform="translate(24.982 288.113)"><path d="M212.4,326.563c.166-.1.711.445,1.219,1.216s.792,1.49.634,1.6-.7-.434-1.22-1.218S212.23,326.664,212.4,326.563Z" transform="translate(-212.349 -326.551)" fill="#263238"/></g><g transform="translate(19.214 275.973)"><path d="M208.109,317.541c.183-.062.9,1.274,1.6,2.984s1.129,3.167.955,3.252-.892-1.251-1.6-2.985S207.926,317.6,208.109,317.541Z" transform="translate(-208.066 -317.538)" fill="#263238"/></g><g transform="translate(16.042 262.879)"><path d="M205.8,307.818c.193-.024.622,1.431.96,3.249s.458,3.332.269,3.378-.618-1.408-.959-3.249S205.611,307.842,205.8,307.818Z" transform="translate(-205.711 -307.818)" fill="#263238"/></g><g transform="translate(15.259 249.426)"><path d="M205.531,297.83c.193.013.33,1.525.3,3.374s-.2,3.355-.4,3.365-.33-1.5-.3-3.376S205.339,297.815,205.531,297.83Z" transform="translate(-205.13 -297.83)" fill="#263238"/></g><g transform="translate(16.336 236.138)"><path d="M207.432,287.966c.186.051.022,1.56-.368,3.369s-.863,3.25-1.055,3.221-.027-1.538.369-3.369S207.245,287.914,207.432,287.966Z" transform="translate(-205.93 -287.965)" fill="#263238"/></g><g transform="translate(19.886 223.582)"><path d="M211.361,278.648c.171.09-.3,1.532-1.059,3.218s-1.517,3-1.7,2.931.292-1.509,1.059-3.218S211.19,278.557,211.361,278.648Z" transform="translate(-208.565 -278.644)" fill="#263238"/></g><g transform="translate(26.072 212.352)"><path d="M217.19,270.315c.149.123-.624,1.428-1.727,2.914a9.131,9.131,0,0,1-2.279,2.505c-.182-.12.6-1.417,1.715-2.922S217.04,270.193,217.19,270.315Z" transform="translate(-213.158 -270.306)" fill="#263238"/></g><g transform="translate(34.496 202.37)"><path d="M224.075,262.908c.137.136-.789,1.338-2.07,2.682s-2.435,2.329-2.578,2.2.783-1.331,2.069-2.682S223.936,262.772,224.075,262.908Z" transform="translate(-219.412 -262.896)" fill="#263238"/></g><g transform="translate(43.898 192.792)"><path d="M231.136,255.8c.14.135-.807,1.319-2.115,2.645s-2.48,2.291-2.616,2.155.81-1.323,2.115-2.647S231,255.663,231.136,255.8Z" transform="translate(-226.392 -255.785)" fill="#263238"/></g><g transform="translate(53.204 182.64)"><path d="M237.592,248.256c.155.116-.68,1.382-1.866,2.826s-2.264,2.513-2.41,2.384.691-1.394,1.867-2.827S237.438,248.14,237.592,248.256Z" transform="translate(-233.301 -248.248)" fill="#263238"/></g><g transform="translate(61.256 171.083)"><path d="M242.393,239.671c.176.073-.267,1.54-1.132,3.207s-1.794,2.881-1.957,2.78.486-1.461,1.334-3.1S242.213,239.6,242.393,239.671Z" transform="translate(-239.279 -239.668)" fill="#263238"/></g><g transform="translate(66.475 158.068)"><path d="M244.328,230.006c.19.013.237,1.546-.073,3.4s-.849,3.292-1.033,3.242.042-1.537.341-3.357S244.131,229.993,244.328,230.006Z" transform="translate(-243.153 -230.006)" fill="#263238"/></g><g transform="translate(66.577 144.68)"><path d="M243.3,220.067c.183-.047.711,1.394,1,3.252s.226,3.392.038,3.4-.446-1.472-.73-3.295S243.11,220.116,243.3,220.067Z" transform="translate(-243.229 -220.066)" fill="#263238"/></g><g transform="translate(61.333 132.353)"><path d="M239.359,210.922c.156-.109,1.148,1.065,2.034,2.724s1.324,3.129,1.148,3.2-.894-1.247-1.766-2.869S239.2,211.032,239.359,210.922Z" transform="translate(-239.336 -210.915)" fill="#263238"/></g><g transform="translate(51.951 122.779)"><path d="M232.378,203.829c.1-.159,1.465.556,2.909,1.767s2.392,2.421,2.255,2.551-1.289-.835-2.7-2.014S232.267,203.993,232.378,203.829Z" transform="translate(-232.371 -203.807)" fill="#263238"/></g><g transform="translate(39.713 117.264)"><path d="M223.286,199.782c.04-.186,1.567,0,3.349.61s3.1,1.394,3.023,1.567-1.506-.308-3.25-.9S223.242,199.973,223.286,199.782Z" transform="translate(-223.285 -199.713)" fill="#263238"/></g><g transform="translate(26.33 116.001)"><path d="M213.35,199.5c-.034-.186,1.449-.6,3.334-.7s3.4.155,3.388.343-1.514.259-3.351.357S213.384,199.694,213.35,199.5Z" transform="translate(-213.35 -198.775)" fill="#263238"/></g><g transform="translate(13.898 118.453)"><path d="M204.127,203.818c-.11-.154,1.045-1.173,2.71-2.065s3.155-1.293,3.219-1.117-1.269.861-2.887,1.735S204.241,203.98,204.127,203.818Z" transform="translate(-204.12 -200.596)" fill="#263238"/></g><g transform="translate(4.632 126.032)"><path d="M197.265,211.549c-.163-.1.493-1.49,1.653-2.977s2.342-2.472,2.476-2.338-.8,1.313-1.922,2.768S197.434,211.652,197.265,211.549Z" transform="translate(-197.241 -206.222)" fill="#263238"/></g><g transform="translate(0 137.402)"><path d="M193.921,221.207c-.189-.018-.187-1.562.261-3.4s1.142-3.211,1.317-3.143-.2,1.521-.636,3.308S194.117,221.227,193.921,221.207Z" transform="translate(-193.802 -214.663)" fill="#263238"/></g><g transform="translate(0.014 150.669)"><path d="M195.516,231.05c-.176.069-.872-1.305-1.317-3.141s-.459-3.377-.271-3.4.513,1.445.952,3.23S195.7,230.98,195.516,231.05Z" transform="translate(-193.812 -224.513)" fill="#263238"/></g><g transform="translate(4.597 163.272)"><path d="M201.166,239.346c-.144.124-1.259-.925-2.357-2.453s-1.734-2.924-1.568-3.019,1.057,1.114,2.138,2.609S201.315,239.217,201.166,239.346Z" transform="translate(-197.215 -233.869)" fill="#263238"/></g><g transform="translate(13.215 173.579)"><path d="M208.865,245.772c-.11.156-1.444-.591-2.9-1.77s-2.469-2.326-2.338-2.466,1.339.761,2.78,1.921S208.978,245.612,208.865,245.772Z" transform="translate(-203.613 -241.521)" fill="#263238"/></g><g transform="translate(24.13 181.441)"><path d="M217.729,250.441c-.077.178-1.494-.365-3.163-1.214s-2.943-1.673-2.845-1.84,1.514.376,3.163,1.214S217.806,250.265,217.729,250.441Z" transform="translate(-211.716 -247.358)" fill="#263238"/></g><g transform="translate(36.433 186.879)"><path d="M227.378,253.121c-.034.189-1.558.07-3.376-.4s-3.211-1.094-3.151-1.274,1.534.136,3.326.594S227.413,252.928,227.378,253.121Z" transform="translate(-220.85 -251.395)" fill="#263238"/></g><g transform="translate(49.646 189.122)"><path d="M237.39,253.235c.022.189-1.478.51-3.357.544s-3.388-.221-3.374-.411,1.517-.253,3.361-.291S237.368,253.038,237.39,253.235Z" transform="translate(-230.659 -253.06)" fill="#263238"/></g><g transform="translate(63.004 185.793)"><path d="M246.914,250.626c.082.171-1.231.964-3,1.6s-3.288.861-3.334.676,1.363-.71,3.1-1.338S246.83,250.446,246.914,250.626Z" transform="translate(-240.576 -250.589)" fill="#263238"/></g><g transform="translate(75.228 178.457)"><path d="M255,245.158c.129.14-.893,1.281-2.384,2.423s-2.857,1.836-2.959,1.676,1.069-1.106,2.532-2.232S254.869,245.011,255,245.158Z" transform="translate(-249.651 -245.142)" fill="#263238"/></g><g transform="translate(85.284 168.275)"><path d="M261.18,237.59c.162.1-.525,1.47-1.654,2.97s-2.249,2.544-2.392,2.418.723-1.359,1.831-2.838S261.014,237.483,261.18,237.59Z" transform="translate(-257.117 -237.583)" fill="#263238"/></g><g transform="translate(92.626 156.166)"><path d="M265.122,228.6c.182.057-.127,1.556-.832,3.3s-1.518,3.037-1.688,2.953.348-1.5,1.039-3.215S264.935,228.535,265.122,228.6Z" transform="translate(-262.567 -228.594)" fill="#263238"/></g><g transform="translate(96.786 142.972)"><path d="M266.658,218.8c.191.013.241,1.541-.013,3.4s-.714,3.316-.9,3.277-.043-1.54.206-3.371S266.463,218.785,266.658,218.8Z" transform="translate(-265.656 -218.798)" fill="#263238"/></g><g transform="translate(97.266 129.515)"><path d="M266.188,208.808c.191-.026.465,1.467.609,3.334s.105,3.382-.089,3.386-.467-1.488-.61-3.334S266,208.835,266.188,208.808Z" transform="translate(-266.013 -208.808)" fill="#263238"/></g><g transform="translate(94.454 116.367)"><path d="M263.987,199.048c.185-.061.73,1.355,1.219,3.163s.731,3.305.543,3.346-.735-1.375-1.219-3.163S263.8,199.108,263.987,199.048Z" transform="translate(-263.925 -199.047)" fill="#263238"/></g><g transform="translate(89.327 103.917)"><path d="M260.152,189.808c.168-.088.983,1.2,1.793,2.883.756,1.712,1.223,3.159,1.044,3.231s-.932-1.241-1.68-2.935C260.506,191.317,259.977,189.9,260.152,189.808Z" transform="translate(-260.118 -189.804)" fill="#263238"/></g><g transform="translate(82.706 92.181)"><path d="M255.23,181.1c.166-.1,1.064,1.123,2.007,2.73s1.571,2.988,1.4,3.083-1.068-1.126-2.008-2.73S255.063,181.2,255.23,181.1Z" transform="translate(-255.203 -181.091)" fill="#263238"/></g><g transform="translate(76.015 80.481)"><path d="M250.266,172.409c.172-.089,1.04,1.156,1.938,2.779s1.492,3.02,1.324,3.118-1.034-1.146-1.938-2.78S250.093,172.5,250.266,172.409Z" transform="translate(-250.236 -172.405)" fill="#263238"/></g><g transform="translate(70.737 68.098)"><path d="M246.364,163.213c.186-.057.859,1.3,1.5,3.032s1.024,3.2.846,3.276-.85-1.28-1.5-3.033S246.178,163.269,246.364,163.213Z" transform="translate(-246.317 -163.212)" fill="#263238"/></g><g transform="translate(68.285 54.852)"><path d="M244.7,153.378c.2-.005.4,1.487.6,3.323s.308,3.339.116,3.374-.617-1.433-.814-3.3S244.513,153.383,244.7,153.378Z" transform="translate(-244.497 -153.378)" fill="#263238"/></g><g transform="translate(68.475 41.449)"><path d="M245.767,143.428c.193.042.023,1.541-.242,3.369s-.535,3.314-.731,3.3-.236-1.542.036-3.4S245.581,143.386,245.767,143.428Z" transform="translate(-244.638 -143.427)" fill="#263238"/></g><g transform="translate(71.35 28.736)"><path d="M249.417,133.993c.175.089-.364,1.5-1.074,3.2s-1.336,3.076-1.523,3.015.151-1.553.875-3.284S249.248,133.907,249.417,133.993Z" transform="translate(-246.772 -133.989)" fill="#263238"/></g><g transform="translate(77.356 17.577)"><path d="M255.38,125.716c.145.131-.744,1.348-1.872,2.808s-2.089,2.625-2.253,2.516.547-1.463,1.7-2.944S255.238,125.587,255.38,125.716Z" transform="translate(-251.232 -125.705)" fill="#263238"/></g><g transform="translate(86.269 8.701)"><path d="M263.194,119.138c.108.163-1.056,1.122-2.518,2.252s-2.687,2.008-2.818,1.863.9-1.274,2.39-2.419S263.089,118.978,263.194,119.138Z" transform="translate(-257.848 -119.115)" fill="#263238"/></g><g transform="translate(97.416 2.581)"><path d="M272.312,114.618c.065.185-1.3.826-2.994,1.56s-3.1,1.286-3.19,1.113,1.187-1.013,2.911-1.756S272.25,114.438,272.312,114.618Z" transform="translate(-266.124 -114.571)" fill="#263238"/></g><g transform="translate(110.057)"><path d="M278.824,112.812c.028.191-.686.482-1.592.651s-1.678.148-1.721-.04.671-.48,1.593-.651S278.8,112.62,278.824,112.812Z" transform="translate(-275.509 -112.655)" fill="#263238"/></g></g><g transform="translate(73.563 0)"><path d="M298.377,84.988s15.822-11.285,37.715-4c0,0,1.8,18.125-15.758,32.539" transform="translate(-231.079 -78.54)" fill="#e8505b"/><path d="M261.351,117.606c.673,1.01,17.842,28.612,17.842,28.612l51.554-31.76a18.044,18.044,0,0,0,5.035-26.1h0a18.044,18.044,0,0,0-24.558-4.24Z" transform="translate(-243.926 -77.669)" fill="#e8505b"/><path d="M274.895,133.227l-1.156,19.421s33.409-16.18,25.071-34.154Z" transform="translate(-239.628 -64.677)" fill="#263238"/><path d="M289.72,97.142s-22.649-9.995-41.305,4.663l17.425,11.373Z" transform="translate(-248.415 -73.24)" fill="#263238"/><path d="M287.266,108.3l-32.24,20.168s1.107,3.467,1.973,3.179c.726-.242,24.953-14.547,32.808-19.192a2.427,2.427,0,0,0,.634-3.634h0A2.437,2.437,0,0,0,287.266,108.3Z" transform="translate(-246.121 -68.344)" fill="#263238"/><g transform="translate(58.429 12.256)"><circle cx="10.322" cy="10.322" r="10.322" transform="matrix(0.229, -0.973, 0.973, 0.229, 0, 20.096)" fill="#fafafa"/><g transform="translate(1.739 1.798)"><path d="M314.079,99.587c-.081.005-.038-.92-.455-2.487a10.3,10.3,0,0,0-3.773-5.52,10.041,10.041,0,0,0-9.5-1.383,9.884,9.884,0,0,0-4.63,3.493,9.948,9.948,0,0,0,0,11.794,9.9,9.9,0,0,0,4.631,3.494,10.045,10.045,0,0,0,9.5-1.383,10.292,10.292,0,0,0,3.772-5.52c.418-1.568.374-2.492.455-2.488a2.336,2.336,0,0,1,.036.663,8.158,8.158,0,0,1-.228,1.891,10.268,10.268,0,0,1-3.735,5.849,10.441,10.441,0,0,1-4.437,2.023,10.611,10.611,0,0,1-5.586-.427,10.486,10.486,0,0,1-4.964-3.693,10.582,10.582,0,0,1,0-12.609,10.474,10.474,0,0,1,4.962-3.693,10.606,10.606,0,0,1,5.585-.427,10.417,10.417,0,0,1,4.437,2.023,10.271,10.271,0,0,1,3.737,5.849,8.158,8.158,0,0,1,.228,1.891A2.314,2.314,0,0,1,314.079,99.587Z" transform="translate(-293.084 -88.974)" fill="#263238"/></g></g><g transform="translate(74.96 2.476)"><path d="M322.836,109.45c-.133.013-.29-2-1.08-5.141a39.127,39.127,0,0,0-1.794-5.377,38.8,38.8,0,0,0-7.491-11.6,39.419,39.419,0,0,0-4.162-3.85c-2.535-2.011-4.309-2.982-4.242-3.1a5.457,5.457,0,0,1,1.285.607,13.773,13.773,0,0,1,1.436.849c.542.358,1.181.738,1.822,1.25a34.594,34.594,0,0,1,4.329,3.8,36.384,36.384,0,0,1,7.62,11.8,34.671,34.671,0,0,1,1.68,5.509c.2.795.286,1.534.389,2.175a14.034,14.034,0,0,1,.183,1.657A5.5,5.5,0,0,1,322.836,109.45Z" transform="translate(-304.066 -80.378)" fill="#263238"/></g><g transform="translate(71.934 3.38)"><path d="M320.834,110.7c-.133.013-.295-2.038-1.1-5.229A40.216,40.216,0,0,0,317.913,100a39.85,39.85,0,0,0-7.585-11.828,40.458,40.458,0,0,0-4.213-3.939c-2.566-2.062-4.362-3.064-4.294-3.18a5.614,5.614,0,0,1,1.3.63,14.218,14.218,0,0,1,1.453.874c.548.369,1.195.761,1.844,1.285a35.468,35.468,0,0,1,4.38,3.887,37.353,37.353,0,0,1,7.713,12.026,35.678,35.678,0,0,1,1.705,5.6c.2.808.292,1.56.4,2.213a14.661,14.661,0,0,1,.189,1.685A5.715,5.715,0,0,1,320.834,110.7Z" transform="translate(-301.819 -81.049)" fill="#263238"/></g></g></g><g transform="translate(43.079 375.284)"><g transform="translate(50.586 92.028)"><path d="M84.334,444.576c-1.154-4.58,1.87-9.154,5.251-12.453S97,425.874,98.774,421.5c2.873-7.092-.884-16.316,3.984-22.219,2.864-3.471,7.97-4.609,10.516-8.323,1.335-1.946,1.777-4.347,2.31-6.646a67.647,67.647,0,0,1,17-31.385,58.689,58.689,0,0,1-6.773,30.3c-1.979,3.718-4.4,7.338-5.075,11.5-1.092,6.751,2.639,13.732.942,20.357-1.941,7.577-10.493,12.606-10.941,20.415-.379,6.6,5.343,12.428,4.877,19.025a17.835,17.835,0,0,1-2.982,7.814c-5.154,8.458-12.687,14.262-24.054,14.007l-13.926.408Z" transform="translate(-74.652 -352.926)" fill="#e8505b"/></g><g transform="translate(50.586 92.028)" opacity="0.3"><path d="M84.334,444.576c-1.154-4.58,1.87-9.154,5.251-12.453S97,425.874,98.774,421.5c2.873-7.092-.884-16.316,3.984-22.219,2.864-3.471,7.97-4.609,10.516-8.323,1.335-1.946,1.777-4.347,2.31-6.646a67.647,67.647,0,0,1,17-31.385,58.689,58.689,0,0,1-6.773,30.3c-1.979,3.718-4.4,7.338-5.075,11.5-1.092,6.751,2.639,13.732.942,20.357-1.941,7.577-10.493,12.606-10.941,20.415-.379,6.6,5.343,12.428,4.877,19.025a17.835,17.835,0,0,1-2.982,7.814c-5.154,8.458-12.687,14.262-24.054,14.007l-13.926.408Z" transform="translate(-74.652 -352.926)"/></g><g transform="translate(0 43.592)"><path d="M84.861,489.574a11.109,11.109,0,0,1-3.834-.1,23.339,23.339,0,0,1-4.518-1.165,19.163,19.163,0,0,1-5.571-3.093,7.79,7.79,0,0,1-2.28-3.075,14.383,14.383,0,0,1-.632-4.165,40.424,40.424,0,0,0-.3-4.506,12.421,12.421,0,0,0-1.677-4.487c-1.624-2.893-4.335-5.638-5.194-9.559-.931-3.858-.224-8.021.449-12.2s1.321-8.722-.251-13.082c-1.47-4.363-4.5-8.312-6-13.23-1.492-4.966-.753-10.295-1.044-15.556a20.638,20.638,0,0,0-1.771-7.742c-1.113-2.47-2.662-4.8-3.867-7.406-2.442-5.26-2.843-11.207-3.487-17.037q-.469-4.407-.948-8.9a43.487,43.487,0,0,0-1.5-8.913,78.788,78.788,0,0,0-3.281-8.637,28.627,28.627,0,0,1-1.591-4.51,45.261,45.261,0,0,1-.422-4.791,56.386,56.386,0,0,1,.424-9.636c.4-3.211,1-6.393,1.359-9.611.022-.19.044-.381.065-.555l.077-.641.568.288a21.513,21.513,0,0,1,7.46,6.368,34.143,34.143,0,0,1,4.557,8.513c2.293,6,3.094,12.27,4.232,18.258,1.11,5.989,2.586,11.883,5.625,16.872,1.513,2.489,3.346,4.763,4.947,7.191a19.669,19.669,0,0,1,3.409,7.955c.791,5.894-2.484,11.049-1.837,16.269a18.043,18.043,0,0,0,2.5,7.24c1.251,2.232,2.726,4.3,4.124,6.386a40.918,40.918,0,0,1,3.7,6.444,20.366,20.366,0,0,1,1.67,6.991c.314,4.7-.378,9.147-.059,13.355a30.746,30.746,0,0,0,3.371,11.463c1.665,3.435,3.521,6.544,5.073,9.557a48.652,48.652,0,0,1,2.086,4.449,21.8,21.8,0,0,1,1.2,4.409,27.839,27.839,0,0,1,.058,7.949,20.023,20.023,0,0,1-4.042,10.112,9.555,9.555,0,0,1-1.133,1.214,5.527,5.527,0,0,1-.919.771c-.521.38-.8.554-.8.554a17.519,17.519,0,0,0,2.711-2.651,20.159,20.159,0,0,0,3.838-10.044,27.662,27.662,0,0,0-.133-7.834,21.549,21.549,0,0,0-1.207-4.3c-.585-1.44-1.312-2.9-2.1-4.39-1.565-2.986-3.442-6.083-5.141-9.539a31.241,31.241,0,0,1-3.49-11.666c-.342-4.3.33-8.763,0-13.35A19.653,19.653,0,0,0,77.7,419.04a40.2,40.2,0,0,0-3.658-6.317c-1.4-2.068-2.889-4.146-4.177-6.425a18.836,18.836,0,0,1-2.614-7.538c-.638-5.559,2.612-10.748,1.8-16.228a18.89,18.89,0,0,0-3.295-7.609c-1.576-2.383-3.419-4.661-4.976-7.21-3.136-5.135-4.635-11.141-5.757-17.154-1.149-6.026-1.953-12.235-4.2-18.106a33.271,33.271,0,0,0-4.438-8.289,20.6,20.6,0,0,0-7.144-6.106l.644-.352-.066.56c-.369,3.257-.968,6.445-1.36,9.619a55.541,55.541,0,0,0-.423,9.489,45.235,45.235,0,0,0,.4,4.647,27.909,27.909,0,0,0,1.538,4.349,79.476,79.476,0,0,1,3.307,8.732,44.279,44.279,0,0,1,1.515,9.061q.475,4.5.937,8.909c.632,5.855,1.034,11.707,3.386,16.783,1.161,2.528,2.709,4.868,3.854,7.419A21.438,21.438,0,0,1,54.8,405.3c.272,5.376-.457,10.624.97,15.392,1.417,4.745,4.432,8.715,5.942,13.217,1.616,4.55.909,9.247.221,13.406-.7,4.188-1.394,8.265-.519,11.972.784,3.745,3.416,6.464,5.074,9.441a12.872,12.872,0,0,1,1.7,4.666,40.463,40.463,0,0,1,.267,4.56,14.155,14.155,0,0,0,.571,4.05,7.463,7.463,0,0,0,2.143,2.943,19.124,19.124,0,0,0,5.436,3.106,23.96,23.96,0,0,0,4.454,1.235,17.887,17.887,0,0,0,2.83.291C84.528,489.562,84.861,489.574,84.861,489.574Z" transform="translate(-37.097 -316.967)" fill="#263238"/><g transform="translate(4.696 8.324)"><path d="M40.588,323.147a1.651,1.651,0,0,1,.132.422c.079.334.179.746.3,1.255.267,1.1.585,2.756,1.1,4.826.535,2.065,1.785,4.407,2.848,7.29,1.107,2.86,2.228,6.173,3.254,9.895s1.959,7.847,2.918,12.271c.99,4.414,1.976,9.15,4.38,13.623,1.129,2.268,2.4,4.565,3.407,7.074a32.912,32.912,0,0,1,1.96,8,161.578,161.578,0,0,0,2.905,16.863c2.728,11.426,5.325,22.309,7.69,32.218,2.425,9.876,4.608,18.776,6.449,26.278,1.791,7.434,3.246,13.474,4.273,17.734.473,2.043.846,3.658,1.118,4.833.109.51.2.927.268,1.262a1.594,1.594,0,0,1,.062.436,1.644,1.644,0,0,1-.15-.415c-.1-.33-.211-.738-.356-1.241-.311-1.164-.739-2.765-1.281-4.793l-4.547-17.664c-1.9-7.489-4.142-16.374-6.637-26.232-2.388-9.912-5.011-20.8-7.764-32.226a159.511,159.511,0,0,1-2.9-16.932,32.073,32.073,0,0,0-1.886-7.808c-.97-2.446-2.221-4.731-3.35-7.023-2.425-4.558-3.417-9.437-4.367-13.833-.928-4.434-1.806-8.551-2.8-12.262s-2.054-7.022-3.112-9.885c-1.008-2.872-2.217-5.241-2.717-7.375-.471-2.123-.727-3.763-.939-4.881-.086-.516-.156-.933-.213-1.273A1.658,1.658,0,0,1,40.588,323.147Z" transform="translate(-40.583 -323.147)" fill="#263238"/></g></g><g transform="translate(35.835)"><path d="M73.173,500.833c-9.064-5.458-11.581-21.882-7.732-31.736s10.541-18.841,11.626-29.365c.832-8.091-1.771-16.414.159-24.314,2.605-10.664,13.076-18.875,13.019-29.852-.032-6.158-3.5-11.972-3.19-18.124.385-7.543,6.212-13.5,9.837-20.125,5.548-10.144,5.978-22.173,7.92-33.571s6.36-23.592,16.5-29.142c1.439,9.694,3.951,16.343,3.075,29.461-.315,4.71-5.84,13.7-6.643,24.025-.481,6.17-.824,12.35-1.237,18.526-.4,6.009-.826,12.128-3.012,17.74-1.676,4.3-4.351,8.2-5.6,12.644-2.355,8.358.625,17.442-1.286,25.912-1.619,7.177-6.627,13.332-7.685,20.613-1.486,10.229,5.079,20.9,1.633,30.649-1.711,4.836-5.718,8.7-6.878,13.7-.9,3.878.034,7.993-.783,11.888-1.316,6.276-13.328,11.087-19.725,10.663" transform="translate(-63.701 -284.604)" fill="#e8505b"/><g transform="translate(9.467 9.601)"><path d="M116.316,291.732a2.567,2.567,0,0,1-.043.547c-.055.407-.125.931-.214,1.591-.217,1.4-.463,3.45-.951,6.1-.523,2.668-1.915,5.668-3.036,9.287-1.181,3.607-2.36,7.771-3.407,12.434-1.064,4.661-1.963,9.821-2.905,15.374-.974,5.512-1.971,11.6-4.76,17.375-1.293,2.9-2.741,5.8-3.832,8.9a40.1,40.1,0,0,0-1.975,9.817,198.231,198.231,0,0,1-2.787,21.171c-2.868,14.336-5.6,27.992-8.083,40.42-2.616,12.379-4.973,23.532-6.957,32.92-2,9.32-3.627,16.882-4.764,22.178-.572,2.569-1.021,4.585-1.34,6.021-.154.647-.276,1.161-.37,1.56a2.574,2.574,0,0,1-.156.527,2.354,2.354,0,0,1,.066-.544c.073-.4.166-.925.284-1.58.28-1.443.673-3.471,1.175-6.055,1.072-5.31,2.6-12.891,4.488-22.236,1.93-9.4,4.223-20.566,6.769-32.959,2.462-12.426,5.168-26.076,8.009-40.408a200.629,200.629,0,0,0,2.8-21.1,40.713,40.713,0,0,1,2.041-10.013c1.125-3.16,2.593-6.073,3.885-8.949,2.773-5.686,3.77-11.634,4.783-17.166.974-5.543,1.91-10.717,3.019-15.387,1.091-4.673,2.317-8.844,3.548-12.451,1.176-3.632,2.612-6.6,3.172-9.2.533-2.605.841-4.678,1.113-6.057.125-.653.225-1.173.3-1.576A2.392,2.392,0,0,1,116.316,291.732Z" transform="translate(-70.729 -291.732)" fill="#263238"/></g></g></g><g transform="translate(535.228 355.073)"><g transform="translate(0 24.461)"><rect width="9.388" height="30.33" fill="#e8505b"/></g><g transform="translate(17.28 11.978)"><rect width="9.388" height="42.812" fill="#e8505b"/></g><g transform="translate(35.672 6.149)"><rect width="9.388" height="48.642" fill="#e8505b"/></g><g transform="translate(54.064)"><rect width="9.388" height="54.791" fill="#e8505b"/></g></g><g transform="translate(158.672 342.084)"><g transform="translate(33.668 60.974)"><g transform="translate(15.792 15.535)"><path d="M170.256,317.047a6.45,6.45,0,0,1,2.018.632,8.5,8.5,0,0,1,4.021,4.071,8.607,8.607,0,0,1,.822,3.932,8.756,8.756,0,0,1-1.352,4.407,8.738,8.738,0,0,1-3.862,3.318,8.71,8.71,0,0,1-10.121-2.27,8.744,8.744,0,0,1-2.076-4.65,8.748,8.748,0,0,1,.66-4.564,8.617,8.617,0,0,1,2.422-3.2,8.507,8.507,0,0,1,5.374-1.963,6.5,6.5,0,0,1,2.095.291c-.009.061-.746-.148-2.089-.1a8.507,8.507,0,0,0-5.156,2.037,8.333,8.333,0,0,0-2.857,7.445,8.348,8.348,0,0,0,1.988,4.392,8.27,8.27,0,0,0,9.568,2.146,8.342,8.342,0,0,0,3.673-3.122,8.342,8.342,0,0,0,.6-7.951,8.51,8.51,0,0,0-3.793-4.044C170.994,317.231,170.238,317.106,170.256,317.047Z" transform="translate(-159.632 -316.756)" fill="#263238"/></g><path d="M181.168,311.915a1.946,1.946,0,0,1-.019-.3c0-.224-.012-.523-.02-.909-.012-.835-.028-2.037-.05-3.6l.061.075-7.773-1.7.14-.067-2.045,4.349-.036.078-.088,0a19.467,19.467,0,0,0-5.067.9l-.093.03-.069-.069c-1.065-1.055-2.218-2.2-3.419-3.384l.217.023-6.709,4.274.078-.228c.5,1.4,1.055,2.945,1.622,4.527l.04.116-.083.089a19.431,19.431,0,0,0-2.949,4.2l-.058.113h-.129l-4.806.016.213-.17c-.544,2.438-1.13,5.069-1.732,7.765l-.124-.256,4.343,2.058.128.059.005.141a19.392,19.392,0,0,0,.884,5.047l.043.137-.1.1-3.39,3.409.032-.3,4.261,6.719-.287-.1,4.53-1.615.14-.049.109.1a19.251,19.251,0,0,0,4.182,2.947h0c.059.1-.131-.217.133.217v1.206l0,1.2q0,1.2,0,2.4l-.191-.238,7.764,1.743-.272.132,2.064-4.341.063-.131.144-.005a19.285,19.285,0,0,0,5.048-.876l.137-.043.1.1,3.405,3.4-.29-.032,6.724-4.251-.092.267q-.818-2.307-1.607-4.533l-.046-.127.092-.1a19.336,19.336,0,0,0,2.961-4.188l.059-.115h.128l4.806,0-.2.159c.618-2.729,1.2-5.306,1.758-7.76l.1.211-4.337-2.073-.1-.046,0-.106a19.4,19.4,0,0,0-.869-5.069l-.028-.093.069-.069c1.237-1.235,2.35-2.346,3.4-3.4l-.02.18-4.228-6.74.129.044-4.539,1.584-.046.016-.035-.032a20.253,20.253,0,0,0-3.087-2.379l-.827-.5a2.229,2.229,0,0,1-.272-.167,2.061,2.061,0,0,1,.292.132c.19.1.477.245.849.465a18.885,18.885,0,0,1,3.153,2.332l-.081-.016,4.52-1.642.082-.03.047.074,4.287,6.7.062.1-.082.082-3.381,3.419.039-.162a19.653,19.653,0,0,1,.913,5.152l-.1-.152,4.348,2.051.135.065-.032.146c-.546,2.456-1.119,5.035-1.727,7.767l-.035.159h-.163c-1.561.007-3.159.014-4.806.019l.187-.113a19.759,19.759,0,0,1-3.015,4.292l.046-.222q.794,2.222,1.618,4.527l.061.17-.152.1-6.716,4.265-.156.1-.133-.132-3.411-3.389.238.058a19.768,19.768,0,0,1-5.172.9l.207-.137q-1.018,2.152-2.06,4.344l-.082.175-.19-.043-7.764-1.739-.191-.042v-.2l-.005-2.4,0-1.206v-1.2c.264.432.073.12.132.216h0a19.768,19.768,0,0,1-4.289-3.023l.248.051-4.531,1.611-.183.066-.1-.164-4.255-6.723-.1-.163.135-.135,3.4-3.406-.058.238a19.835,19.835,0,0,1-.9-5.171l.132.2c-1.5-.717-2.988-1.424-4.34-2.066l-.164-.079.04-.176c.607-2.7,1.2-5.323,1.751-7.761l.038-.171h.174l4.807,0-.187.113a19.745,19.745,0,0,1,3.027-4.281l-.042.206c-.56-1.585-1.109-3.13-1.6-4.534l-.051-.146.129-.082,6.73-4.243.119-.074.1.1c1.193,1.193,2.34,2.342,3.4,3.4l-.162-.039a19.666,19.666,0,0,1,5.154-.88l-.124.082,2.078-4.333.043-.09.1.022,7.752,1.786.062.015v.062c-.015,1.546-.026,2.738-.034,3.565-.007.392-.012.695-.016.921A2.383,2.383,0,0,1,181.168,311.915Z" transform="translate(-147.908 -305.223)" fill="#263238"/></g><g transform="translate(15.791)"><path d="M171.115,267.2a21.591,21.591,0,0,1,4.687,3.3l5.008-1.783,4.706,7.43-3.75,3.767a21.555,21.555,0,0,1,.983,5.651l4.8,2.279-1.925,8.582-5.314.012a21.493,21.493,0,0,1-3.3,4.688l1.783,5.009-7.429,4.706-3.767-3.75a21.552,21.552,0,0,1-5.651.982l-2.279,4.8-8.583-1.925-.011-5.314a21.487,21.487,0,0,1-4.687-3.3l-5.009,1.783-4.708-7.43,3.753-3.767a21.6,21.6,0,0,1-.985-5.649l-4.8-2.279,1.925-8.583,5.314-.012a21.517,21.517,0,0,1,3.3-4.687l-1.783-5.008,7.43-4.708,3.768,3.751a21.544,21.544,0,0,1,5.649-.983l2.279-4.8,8.583,1.925.012,5.315Zm-7.567,10.1a9.435,9.435,0,1,0,7.142,11.273A9.436,9.436,0,0,0,163.548,277.294Z" transform="translate(-134.636 -259.956)" fill="#e8505b" fill-rule="evenodd"/><g opacity="0.8"><path d="M171.115,267.2a21.591,21.591,0,0,1,4.687,3.3l5.008-1.783,4.706,7.43-3.75,3.767a21.555,21.555,0,0,1,.983,5.651l4.8,2.279-1.925,8.582-5.314.012a21.493,21.493,0,0,1-3.3,4.688l1.783,5.009-7.429,4.706-3.767-3.75a21.552,21.552,0,0,1-5.651.982l-2.279,4.8-8.583-1.925-.011-5.314a21.487,21.487,0,0,1-4.687-3.3l-5.009,1.783-4.708-7.43,3.753-3.767a21.6,21.6,0,0,1-.985-5.649l-4.8-2.279,1.925-8.583,5.314-.012a21.517,21.517,0,0,1,3.3-4.687l-1.783-5.008,7.43-4.708,3.768,3.751a21.544,21.544,0,0,1,5.649-.983l2.279-4.8,8.583,1.925.012,5.315Zm-7.567,10.1a9.435,9.435,0,1,0,7.142,11.273A9.436,9.436,0,0,0,163.548,277.294Z" transform="translate(-134.636 -259.956)" fill="#fff" fill-rule="evenodd"/></g></g><g transform="translate(0 53.584)"><path d="M144.148,303.95a12.587,12.587,0,0,1,2.729,1.922l2.915-1.037,2.74,4.325-2.183,2.193a12.551,12.551,0,0,1,.574,3.288l2.794,1.328-1.121,5-3.094.007a12.516,12.516,0,0,1-1.922,2.729l1.039,2.915-4.325,2.741-2.193-2.183a12.572,12.572,0,0,1-3.289.572l-1.327,2.794-5-1.121-.005-3.093a12.519,12.519,0,0,1-2.729-1.923l-2.916,1.038-2.74-4.325,2.183-2.193a12.56,12.56,0,0,1-.572-3.289l-2.794-1.327,1.119-5,3.094-.007a12.514,12.514,0,0,1,1.922-2.729l-1.037-2.916,4.324-2.74,2.194,2.184a12.55,12.55,0,0,1,3.288-.572l1.328-2.794,4.995,1.121.008,3.093Zm-4.4,5.88a5.493,5.493,0,1,0,4.157,6.561A5.493,5.493,0,0,0,139.743,309.83Z" transform="translate(-122.913 -299.737)" fill="#e8505b" fill-rule="evenodd"/><g opacity="0.4"><path d="M144.148,303.95a12.587,12.587,0,0,1,2.729,1.922l2.915-1.037,2.74,4.325-2.183,2.193a12.551,12.551,0,0,1,.574,3.288l2.794,1.328-1.121,5-3.094.007a12.516,12.516,0,0,1-1.922,2.729l1.039,2.915-4.325,2.741-2.193-2.183a12.572,12.572,0,0,1-3.289.572l-1.327,2.794-5-1.121-.005-3.093a12.519,12.519,0,0,1-2.729-1.923l-2.916,1.038-2.74-4.325,2.183-2.193a12.56,12.56,0,0,1-.572-3.289l-2.794-1.327,1.119-5,3.094-.007a12.514,12.514,0,0,1,1.922-2.729l-1.037-2.916,4.324-2.74,2.194,2.184a12.55,12.55,0,0,1,3.288-.572l1.328-2.794,4.995,1.121.008,3.093Zm-4.4,5.88a5.493,5.493,0,1,0,4.157,6.561A5.493,5.493,0,0,0,139.743,309.83Z" transform="translate(-122.913 -299.737)" fill="#fff" fill-rule="evenodd"/></g></g></g><g transform="translate(223.721 263.26)"><g transform="translate(149.083)"><path d="M361.219,282.125A13.153,13.153,0,0,0,370.734,269c-.164-2.636-1.145-5.2-1.032-7.839.175-4.1,2.893-7.558,4.938-11.11s3.417-8.238,1.033-11.573c-1.546-2.163-4.277-3.138-6.149-5.026-1.833-1.848-2.7-4.409-3.685-6.818s-2.255-4.9-4.516-6.185-5.73-.715-6.649,1.72" transform="translate(-256.63 -195.073)" fill="#263238"/><path d="M362.006,222.044c4.034-2.562,5.009-8.5,2.822-12.753S358,202.461,353.283,201.7a22,22,0,0,0-18.952,6.28c-2.6,2.682-4.713,6.18-8.244,7.408-3.1,1.08-6.538.105-9.8.528-4.368.566-8.113,3.672-10.353,7.465s-3.164,8.215-3.681,12.59c-.475,4.015-.789,8.421-3.575,11.351-2.716,2.858-7.007,3.463-10.385,5.5-6.355,3.825-8.415,13.3-4.221,19.417,1.338,1.95,3.257,3.739,3.412,6.1.141,2.155-1.251,4.073-1.9,6.131-1.68,5.3,2.659,11.6,8.208,11.914,2.8.162,5.8-.931,8.316.322,2.495,1.245,3.423,4.252,5.019,6.538a12,12,0,0,0,14.628,3.778c2.061-1.01,4.007-2.679,6.3-2.524s4.085,2.105,6.333,2.54c2.945.57,5.741-1.6,7.491-4.034s2.971-5.3,5.211-7.3c2.934-2.609,7.056-3.254,10.768-4.533a30.374,30.374,0,0,0,17.152-42.55" transform="translate(-281.886 -201.437)" fill="#263238"/><g transform="translate(35.005 17.105)"><path d="M361.852,222.937a6.452,6.452,0,0,1,5.757,6.554h0L363.76,316.6c-.162,10.288-15.2,16.069-26.215,15.814h0c-11.123-.259-11.483-5.714-11.622-15.5-.232-16.352-.213-22.491-.218-22.4,0,0-14.052-2.365-16.923-20.711-1.428-9.123-.936-24.076-.139-36.3.717-11,8.036-24.484,19-23.3Z" transform="translate(-307.873 -214.136)" fill="#ffbe9d"/><g transform="translate(3.959 28.696)"><g transform="translate(0.845 4.429)"><path d="M311.441,240.848a2.352,2.352,0,0,0,2.263,2.379,2.25,2.25,0,0,0,2.429-2.116,2.353,2.353,0,0,0-2.26-2.379A2.25,2.25,0,0,0,311.441,240.848Z" transform="translate(-311.44 -238.728)" fill="#263238"/></g><path d="M310.85,237.9c.291.307,2.076-1.008,4.607-1,2.528-.023,4.383,1.282,4.658.974.136-.137-.16-.691-.969-1.282a6.457,6.457,0,0,0-3.727-1.158,6.2,6.2,0,0,0-3.668,1.176C310.971,237.211,310.707,237.765,310.85,237.9Z" transform="translate(-310.813 -235.44)" fill="#263238"/></g><g transform="translate(28.836 29.224)"><g transform="translate(1.196 3.901)"><path d="M330.17,240.848a2.352,2.352,0,0,0,2.263,2.379,2.25,2.25,0,0,0,2.429-2.116,2.353,2.353,0,0,0-2.26-2.379A2.25,2.25,0,0,0,330.17,240.848Z" transform="translate(-330.169 -238.728)" fill="#263238"/></g><path d="M329.317,238.294c.292.307,2.078-1.008,4.608-1,2.528-.024,4.383,1.282,4.658.972.135-.136-.158-.691-.968-1.281a6.451,6.451,0,0,0-3.727-1.158,6.2,6.2,0,0,0-3.668,1.175C329.443,237.6,329.176,238.156,329.317,238.294Z" transform="translate(-329.281 -235.832)" fill="#263238"/></g><g transform="translate(13.202 29.349)"><path d="M324.119,257.011c.012-.144-1.561-.419-4.11-.75-.646-.069-1.257-.2-1.366-.64a3.291,3.291,0,0,1,.436-1.914q.917-2.344,1.922-4.918c2.67-7,4.6-12.757,4.321-12.862s-2.678,5.485-5.346,12.485c-.643,1.727-1.258,3.371-1.843,4.946a3.751,3.751,0,0,0-.341,2.536,1.627,1.627,0,0,0,1.061.947,4.429,4.429,0,0,0,1.1.155C322.518,257.14,324.108,257.155,324.119,257.011Z" transform="translate(-317.674 -235.925)" fill="#263238"/></g><g transform="translate(17.832 73.883)"><path d="M321.112,275.485a46.647,46.647,0,0,0,24.574-6.5s-6.224,12.93-24.574,11.173Z" transform="translate(-321.112 -268.987)" fill="#eb996e"/></g><g transform="translate(20.449 54.824)"><path d="M323.308,256.55a4.562,4.562,0,0,1,4.092-1.685,4.167,4.167,0,0,1,2.872,1.549,2.637,2.637,0,0,1,.194,3.017,3.059,3.059,0,0,1-3.319.831,9.574,9.574,0,0,1-3.231-1.937,2.8,2.8,0,0,1-.721-.75.845.845,0,0,1,.005-.942" transform="translate(-323.055 -254.838)" fill="#e8505b"/></g><g transform="translate(19.009 52.202)"><path d="M330.067,252.891c-.411-.024-.423,2.722-2.779,4.667s-5.279,1.635-5.3,2.019c-.039.172.651.536,1.886.572a6.841,6.841,0,0,0,4.426-1.531,5.961,5.961,0,0,0,2.154-3.913C330.56,253.556,330.255,252.876,330.067,252.891Z" transform="translate(-321.986 -252.891)" fill="#263238"/></g><g transform="translate(27.732 25.366)"><path d="M328.474,234.854c.248.688,2.775.368,5.743.733,2.977.3,5.369,1.18,5.764.563.176-.3-.24-.943-1.206-1.611a10.062,10.062,0,0,0-8.767-.987C328.918,233.988,328.367,234.527,328.474,234.854Z" transform="translate(-328.461 -232.967)" fill="#263238"/></g><g transform="translate(4.879 21.225)"><path d="M311.56,232.5c.443.575,2.189-.017,4.285-.04,2.1-.1,3.871.395,4.282-.206.179-.291-.1-.867-.874-1.413a6.205,6.205,0,0,0-6.9.2C311.608,231.632,311.364,232.223,311.56,232.5Z" transform="translate(-311.495 -229.893)" fill="#263238"/></g></g><path d="M339.981,217.09c4.2-2.827,9.643-4.129,14.537-2.722s8.947,5.814,9.112,10.8c.106,3.239-1.292,6.684.145,9.605,1.369,2.78,4.74,3.912,7.131,5.925a10.944,10.944,0,0,1,2.534,13.233c-2,3.676-6.212,6.371-6.565,10.521-.333,3.9,2.959,7.2,3.759,11.04.885,4.235-1.46,8.617-4.821,11.426s-7.605,4.358-11.755,5.851c-3.237,1.165-6.7,2.348-10.065,1.585a10.3,10.3,0,0,1-7.543-8.6,14.02,14.02,0,0,1,3.819-11.071c2.356-2.593,5.659-4.8,6.224-8.222.882-5.333-5.473-9.716-5.081-15.1.2-2.779,2.162-5.079,3.793-7.364s3.054-5.159,2.053-7.768c-1.3-3.39-5.757-4.274-8.45-6.76a8.234,8.234,0,0,1-2.249-8.341,8.49,8.49,0,0,1,6.649-5.668" transform="translate(-263.036 -197.148)" fill="#263238"/><path d="M354.946,214.548a12.547,12.547,0,0,1-14.8,12.389c-2.8-.512-5.871-1.929-8.3-.435-2.551,1.569-2.656,5.415-4.919,7.379-3.233,2.806-8.373.172-12.477,1.39-3.169.94-5.15,3.97-7.255,6.518s-5.26,4.972-8.429,4.032a37.188,37.188,0,0,1,1.258-8.456,12.5,12.5,0,0,1,4.8-6.89,46.613,46.613,0,0,0,4.053-2.359c2.631-2.124,3.241-5.82,4.865-8.786a13.747,13.747,0,0,1,10.475-6.949c3.607-.369,7.325.714,10.842-.174,2.6-.655,4.869-2.342,7.5-2.842,5.128-.975,9.9,2.7,13.614,6.37" transform="translate(-276.029 -198.742)" fill="#263238"/><g transform="translate(81.188 19.849)"><path d="M373.387,255.971a3.979,3.979,0,0,0,.407-2.115,5.324,5.324,0,0,0-3.692-4.219,27.26,27.26,0,0,0-4.031-1.086,11.8,11.8,0,0,1-4.566-1.882,6.432,6.432,0,0,1-2.376-4.906,51.769,51.769,0,0,1,.283-5.774,13.193,13.193,0,0,0-.144-2.822,6.024,6.024,0,0,0-1.082-2.407,9.214,9.214,0,0,0-4.415-2.534,19.88,19.88,0,0,1-4.5-1.938,15.824,15.824,0,0,1-6.553-7.932,10.7,10.7,0,0,1-.47-1.606,1.819,1.819,0,0,1-.082-.578c.063-.018.245.765.806,2.082a16.323,16.323,0,0,0,3.345,4.982,16.551,16.551,0,0,0,7.658,4.376,9.739,9.739,0,0,1,4.744,2.714,6.675,6.675,0,0,1,1.231,2.7,13.721,13.721,0,0,1,.16,2.99,54.527,54.527,0,0,0-.3,5.7,5.79,5.79,0,0,0,2.088,4.442,11.412,11.412,0,0,0,4.3,1.825,26.31,26.31,0,0,1,4.087,1.193,6.443,6.443,0,0,1,2.842,2.134,4.88,4.88,0,0,1,.932,2.52,3.2,3.2,0,0,1-.331,1.662A1.289,1.289,0,0,1,373.387,255.971Z" transform="translate(-342.16 -216.173)" fill="#455a64"/></g><g transform="translate(3.087 3.817)"><path d="M285.482,271.546a1.161,1.161,0,0,1-.3-.141,2.034,2.034,0,0,1-.688-.694,3.7,3.7,0,0,1,.374-3.622,4.822,4.822,0,0,1,1.964-1.879,25.277,25.277,0,0,1,2.948-1.245,9.1,9.1,0,0,0,3.085-1.748,6.6,6.6,0,0,0,1.762-3.478c.31-1.378.4-2.881.649-4.446a9.761,9.761,0,0,1,1.82-4.623c2.136-2.815,5.636-4.31,8.248-6.949a12.7,12.7,0,0,0,2.865-4.857,33.432,33.432,0,0,0,1.3-5.873c.567-4.029,1.138-8.544,3.851-12.231a8.934,8.934,0,0,1,5.533-3.575,19.413,19.413,0,0,1,6.386.16,23.189,23.189,0,0,0,5.967.349,7.768,7.768,0,0,0,4.876-2.518c2.5-2.7,3.941-6.335,7.018-8.2A11.719,11.719,0,0,1,352.4,204.7a10.271,10.271,0,0,1,6.1,4.74,11.546,11.546,0,0,1,1.584,5.656,9.931,9.931,0,0,1-.586,3.669,6.147,6.147,0,0,1-.541,1.176c-.035-.016.162-.418.407-1.22a10.421,10.421,0,0,0,.447-3.617,11.4,11.4,0,0,0-1.647-5.462,9.881,9.881,0,0,0-5.9-4.464,11.237,11.237,0,0,0-8.82,1.289,12.9,12.9,0,0,0-3.539,3.653,40.84,40.84,0,0,1-3.322,4.5,9.131,9.131,0,0,1-2.342,1.835,8.682,8.682,0,0,1-2.916.9,23.674,23.674,0,0,1-6.146-.333,18.912,18.912,0,0,0-6.157-.156,8.235,8.235,0,0,0-5.109,3.314,16.966,16.966,0,0,0-2.621,5.749,56.529,56.529,0,0,0-1.111,6.162,33.841,33.841,0,0,1-1.343,5.987,13.331,13.331,0,0,1-3.036,5.092c-2.765,2.74-6.231,4.2-8.246,6.849a9.193,9.193,0,0,0-1.748,4.359c-.26,1.527-.365,3.041-.7,4.468a7.045,7.045,0,0,1-1.938,3.692,9.432,9.432,0,0,1-3.253,1.791,25.674,25.674,0,0,0-2.931,1.172,4.57,4.57,0,0,0-1.887,1.725,3.59,3.59,0,0,0-.484,3.413A2.984,2.984,0,0,0,285.482,271.546Z" transform="translate(-284.177 -204.271)" fill="#455a64"/></g></g><g transform="translate(100.65 100.496)"><path d="M253.75,365.6l32.532-2.982s20.02-52.729,44.7-65.516l15.986,27.924-34.22,64.3H245.929Z" transform="translate(-245.929 -268.74)" fill="#e8505b"/><path d="M253.75,365.6l32.532-2.982s20.02-52.729,44.7-65.516l15.986,27.924-34.22,64.3H245.929Z" transform="translate(-245.929 -268.74)" opacity="0.3"/><g transform="translate(20.66 101.565)"><path d="M261.282,361.629c-.166-.1,1.061-2.458,2.741-5.269s3.178-5.008,3.345-4.908-1.061,2.457-2.742,5.269S261.448,361.728,261.282,361.629Z" transform="translate(-261.267 -351.448)" fill="#fafafa"/></g><g transform="translate(36.31 101.893)"><path d="M280.3,360.906c-.151.121-1.932-1.843-3.975-4.384s-3.579-4.7-3.428-4.825,1.93,1.841,3.975,4.386S280.449,360.784,280.3,360.906Z" transform="translate(-272.885 -351.691)" fill="#fafafa"/></g><g transform="translate(47.375 90.485)"><path d="M281.45,351.752c-.194,0-.35-1.91-.35-4.264s.156-4.266.35-4.266.35,1.909.35,4.266S281.644,351.752,281.45,351.752Z" transform="translate(-281.1 -343.222)" fill="#fafafa"/></g><g transform="translate(30.433 114.035)"><path d="M274.365,364.544c-.106.162-1.5-.56-3.11-1.615s-2.833-2.039-2.726-2.2,1.5.56,3.11,1.615S274.472,364.382,274.365,364.544Z" transform="translate(-268.522 -360.705)" fill="#fafafa"/></g><g transform="translate(49.799 69.401)"><path d="M288.055,327.57c.176.079-.83,2.71-2.247,5.874s-2.711,5.668-2.888,5.589.83-2.709,2.248-5.875S287.878,327.491,288.055,327.57Z" transform="translate(-282.9 -327.569)" fill="#fafafa"/></g><g transform="translate(62.513 48.017)"><path d="M297.965,311.712c.117.155-1.047,1.233-2.6,2.408s-2.9,2-3.021,1.849,1.045-1.233,2.6-2.408S297.848,311.558,297.965,311.712Z" transform="translate(-292.339 -311.693)" fill="#fafafa"/></g><path d="M332.641,384.436l16.777-67.762a23.051,23.051,0,0,1,26.464-17.146h0a23.049,23.049,0,0,1,18.689,26.218L384.3,391.974a33.135,33.135,0,0,1-27.492,26.809l-13.338,2.081Z" transform="translate(-215.842 -268.025)" fill="#e8505b"/><g transform="translate(136.309 23.14)"><path d="M380.489,297.209A15.14,15.14,0,0,0,374.5,294.2a15.956,15.956,0,0,0-7.221.05,19.591,19.591,0,0,0-7.85,4.093c-4.918,4.122-7.593,9.477-9.411,13.229-.9,1.906-1.583,3.473-2.072,4.549a9.342,9.342,0,0,1-.819,1.647,9.125,9.125,0,0,1,.567-1.751c.411-1.11,1.026-2.707,1.872-4.651a50.339,50.339,0,0,1,3.45-6.612,29.416,29.416,0,0,1,5.964-6.95,19.744,19.744,0,0,1,8.152-4.184,15.966,15.966,0,0,1,7.487.1,12.746,12.746,0,0,1,4.546,2.2,8.589,8.589,0,0,1,1.018.921C380.4,297.065,380.507,297.192,380.489,297.209Z" transform="translate(-347.125 -293.225)" fill="#263238"/></g><g transform="translate(52.555 42.372)"><path d="M307.013,307.5a3.245,3.245,0,0,1-.469.629l-1.436,1.719c-1.241,1.494-3.013,3.679-5.034,6.5a69.283,69.283,0,0,0-11.455,24.317c-2.34,10.333-2.456,20.009-2.853,26.94-.167,3.475-.33,6.288-.48,8.229-.081.908-.145,1.646-.2,2.233a3.33,3.33,0,0,1-.117.776,3.234,3.234,0,0,1-.023-.784c.016-.589.039-1.331.066-2.24.063-2.039.151-4.829.256-8.234.272-6.93.3-16.642,2.666-27.077a66.957,66.957,0,0,1,11.738-24.452c2.082-2.8,3.92-4.943,5.228-6.387.648-.727,1.183-1.265,1.537-1.635A3.311,3.311,0,0,1,307.013,307.5Z" transform="translate(-284.946 -307.502)" fill="#263238"/></g><path d="M414.817,318.271c-1.84-12.116-8.533-15.026-15.463-18.8-2.267-1.232-13.191-4.037-21.852-6.149-.827-5.249-2.31-14.642-2.636-16.626-.457-2.786-44.122,4.18-44.674,5.225-.368.692-1.373,11.573-2.008,18.825L317.729,304.4l-13.645,17.348-7.1,10.085a54.348,54.348,0,0,0-8.8,19.36c-1.72,7.725-1.957,15.26-1.957,23.464l-2.109,44.485,91.36,25.834,7.073-45.063,23.569-32.084C408.136,354.857,417.081,333.17,414.817,318.271Z" transform="translate(-232.677 -276.045)" fill="#e8505b"/><g transform="translate(101.887 5.107)"><path d="M323.85,300.832a14.136,14.136,0,0,1-.607-3.086c-.286-1.918-.633-4.572-.974-7.508q-.236-2.18-.453-4.143a29.105,29.105,0,0,1-.241-3.425,4.111,4.111,0,0,1,.651-2.276c.353-.458.655-.582.674-.552.039.046-.2.245-.442.7a4.384,4.384,0,0,0-.387,2.135c.024.933.234,2.073.388,3.347.16,1.3.33,2.686.508,4.137.339,2.936.609,5.6.769,7.531A14.046,14.046,0,0,1,323.85,300.832Z" transform="translate(-321.57 -279.837)" fill="#263238"/></g><g transform="translate(113.418 3.263)"><path d="M332.529,298.554a10.557,10.557,0,0,1-.971-2.825,45.215,45.215,0,0,1-1.321-14.306,10.631,10.631,0,0,1,.438-2.955c.217.017-.179,4.547.349,10.1C331.52,294.116,332.739,298.5,332.529,298.554Z" transform="translate(-330.131 -278.468)" fill="#263238"/></g><g transform="translate(134.087 0.604)"><path d="M348.884,296.089c-.232-.024.737-4.551-.249-10.047-.921-5.509-3.357-9.446-3.147-9.546a9.081,9.081,0,0,1,1.6,2.535,25.514,25.514,0,0,1,2.45,14.131A9.074,9.074,0,0,1,348.884,296.089Z" transform="translate(-345.475 -276.494)" fill="#263238"/></g><g transform="translate(75.446 49.135)"><path d="M301.952,323.208c-.159-.1,1.354-2.7,3.578-5.66s4.29-5.144,4.434-5.02-1.669,2.5-3.873,5.44S302.118,323.318,301.952,323.208Z" transform="translate(-301.94 -312.523)" fill="#fafafa"/></g><g transform="translate(89.316 34.302)"><path d="M318.957,310.292c-.155.119-1.781-1.751-3.633-4.174s-3.229-4.484-3.075-4.6,1.779,1.751,3.633,4.176S319.111,310.175,318.957,310.292Z" transform="translate(-312.237 -301.511)" fill="#fafafa"/></g><g transform="translate(108.779 32.556)"><path d="M335.451,300.224c.127.154-1.891,2-4.3,4.347s-4.306,4.314-4.458,4.184,1.532-2.317,3.968-4.686S335.333,300.078,335.451,300.224Z" transform="translate(-326.687 -300.215)" fill="#fafafa"/></g><g transform="translate(105.248 14.077)"><path d="M330.32,292.165c-.131.143-1.634-1.008-3.358-2.569s-3.019-2.944-2.888-3.089,1.634,1.006,3.358,2.569S330.45,292.021,330.32,292.165Z" transform="translate(-324.065 -286.496)" fill="#fafafa"/></g><g transform="translate(121.13 9.637)"><path d="M345.072,283.258c.04.189-1.989.784-4.534,1.329s-4.64.832-4.681.644,1.99-.785,4.534-1.331S345.031,283.068,345.072,283.258Z" transform="translate(-335.857 -283.2)" fill="#fafafa"/></g><g transform="translate(133.453 30.099)"><path d="M345.668,307.818c-.194.009-.458-2.093-.589-4.7s-.082-4.723.112-4.732.457,2.092.589,4.7S345.86,307.809,345.668,307.818Z" transform="translate(-345.005 -298.391)" fill="#fafafa"/></g><g transform="translate(123.158 42.736)"><path d="M341.447,318.911c-.182.066-1.238-2.373-2.358-5.447s-1.883-5.622-1.7-5.69,1.238,2.373,2.359,5.449S341.631,318.845,341.447,318.911Z" transform="translate(-337.362 -307.773)" fill="#fafafa"/></g><g transform="translate(104.028 52.328)"><path d="M327.713,326.553c-.18.07-1.34-2.484-2.592-5.7s-2.119-5.886-1.938-5.956,1.342,2.482,2.593,5.7S327.893,326.483,327.713,326.553Z" transform="translate(-323.159 -314.894)" fill="#fafafa"/></g><g transform="translate(88.622 64.022)"><path d="M314.112,335.005c-.19.039-.867-2.488-1.514-5.644s-1.016-5.746-.826-5.785.867,2.488,1.513,5.644S314.3,334.966,314.112,335.005Z" transform="translate(-311.722 -323.576)" fill="#fafafa"/></g><g transform="translate(65.106 65.617)"><path d="M299.3,335.052c-.174.085-1.437-2.151-2.822-4.992s-2.365-5.214-2.192-5.3,1.439,2.15,2.822,4.992S299.471,334.968,299.3,335.052Z" transform="translate(-294.264 -324.759)" fill="#fafafa"/></g><g transform="translate(58.436 89.273)"><path d="M300.566,342.34c.086.174-2.364,1.558-5.47,3.094s-5.7,2.637-5.781,2.464,2.363-1.558,5.47-3.093S300.48,342.166,300.566,342.34Z" transform="translate(-289.312 -342.322)" fill="#fafafa"/></g><g transform="translate(67.194 100.363)"><path d="M298.57,360.657c-.175.067-1.154-2.089-1.9-4.9s-.978-5.171-.792-5.2.726,2.243,1.471,5.019S298.757,360.587,298.57,360.657Z" transform="translate(-295.814 -350.555)" fill="#fafafa"/></g><g transform="translate(57.303 117.714)"><path d="M296.8,371.061c-.132.143-2.1-1.445-4.4-3.548s-4.056-3.925-3.925-4.068,2.1,1.447,4.4,3.549S296.931,370.918,296.8,371.061Z" transform="translate(-288.471 -363.436)" fill="#fafafa"/></g><g transform="translate(80.001 115.16)"><path d="M318.455,361.571c.051.2-3.041,1.084-6.651,2.676-3.619,1.575-6.366,3.25-6.479,3.075-.105-.145,2.512-2.113,6.2-3.718C315.2,361.984,318.42,361.394,318.455,361.571Z" transform="translate(-305.322 -361.541)" fill="#fafafa"/></g><g transform="translate(81.764 98.359)"><path d="M309.957,358.523c-.182.065-1.068-2-1.977-4.611s-1.5-4.78-1.316-4.844,1.07,2,1.979,4.612S310.14,358.459,309.957,358.523Z" transform="translate(-306.63 -349.067)" fill="#fafafa"/></g><g transform="translate(93.427 89.602)"><path d="M323.27,342.569c.163.1-1.487,3.017-3.688,6.509s-4.118,6.238-4.281,6.134,1.487-3.017,3.688-6.509S323.105,342.465,323.27,342.569Z" transform="translate(-315.29 -342.566)" fill="#fafafa"/></g><g transform="translate(111.153 78.404)"><path d="M336.229,347.2c-.147.113-2.321-2.515-4.476-6.117s-3.458-6.754-3.289-6.829,1.748,2.907,3.891,6.468S336.392,347.079,336.229,347.2Z" transform="translate(-328.449 -334.253)" fill="#fafafa"/></g><g transform="translate(119.113 73.984)"><path d="M344.68,331.041c.038.182-2.241.773-5.128.911s-5.211-.213-5.193-.4,2.325-.155,5.159-.3S344.645,330.843,344.68,331.041Z" transform="translate(-334.359 -330.971)" fill="#fafafa"/></g><g transform="translate(140.856 54.331)"><path d="M364.009,316.4c.082.175-2.873,1.758-6.6,3.534s-6.82,3.076-6.9,2.9,2.872-1.758,6.6-3.535S363.925,316.222,364.009,316.4Z" transform="translate(-350.501 -316.38)" fill="#fafafa"/></g><g transform="translate(156.003 31.018)"><path d="M361.765,309.869c-.174-.086.884-2.573,2.361-5.552s2.817-5.327,2.99-5.241-.884,2.571-2.363,5.552S361.939,309.955,361.765,309.869Z" transform="translate(-361.746 -299.073)" fill="#fafafa"/></g><g transform="translate(167.985 39.316)"><path d="M374.523,317.566c-.194.044-.981-2.736-2.046-6.127s-2-6.129-1.812-6.2,1.413,2.566,2.481,5.993S374.707,317.525,374.523,317.566Z" transform="translate(-370.642 -305.234)" fill="#fafafa"/></g><g transform="translate(162.215 64.661)"><path d="M378.49,324.077c.066.174-2.534,1.3-5.911,2.161s-6.195,1.133-6.222.948,2.712-.768,6.048-1.628S378.422,323.888,378.49,324.077Z" transform="translate(-366.358 -324.05)" fill="#fafafa"/></g><g transform="translate(147.16 65.793)"><path d="M355.224,339.71c-.2-.04.374-3.319.537-7.4.183-4.08-.113-7.395.093-7.419.176-.031.793,3.3.607,7.449C356.295,336.49,355.4,339.755,355.224,339.71Z" transform="translate(-355.181 -324.89)" fill="#fafafa"/></g><g transform="translate(133.022 86.441)"><path d="M353.451,350.774c-.124.136-2.493-1.875-4.927-4.818s-3.984-5.636-3.828-5.733,1.953,2.386,4.368,5.284S353.593,350.627,353.451,350.774Z" transform="translate(-344.685 -340.219)" fill="#fafafa"/></g><g transform="translate(157.506 93.525)"><path d="M374.368,345.5c.075.178-2.441,1.4-5.617,2.725s-5.814,2.258-5.888,2.08,2.439-1.4,5.617-2.726S374.294,345.322,374.368,345.5Z" transform="translate(-362.862 -345.479)" fill="#fafafa"/></g><g transform="translate(158.973 109.567)"><path d="M364.236,372.2c-.194,0-.318-3.32-.277-7.412s.232-7.407.426-7.4.318,3.319.276,7.412S364.429,372.207,364.236,372.2Z" transform="translate(-363.951 -357.388)" fill="#fafafa"/></g><g transform="translate(138.311 107.72)"><path d="M348.659,370.91c-.183-.024.154-3.477,1.2-7.615s2.365-7.342,2.539-7.278c.19.067-.835,3.346-1.858,7.449S348.86,370.94,348.659,370.91Z" transform="translate(-348.612 -356.017)" fill="#fafafa"/></g><g transform="translate(124.447 130.603)"><path d="M353.194,373.107c.011.2-3.347.524-7.441,1.206s-7.379,1.445-7.434,1.25c-.053-.176,3.179-1.265,7.319-1.942S353.187,372.923,353.194,373.107Z" transform="translate(-338.319 -373.005)" fill="#fafafa"/></g><g transform="translate(116.199 116.718)"><path d="M332.2,371.5c-.139-.135,1.649-2.212,3.994-4.639s4.359-4.287,4.5-4.153-1.649,2.212-3.994,4.64S332.342,371.63,332.2,371.5Z" transform="translate(-332.195 -362.697)" fill="#fafafa"/></g><g transform="translate(97.513 129.56)"><path d="M322.046,382.754c-.2.038-.8-2.385-1.82-5.271s-2.062-5.155-1.883-5.249c.16-.092,1.513,2.066,2.544,5.016S322.228,382.724,322.046,382.754Z" transform="translate(-318.323 -372.231)" fill="#fafafa"/></g><g transform="translate(112.169 142.515)"><path d="M342.435,387.739c-.08.176-3.1-.994-6.758-2.616s-6.552-3.079-6.472-3.257,3.1.994,6.758,2.616S342.514,387.563,342.435,387.739Z" transform="translate(-329.204 -381.849)" fill="#fafafa"/></g><g transform="translate(83.245 136.327)"><path d="M307.765,386.891c-.183-.061.384-2.267,1.267-4.927s1.748-4.768,1.933-4.708-.384,2.268-1.267,4.929S307.948,386.952,307.765,386.891Z" transform="translate(-307.73 -377.255)" fill="#fafafa"/></g><g transform="translate(93.746 149.227)"><path d="M332.812,388.265c-.039.2-3.87-.416-8.633-.66-4.763-.263-8.637-.053-8.653-.26-.022-.178,3.87-.706,8.691-.44C329.038,387.153,332.851,388.09,332.812,388.265Z" transform="translate(-315.526 -386.832)" fill="#fafafa"/></g><g transform="translate(116.761 56.282)"><path d="M332.651,372.488a1.591,1.591,0,0,1-.036-.531,5,5,0,0,1,.217-1.529,3.382,3.382,0,0,1,1.464-2,4.7,4.7,0,0,1,3.288-.543l-.275.16c1.475-5.166,3.829-12.713,6.187-21.169,2.208-7.918,3.7-15.21,4.741-20.5l1.234-6.263a15.119,15.119,0,0,1,.532-2.283,14.839,14.839,0,0,1-.264,2.33c-.211,1.494-.555,3.649-1.014,6.308a210.872,210.872,0,0,1-4.553,20.591c-2.363,8.479-4.8,16-6.414,21.121l-.063.2-.213-.039a4.37,4.37,0,0,0-2.994.4,3.152,3.152,0,0,0-1.413,1.771A18.668,18.668,0,0,0,332.651,372.488Z" transform="translate(-332.613 -317.829)" fill="#263238"/></g><g transform="translate(121.3 106.306)"><path d="M361.685,378.337c-.115.052-.943-1.771-2.656-4.489A46.306,46.306,0,0,0,340.7,357.193c-2.869-1.447-4.764-2.1-4.721-2.217a5.461,5.461,0,0,1,1.365.358,30.345,30.345,0,0,1,3.573,1.412,41.977,41.977,0,0,1,18.532,16.843,30.606,30.606,0,0,1,1.747,3.423A5.444,5.444,0,0,1,361.685,378.337Z" transform="translate(-335.982 -354.967)" fill="#263238"/></g><g transform="translate(121.681 105.324)" opacity="0.2"><path d="M336.642,354.238c5.151.37,9.37.758,14.205,2.571s9.3,5.281,11.083,10.129c.427,1.162.629,2.629-.252,3.5a2.494,2.494,0,0,1-2.552.411,6.753,6.753,0,0,1-2.231-1.534c-2.97-2.746-6.047-5.172-9.112-7.811s-7.519-5.415-11.518-6.026" transform="translate(-336.265 -354.238)"/></g><g transform="translate(75.981 87.286)"><path d="M338.7,350.293a6.233,6.233,0,0,1-1.4.812,24.468,24.468,0,0,1-4.143,1.562,27.672,27.672,0,0,1-27.123-7.043,24.561,24.561,0,0,1-2.86-3.382,6.221,6.221,0,0,1-.832-1.393c.113-.085,1.339,1.893,4.036,4.417a28.541,28.541,0,0,0,26.653,6.922C336.613,351.3,338.647,350.165,338.7,350.293Z" transform="translate(-302.338 -340.847)" fill="#263238"/></g><g transform="translate(76.716 88.329)" opacity="0.2"><path d="M302.883,341.621c2.267,4.933,4.931,9.895,9.232,13.207,2.48,1.909,5.379,3.514,8.508,3.565,4.5.074,8.358-2.993,11.789-5.9-11.114,1.74-23.641-3.3-29.528-10.873" transform="translate(-302.883 -341.621)"/></g><g transform="translate(124.533 1.87)"><path d="M340.366,297.884c-.214-.012.044-4.625-.51-10.269-.527-5.648-1.655-10.128-1.448-10.18a11.077,11.077,0,0,1,.935,2.889,51.9,51.9,0,0,1,1.393,14.546A11.106,11.106,0,0,1,340.366,297.884Z" transform="translate(-338.382 -277.434)" fill="#263238"/></g></g><g transform="translate(0 303.074)"><path d="M238.6,426.44s-14.64,3.164-27.71,1.2c-12.253-1.837-39.69.063-39.681,16.214.012,18.012,36.6,13.561,50.873,10.706s28.489-5.442,28.489-5.442Z" transform="translate(-171.206 -426.44)" fill="#e8505b"/><g transform="translate(31.64 10.384)"><path d="M197.589,446.84c-.189.043-.981-2.764-1.769-6.269s-1.273-6.379-1.084-6.422.981,2.764,1.769,6.269S197.778,446.8,197.589,446.84Z" transform="translate(-194.696 -434.149)" fill="#263238"/></g><g transform="translate(37.685 10.362)"><path d="M201.026,447.083c-.193.027-.745-2.852-1.235-6.426s-.733-6.5-.541-6.523.745,2.85,1.235,6.428S201.217,447.057,201.026,447.083Z" transform="translate(-199.183 -434.133)" fill="#263238"/></g><g transform="translate(42.9 10.113)"><path d="M204.5,445.264c-.193.024-.655-2.491-1.032-5.616s-.527-5.677-.334-5.7.655,2.491,1.032,5.617S204.7,445.241,204.5,445.264Z" transform="translate(-203.055 -433.948)" fill="#263238"/></g><g transform="translate(49.406 9.569)"><path d="M210.4,443.516c-.17.073-1.21-2.027-1.883-4.822s-.722-5.137-.537-5.149c.2-.019.55,2.248,1.219,4.984S210.588,443.44,210.4,443.516Z" transform="translate(-207.885 -433.544)" fill="#263238"/></g><g transform="translate(53.523 1.658)"><path d="M210.964,438.97a6.292,6.292,0,0,1,1.913-.128,16.23,16.23,0,0,1,5.14,1.006,5.722,5.722,0,0,1,1.583.853,2.4,2.4,0,0,1,.991,1.785,2.707,2.707,0,0,1-3.315,2.408,6.818,6.818,0,0,1-3.821-2.721,11.624,11.624,0,0,1-2.162-4.5,11.436,11.436,0,0,1,1.611-9.326,1.859,1.859,0,0,1,1.087-.655,1.477,1.477,0,0,1,1.218.38,3.274,3.274,0,0,1,.916,1.965,10,10,0,0,1-.193,3.664,10.175,10.175,0,0,1-2.47,4.619,7.972,7.972,0,0,1-1.068.948c-.268.187-.414.275-.428.256-.04-.05.51-.459,1.292-1.385a10.52,10.52,0,0,0,2.19-4.547,9.674,9.674,0,0,0,.1-3.468,2.73,2.73,0,0,0-.748-1.587.939.939,0,0,0-1.413.236A11.423,11.423,0,0,0,214,441.75a6.26,6.26,0,0,0,3.394,2.508,2.117,2.117,0,0,0,2.619-1.759,1.856,1.856,0,0,0-.753-1.381,5.306,5.306,0,0,0-1.418-.808,17.832,17.832,0,0,0-4.977-1.195C211.646,439,210.965,439.026,210.964,438.97Z" transform="translate(-210.942 -427.671)" fill="#263238"/></g><g transform="translate(2.302 0.32)"><path d="M248.526,446.657a1.58,1.58,0,0,1-.369.117l-1.1.273-4.244.967c-3.693.812-9.049,1.952-15.7,3.237s-14.605,2.736-23.517,3.949a63.507,63.507,0,0,1-14.13.7,30.36,30.36,0,0,1-7.4-1.414,20.324,20.324,0,0,1-3.552-1.579,10.969,10.969,0,0,1-3.12-2.512l.054.059a7.429,7.429,0,0,1-1.273-1.527,9.526,9.526,0,0,1-.745-7.883,12.6,12.6,0,0,1,4.693-6.135,23.854,23.854,0,0,1,6.672-3.305c1.168-.331,2.3-.731,3.462-.994,1.162-.232,2.3-.54,3.444-.7,9.176-1.448,17.521-.713,24.454-.71,3.477.065,6.616-.03,9.368-.2a62.7,62.7,0,0,0,7.01-.886l2.524-.531,1.818-.519,1.123-.308a1.789,1.789,0,0,1,.391-.084,1.626,1.626,0,0,1-.368.151l-1.1.376q-.756.246-1.808.586l-2.523.6a58.564,58.564,0,0,1-7.034,1.01c-2.763.207-5.919.337-9.4.3-6.949.058-15.29-.618-24.344.851-1.133.16-2.249.47-3.4.7-1.14.263-2.255.661-3.4.989a23.222,23.222,0,0,0-6.478,3.225,11.93,11.93,0,0,0-4.438,5.8,8.851,8.851,0,0,0,.673,7.3,6.763,6.763,0,0,0,1.148,1.378l.023.023.031.039a10.5,10.5,0,0,0,2.893,2.307,19.721,19.721,0,0,0,3.424,1.525,29.838,29.838,0,0,0,7.236,1.393,63.429,63.429,0,0,0,13.99-.659c8.9-1.175,16.847-2.583,23.51-3.794s12.03-2.289,15.738-3.02l4.27-.839,1.113-.206A1.7,1.7,0,0,1,248.526,446.657Z" transform="translate(-172.915 -426.677)" fill="#263238"/></g><g transform="translate(20.967 3.626)"><path d="M190.185,454.478a24.217,24.217,0,0,1-.354-3.741c-.166-2.31-.44-5.493-.908-8.99s-1.043-6.642-1.49-8.913a24.028,24.028,0,0,1-.643-3.7,17.065,17.065,0,0,1,1.126,3.594,82.5,82.5,0,0,1,2.41,17.989A17.025,17.025,0,0,1,190.185,454.478Z" transform="translate(-186.772 -429.132)" fill="#263238"/></g><path d="M217.892,427.219l9.277,23.236,7.2-1.333L220.581,426.44Z" transform="translate(-155.007 -426.44)" opacity="0.4"/></g><path d="M354.895,389.691c-1.492.5-97.362-26.368-136.132-37.27a36.826,36.826,0,0,0-29.982,4.538l-.467.3a36.833,36.833,0,0,0-15.859,39.267h0a36.814,36.814,0,0,0,16.626,23.053c25.567,15.663,79.674,48.615,81.329,47.974,2.167-.841,69.74-2.593,69.74-2.593L258.857,406.5l38.673,24.994,57.365-41.8Z" transform="translate(-171.106 -149.526)" fill="#263238"/><path d="M249.193,360.793l20.38-10.543,19.984,12.528,74.823,2.445,10.83,36.426-108.3-25.1s-19.712,1.744-21.188-2.686S249.193,360.793,249.193,360.793Z" transform="translate(-145.445 -149.802)" fill="#ffbe9d"/><path d="M296.333,408.436,286.26,441.514l1.253,10.081h0a51.756,51.756,0,0,0,68.265,4.6h0a50.719,50.719,0,0,0,19.832-40.454l-.151-34.562Z" transform="translate(-131.285 -139.07)" fill="#263238"/><g transform="translate(53.249 230.937)"><path d="M262.551,411.53c-.116.156-11.809-8.369-26.114-19.038s-25.813-19.449-25.7-19.6,11.808,8.367,26.117,19.041S262.667,411.375,262.551,411.53Z" transform="translate(-210.738 -372.885)" fill="#455a64"/></g><g transform="translate(102.603 207.034)"><path d="M267.53,355.158c.059.185-4.4,1.779-9.969,3.563s-10.123,3.078-10.182,2.893,4.4-1.779,9.969-3.561S267.471,354.973,267.53,355.158Z" transform="translate(-247.379 -355.14)" fill="#eb996e"/></g><g transform="translate(100.868 213.214)"><path d="M269.5,359.777a21.308,21.308,0,0,1-3.471.652c-2.146.35-5.1.877-8.33,1.618s-6.118,1.56-8.2,2.184a21.126,21.126,0,0,1-3.406.928,15.223,15.223,0,0,1,3.252-1.4,73.234,73.234,0,0,1,16.62-3.821A15.231,15.231,0,0,1,269.5,359.777Z" transform="translate(-246.091 -359.728)" fill="#eb996e"/></g><g transform="translate(99.978 218.935)"><path d="M268.023,364c.038.19-4.989,1.347-11.227,2.583s-11.328,2.087-11.366,1.9,4.989-1.346,11.228-2.583S267.985,363.812,268.023,364Z" transform="translate(-245.43 -363.975)" fill="#eb996e"/></g><g transform="translate(1.151 160.852)"><path d="M267.042,322.125l18.8,61.855a1.794,1.794,0,0,0,1.58,1.266l51.227,3.844a1.791,1.791,0,0,1,1.657,1.786v3.2a1.791,1.791,0,0,1-1.825,1.791l-140.033-2.631a1.8,1.8,0,0,1-1.641-1.153L172.18,327.564a1.791,1.791,0,0,1,1.589-2.429l91.475-4.279A1.79,1.79,0,0,1,267.042,322.125Z" transform="translate(-172.06 -320.854)" fill="#455a64"/><path d="M214,341.661a4.418,4.418,0,0,0-2.771,3.147,4.239,4.239,0,0,0,1.81,3.854,4.605,4.605,0,0,0,5.119.191,4.267,4.267,0,0,0,1.4-5.17c-.618-1.708-3.745-2.9-5.555-2.022" transform="translate(-158.479 -313.738)" fill="#e0e0e0"/></g><g transform="translate(64.56 206.179)"><path d="M233.937,474.082l-14.8-24.349,108.839-85.3a43.73,43.73,0,0,1,23.771-9.743h0a43.734,43.734,0,0,1,47.55,47.2L397.557,422.7l-72.244,23.215Z" transform="translate(-219.136 -354.505)" fill="#263238"/><g transform="translate(14.801 61.764)"><path d="M369.7,400.359a1.638,1.638,0,0,1-.288.268l-.889.733-3.466,2.767q-1.142.9-2.517,1.987c-.919.729-2,1.4-3.118,2.193l-3.615,2.478c-.642.435-1.293.9-1.981,1.343l-2.161,1.3c-2.958,1.765-6.149,3.788-9.768,5.616-1.794.939-3.625,1.963-5.559,2.919l-6.014,2.85c-8.285,3.777-17.566,7.577-27.515,10.959-19.88,6.851-38.26,11.782-51.422,15.773-3.3.971-6.276,1.879-8.881,2.7-2.61.807-4.86,1.5-6.68,2.121l-4.213,1.369c-.454.139-.816.252-1.1.339a1.61,1.61,0,0,1-.384.093,1.628,1.628,0,0,1,.36-.16l1.079-.405,4.173-1.5c1.809-.659,4.046-1.393,6.647-2.235,2.6-.861,5.563-1.8,8.855-2.8,13.136-4.115,31.492-9.122,51.337-15.962,9.933-3.377,19.2-7.148,27.476-10.884l6.01-2.817c1.934-.944,3.763-1.954,5.559-2.878,3.621-1.8,6.817-3.792,9.783-5.525q1.109-.655,2.167-1.277c.69-.435,1.343-.892,1.989-1.317l3.636-2.427c1.126-.772,2.217-1.43,3.145-2.142s1.778-1.35,2.548-1.933c1.506-1.131,2.691-2.022,3.543-2.659l.932-.679A1.665,1.665,0,0,1,369.7,400.359Z" transform="translate(-230.124 -400.358)" fill="#455a64"/></g><g transform="translate(126.519 73.138)"><path d="M343.56,408.814a4.211,4.211,0,0,1-1.1.575c-.723.331-1.789.765-3.122,1.261a79.573,79.573,0,0,1-21.674,4.658c-1.418.1-2.569.137-3.365.132a4.245,4.245,0,0,1-1.237-.073,41.322,41.322,0,0,1,4.556-.554c2.811-.314,6.682-.859,10.9-1.762s7.966-2,10.659-2.87A41.555,41.555,0,0,1,343.56,408.814Z" transform="translate(-313.064 -408.803)" fill="#455a64"/></g><g transform="translate(0 14.019)"><path d="M323.619,364.913c.118.152-23.176,18.458-52.023,40.878s-52.339,40.482-52.459,40.33,23.171-18.454,52.028-40.883S323.5,364.76,323.619,364.913Z" transform="translate(-219.136 -364.912)" fill="#455a64"/></g><g transform="translate(27.527 92.49)"><g transform="translate(0.012)"><path d="M310.234,435.216c-5.221-2.784-11.082-1.138-16.076.546-3.326,1.121-6.781,2.9-10.158,1.945-2.442-.688-4.258-2.667-6.123-4.387a38.487,38.487,0,0,0-28.133-10.079,11.458,11.458,0,0,0-7.726,3.493c-5.128,5.554-1.261,12.781,3.322,17.451a50.632,50.632,0,0,0,30.594,14.759c9.549,1,22.679-.322,32.364-4.468,5.97-2.557,9.034-9.6,5.9-15.288A9.81,9.81,0,0,0,310.234,435.216Z" transform="translate(-239.581 -423.17)" fill="#e8505b"/><g transform="translate(0.272 4.444)" opacity="0.4"><path d="M310.153,438.516c-5.221-2.784-11.082-1.138-16.078.546-3.324,1.121-6.779,2.9-10.156,1.945-2.442-.688-4.259-2.667-6.123-4.387a38.492,38.492,0,0,0-28.134-10.081,11.462,11.462,0,0,0-7.726,3.494,8.911,8.911,0,0,0-2.152,3.893,20.307,20.307,0,0,0,5.474,9.114,50.635,50.635,0,0,0,30.6,14.759c9.549,1,22.679-.322,32.362-4.468a11.81,11.81,0,0,0,6.888-8.21,9.969,9.969,0,0,0-.987-2.633A9.806,9.806,0,0,0,310.153,438.516Z" transform="translate(-239.783 -426.469)"/></g></g><g transform="translate(0 4.181)"><path d="M315.176,445.188a9.067,9.067,0,0,0-1.28-3.093,10.126,10.126,0,0,0-2.794-2.732,11.16,11.16,0,0,0-4.8-1.837c-3.877-.455-8.367,1.176-13.357,2.527-2.466.652-5.16,1.651-8.109,1.281a10.749,10.749,0,0,1-4.172-1.444,25.927,25.927,0,0,1-3.586-2.7A39.033,39.033,0,0,0,255.7,427.058a22.35,22.35,0,0,0-6.319-.036,13.767,13.767,0,0,0-4.888,1.705,12.463,12.463,0,0,0-2.994,2.538,30.279,30.279,0,0,0-1.928,2.783,10.833,10.833,0,0,1,1.717-2.957,12.232,12.232,0,0,1,3-2.7,13.968,13.968,0,0,1,5.012-1.862,22.508,22.508,0,0,1,6.47-.05,37.208,37.208,0,0,1,7.237,1.612A41.885,41.885,0,0,1,270.5,431.4a31.228,31.228,0,0,1,3.648,2.375c1.161.911,2.262,1.91,3.389,2.883a25.7,25.7,0,0,0,3.483,2.632,10.084,10.084,0,0,0,3.9,1.362c2.732.361,5.352-.572,7.853-1.223,4.966-1.3,9.535-2.927,13.588-2.395a11.23,11.23,0,0,1,7.76,4.912,7.248,7.248,0,0,1,.966,2.357A3.313,3.313,0,0,1,315.176,445.188Z" transform="translate(-239.572 -426.274)" fill="#263238"/></g><g transform="translate(0 4.181)"><path d="M315.176,445.188a9.067,9.067,0,0,0-1.28-3.093,10.126,10.126,0,0,0-2.794-2.732,11.16,11.16,0,0,0-4.8-1.837c-3.877-.455-8.367,1.176-13.357,2.527-2.466.652-5.16,1.651-8.109,1.281a10.749,10.749,0,0,1-4.172-1.444,25.927,25.927,0,0,1-3.586-2.7A39.033,39.033,0,0,0,255.7,427.058a22.35,22.35,0,0,0-6.319-.036,13.767,13.767,0,0,0-4.888,1.705,12.463,12.463,0,0,0-2.994,2.538,30.279,30.279,0,0,0-1.928,2.783,10.833,10.833,0,0,1,1.717-2.957,12.232,12.232,0,0,1,3-2.7,13.968,13.968,0,0,1,5.012-1.862,22.508,22.508,0,0,1,6.47-.05,37.208,37.208,0,0,1,7.237,1.612A41.885,41.885,0,0,1,270.5,431.4a31.228,31.228,0,0,1,3.648,2.375c1.161.911,2.262,1.91,3.389,2.883a25.7,25.7,0,0,0,3.483,2.632,10.084,10.084,0,0,0,3.9,1.362c2.732.361,5.352-.572,7.853-1.223,4.966-1.3,9.535-2.927,13.588-2.395a11.23,11.23,0,0,1,7.76,4.912,7.248,7.248,0,0,1,.966,2.357A3.313,3.313,0,0,1,315.176,445.188Z" transform="translate(-239.572 -426.274)" fill="#263238"/></g><g transform="translate(10.854 12.432)"><path d="M247.631,441.806a13.4,13.4,0,0,1,2.674-1.852,77.139,77.139,0,0,1,14.174-6.664,13.386,13.386,0,0,1,3.13-.877,16.938,16.938,0,0,1-2.954,1.342c-1.844.768-4.38,1.848-7.136,3.141s-5.2,2.561-6.971,3.49A16.851,16.851,0,0,1,247.631,441.806Z" transform="translate(-247.63 -432.399)" fill="#263238"/></g><g transform="translate(12.648 17.044)"><path d="M248.963,445.84c-.085-.175,4.481-2.557,10.2-5.319s10.419-4.863,10.5-4.687-4.481,2.555-10.2,5.319S249.047,446.014,248.963,445.84Z" transform="translate(-248.962 -435.823)" fill="#263238"/></g><g transform="translate(9.8 13.899)"><path d="M271.325,448.915c-.1.163-5.667-3.156-12.424-7.414s-12.155-7.843-12.051-8.006,5.665,3.155,12.426,7.414S271.428,448.75,271.325,448.915Z" transform="translate(-246.848 -433.489)" fill="#263238"/></g><g transform="translate(19.075 11.193)"><path d="M272.067,444.194a16.624,16.624,0,0,1-2.724-1.82c-1.637-1.18-3.894-2.811-6.421-4.564s-4.848-3.293-6.526-4.413a16.534,16.534,0,0,1-2.66-1.911,14.044,14.044,0,0,1,2.922,1.491c1.752,1.014,4.124,2.5,6.665,4.256s4.759,3.462,6.323,4.747A14.052,14.052,0,0,1,272.067,444.194Z" transform="translate(-253.734 -431.479)" fill="#263238"/></g></g></g></g></g></svg>