<svg xmlns="http://www.w3.org/2000/svg" width="24" height="24" viewBox="0 0 24 24"><defs><style>.a{fill:none;}.b{fill:#585858;}</style></defs><g transform="translate(-0.31)"><rect class="a" width="24" height="24" transform="translate(0.31)"/><path class="b" d="M20.432,12.5A2.445,2.445,0,0,1,22,10.219a9.691,9.691,0,0,0-1.173-2.825,2.478,2.478,0,0,1-.995.213A2.44,2.44,0,0,1,17.6,4.173,9.662,9.662,0,0,0,14.781,3a2.443,2.443,0,0,1-4.562,0A9.691,9.691,0,0,0,7.394,4.173,2.44,2.44,0,0,1,5.162,7.607a2.4,2.4,0,0,1-.995-.213A9.9,9.9,0,0,0,3,10.224a2.444,2.444,0,0,1,0,4.562,9.691,9.691,0,0,0,1.173,2.825A2.441,2.441,0,0,1,7.4,20.832,9.748,9.748,0,0,0,10.224,22a2.438,2.438,0,0,1,4.552,0A9.691,9.691,0,0,0,17.6,20.832a2.443,2.443,0,0,1,3.221-3.221A9.748,9.748,0,0,0,22,14.786,2.457,2.457,0,0,1,20.432,12.5Zm-7.887,3.953A3.958,3.958,0,1,1,16.5,12.5,3.957,3.957,0,0,1,12.545,16.453Z" transform="translate(-0.544 -0.252)"/></g></svg>