<svg xmlns="http://www.w3.org/2000/svg" width="24" height="24" viewBox="0 0 24 24"><defs><style>.a{fill:none;}.b{fill:#950007;}</style></defs><g transform="translate(-0.31)"><rect class="a" width="24" height="24" transform="translate(0.31)"/><path class="b" d="M15.226.136l-1.631,1.9L11.283.136a.675.675,0,0,0-.816,0l-2.311,1.9L5.846.136a.675.675,0,0,0-.816,0l-2.311,1.9L1.088.136A.679.679,0,0,0,0,.68V21.071a.679.679,0,0,0,1.088.544l1.631-1.9,2.311,1.9a.675.675,0,0,0,.816,0l2.311-1.9,2.311,1.9a.675.675,0,0,0,.816,0l2.311-1.9,1.631,1.9a.68.68,0,0,0,1.088-.544V.68A.679.679,0,0,0,15.226.136ZM13.595,15.294a.341.341,0,0,1-.34.34H3.059a.341.341,0,0,1-.34-.34v-.68a.341.341,0,0,1,.34-.34h10.2a.341.341,0,0,1,.34.34Zm0-4.078a.341.341,0,0,1-.34.34H3.059a.341.341,0,0,1-.34-.34v-.68a.341.341,0,0,1,.34-.34h10.2a.341.341,0,0,1,.34.34Zm0-4.078a.341.341,0,0,1-.34.34H3.059a.341.341,0,0,1-.34-.34v-.68a.341.341,0,0,1,.34-.34h10.2a.341.341,0,0,1,.34.34Z" transform="translate(3.456 0.999)"/></g></svg>