<svg xmlns="http://www.w3.org/2000/svg" width="24" height="24" viewBox="0 0 24 24"><defs><style>.a{fill:none;}.b{fill:#585858;}</style></defs><g transform="translate(-0.31)"><rect class="a" width="24" height="24" transform="translate(0.31)"/><path class="b" d="M9.6,15.6A7.8,7.8,0,1,0,1.8,7.8,7.8,7.8,0,0,0,9.6,15.6ZM8.768,3.653v-.63A.621.621,0,0,1,9.39,2.4h.416a.621.621,0,0,1,.622.622V3.66a2.956,2.956,0,0,1,1.613.578.42.42,0,0,1,.045.641l-.611.581a.423.423,0,0,1-.525.037,1.234,1.234,0,0,0-.668-.191H8.824a.652.652,0,0,0-.611.686.678.678,0,0,0,.454.66l2.336.7a2.349,2.349,0,0,1,1.639,2.254,2.312,2.312,0,0,1-2.216,2.34v.63A.621.621,0,0,1,9.8,13.2H9.386a.621.621,0,0,1-.623-.623V11.94a2.956,2.956,0,0,1-1.612-.577.42.42,0,0,1-.045-.641l.611-.581a.423.423,0,0,1,.525-.038,1.234,1.234,0,0,0,.668.191h1.459a.652.652,0,0,0,.611-.686.678.678,0,0,0-.454-.66l-2.336-.7A2.349,2.349,0,0,1,6.551,5.993,2.315,2.315,0,0,1,8.768,3.653ZM18,13.2H16.781a9.089,9.089,0,0,1-2.737,2.4h2.392a.335.335,0,0,1,.36.3v.6a.335.335,0,0,1-.36.3H2.76a.335.335,0,0,1-.36-.3v-.6a.335.335,0,0,1,.36-.3H5.153a9.134,9.134,0,0,1-2.737-2.4H1.2A1.2,1.2,0,0,0,0,14.4V18a1.2,1.2,0,0,0,1.2,1.2H18A1.2,1.2,0,0,0,19.2,18V14.4A1.2,1.2,0,0,0,18,13.2Z" transform="translate(3.11 2.201)"/></g></svg>