<svg xmlns="http://www.w3.org/2000/svg" xmlns:xlink="http://www.w3.org/1999/xlink" width="24" height="24" viewBox="0 0 24 24"><defs><style>.a{fill:none;}.b{clip-path:url(#a);}.c{fill:#585858;}</style><clipPath id="a"><rect class="a" width="24" height="24" transform="translate(0.31)"/></clipPath></defs><g transform="translate(-0.31)"><g class="b"><g transform="translate(1.759 0.001)"><g transform="translate(0 -0.414)"><path class="c" d="M10.757,8.275H13.24V21.93a.414.414,0,0,0,.414.414h4.138a.414.414,0,0,0,.414-.414V8.275h2.483a.408.408,0,0,0,.335-.645L16.07.583a.414.414,0,0,0-.67,0L14.108,2.412,11.241,6.471,10.422,7.63a.408.408,0,0,0,.335.645Z"/><path class="c" d="M.9,18.354l2.867,4.059,1.291,1.829a.414.414,0,0,0,.67,0L10.681,17.2a.408.408,0,0,0-.335-.645H7.863V2.9a.414.414,0,0,0-.414-.414H3.311A.414.414,0,0,0,2.9,2.9V16.55H.415A.408.408,0,0,0,.08,17.2Z"/></g></g></g></g></svg>